<svg width="1608" height="1604" fill="none" xmlns="http://www.w3.org/2000/svg"><path opacity=".1" d="M402 215.206C402 317.804 312.046 401 200.926 401 89.954 401 0 317.804 0 215.206c0-55.414 26.31-175.798 68.2-209.9 35.423-28.81 16.462 71.29 132.874 24.254C317.337-17.477 402 112.608 402 215.206z" transform="scale(4)" fill="url(#paint0_linear)"><animate attributeName="d" dur="5s" repeatCount="indefinite" keyTimes="0; .5; 1" values="M402 215.206C402 317.804 312.046 401 200.926 401C89.9539 401 0 317.804 0 215.206C0 159.792 26.3101 39.408 68.2004 5.30661C103.623 -23.5032 84.6625 76.5961 201.074 29.5597C317.337 -17.4766 402 112.608 402 215.206Z; M402.833 216.217C410.333 352.01 260.62 398.51 149.5 398.51C38.5274 398.51 0.8329 318.815 0.8329 216.217C0.8329 160.802 -12.667 55.5102 69.0333 6.31729C104.456 -22.4925 110.926 58.45 172 26.0103C288.264 -21.0261 402.833 113.619 402.833 216.217Z; M402 215.206C402 317.804 312.046 401 200.926 401C89.9539 401 0 317.804 0 215.206C0 159.792 26.3101 39.408 68.2004 5.30661C103.623 -23.5032 84.6625 76.5961 201.074 29.5597C317.337 -17.4766 402 112.608 402 215.206Z;"/></path><path opacity=".2" d="M347.469 186.145c0 88.634-77.754 160.511-173.734 160.511S0 274.779 0 186.145C0 138.079 22.782 34.011 58.94 4.614c30.573-24.988 14.258 61.588 114.795 20.872 100.536-40.569 173.734 71.878 173.734 160.659z" transform="matrix(4 0 0 4 47.035 64.506)" fill="url(#paint1_linear)"><animate attributeName="d" dur="5s" repeatCount="indefinite" keyTimes="0; .5; 1" values="M347.469 186.145C347.469 274.779 269.715 346.656 173.735 346.656C77.7543 346.656 0 274.779 0 186.145C0 138.079 22.7824 34.0115 58.9404 4.6138C89.513 -20.3743 73.1978 66.202 173.735 25.4862C274.271 -15.0827 347.469 97.3636 347.469 186.145Z; M353.408 214.545C353.408 330.773 269.715 345.828 173.735 345.828C37.4082 345.828 0 273.951 0 185.316C0 137.251 22.7824 33.1832 58.9404 3.78549C89.513 -21.2026 77.4149 88.4314 177.908 16.0447C277.415 -32.0686 353.408 125.764 353.408 214.545Z; M347.469 186.145C347.469 274.779 269.715 346.656 173.735 346.656C77.7543 346.656 0 274.779 0 186.145C0 138.079 22.7824 34.0115 58.9404 4.6138C89.513 -20.3743 73.1978 66.202 173.735 25.4862C274.271 -15.0827 347.469 97.3636 347.469 186.145Z;"/></path><path opacity=".2" d="M293.743 133.776c7.349 74.818-52.326 141.844-133.167 149.782C79.735 291.495 8.154 237.403.804 162.586-3.164 122.164 7.42 32.501 35.493 4.72c23.81-23.518 17.05 50.711 98.626 8.085 81.134-42.627 152.274 46.154 159.624 120.971z" transform="matrix(4 0 0 4 174.926 261.045)" fill="url(#paint2_linear)"><animate attributeName="d" dur="5s" repeatCount="indefinite" keyTimes="0; .5; 1" values="M293.743 133.776C301.092 208.594 241.417 275.62 160.576 283.558C79.7346 291.495 8.15362 237.403 0.804445 162.586C-3.16411 122.164 7.41871 32.5012 35.4926 4.72036C59.3039 -18.7978 52.5427 55.4314 134.119 12.8047C215.253 -29.822 286.393 58.9591 293.743 133.776Z; M299.074 141.253C306.424 216.07 244.941 269.278 164.1 277.215C83.2594 285.152 13.4854 244.88 6.1362 170.063C2.16764 129.641 -16.7325 54.2151 40.8243 12.197C64.6356 -11.3212 72.9173 44.6307 136.267 12.197C246.917 -35.3694 291.725 66.4358 299.074 141.253Z; M293.743 133.776C301.092 208.594 241.417 275.62 160.576 283.558C79.7346 291.495 8.15362 237.403 0.804445 162.586C-3.16411 122.164 7.41871 32.5012 35.4926 4.72036C59.3039 -18.7978 52.5427 55.4314 134.119 12.8047C215.253 -29.822 286.393 58.9591 293.743 133.776Z;"/></path><path opacity=".3" d="M227.02 114.527c2.204 57.914-46.888 106.861-109.503 109.213C54.902 226.091 2.282 181.113.077 123.199-1.1 91.891 11.247 23.247 34.03 3.257c19.402-17.051 10.877 39.834 75.55 10.73 64.672-29.104 115.235 42.48 117.44 100.54z" transform="matrix(4 0 0 4 200.766 325.107)" fill="url(#paint3_linear)"><animate attributeName="d" dur="5s" repeatCount="indefinite" keyTimes="0; .5; 1" values="M227.02 114.527C229.224 172.441 180.132 221.388 117.517 223.74C54.9018 226.091 2.2817 181.113 0.0769438 123.199C-1.09892 91.8907 11.2477 23.247 34.0301 3.25659C53.432 -13.7941 44.9069 43.0905 109.58 13.9868C174.252 -15.117 224.815 56.4665 227.02 114.527Z; M245.476 144.166C247.68 202.079 180.132 222.331 117.517 224.683C54.9018 227.035 2.2817 182.056 0.0769427 124.143C-1.09893 92.8339 11.2477 24.1902 34.0301 4.19978C53.432 -12.8509 70.2045 28.9017 126.976 8.16589C215.279 -24.0874 243.271 86.1053 245.476 144.166Z; M227.02 114.527C229.224 172.441 180.132 221.388 117.517 223.74C54.9018 226.091 2.2817 181.113 0.0769438 123.199C-1.09892 91.8907 11.2477 23.247 34.0301 3.25659C53.432 -13.7941 44.9069 43.0905 109.58 13.9868C174.252 -15.117 224.815 56.4665 227.02 114.527Z;"/></path><path opacity=".4" d="M199.671 100.76c1.911 50.858-41.155 93.925-96.274 95.983-55.119 2.058-101.272-37.482-103.33-88.34C-.96 80.916 9.77 20.651 29.906 2.865c17.05-14.992 9.554 34.984 66.437 9.555 56.883-25.723 101.419 37.335 103.329 88.34z" transform="matrix(4 0 0 4 224.318 369.593)" fill="url(#paint4_linear)"><animate attributeName="d" dur="5s" repeatCount="indefinite" keyTimes="0; .5; 1" values="M199.671 100.76C201.582 151.618 158.516 194.685 103.397 196.743C48.2783 198.801 2.12549 159.261 0.0677199 108.403C-0.961165 80.9163 9.76863 20.6509 29.9054 2.8653C46.9555 -12.1275 39.4593 37.8486 96.3419 12.4196C153.225 -13.3034 197.761 49.7547 199.671 100.76Z; M207.587 116.337C209.498 167.195 158.516 195.421 103.397 197.479C48.2783 199.537 2.12549 159.997 0.0677188 109.139C-0.961166 81.6518 9.76863 21.3864 29.9054 3.60079C46.9555 -11.392 71.1659 26.5184 109.587 7.33679C197.166 -16.4816 205.677 65.3317 207.587 116.337Z; M199.671 100.76C201.582 151.618 158.516 194.685 103.397 196.743C48.2783 198.801 2.12549 159.261 0.0677199 108.403C-0.961165 80.9163 9.76863 20.6509 29.9054 2.8653C46.9555 -12.1275 39.4593 37.8486 96.3419 12.4196C153.225 -13.3034 197.761 49.7547 199.671 100.76Z;"/></path><path opacity=".5" d="M174.673 88.192c1.764 44.538-36.011 82.167-84.221 83.931C42.242 173.887 1.82 139.344.057 94.807-.825 70.7 8.582 17.932 26.22 2.498c14.845-13.082 8.378 30.574 58.058 8.231 49.828-22.195 88.632 32.926 90.395 77.463z" transform="matrix(4 0 0 4 246.117 408.104)" fill="url(#paint5_linear)"><animate attributeName="d" dur="5s" repeatCount="indefinite" keyTimes="0; .5; 1" values="M174.673 88.1924C176.437 132.73 138.662 170.359 90.4517 172.123C42.2411 173.887 1.82066 139.344 0.0568589 94.8069C-0.825042 70.7008 8.5819 17.9319 26.2199 2.49805C41.0653 -10.5839 34.598 33.0717 84.2784 10.7294C134.106 -11.4659 172.91 43.6549 174.673 88.1924Z; M174.638 106.357C176.402 150.894 138.662 170.242 90.4517 172.006C42.2411 173.77 1.82066 139.228 0.0568567 94.6902C-0.825045 70.5841 8.5819 17.8152 26.2199 2.38136C41.0653 -10.7006 62.83 35.6011 102.138 9.35693C180.638 -21.6431 172.874 61.8194 174.638 106.357Z; M174.673 88.1924C176.437 132.73 138.662 170.359 90.4517 172.123C42.2411 173.887 1.82066 139.344 0.0568589 94.8069C-0.825042 70.7008 8.5819 17.9319 26.2199 2.49805C41.0653 -10.5839 34.598 33.0717 84.2784 10.7294C134.106 -11.4659 172.91 43.6549 174.673 88.1924Z;"/></path><path opacity=".6" d="M139.243 70.195c1.323 35.571-28.662 65.41-67.172 66.88C33.71 138.545 1.372 110.911.05 75.487-.686 56.23 6.811 14.192 20.921 1.992c11.906-10.436 6.614 24.4 46.3 6.615C106.906-9.18 137.92 34.77 139.243 70.195z" transform="matrix(4 0 0 4 275.543 512.431)" fill="url(#paint6_linear)"><animate attributeName="d" dur="5s" repeatCount="indefinite" keyTimes="0; .5; 1" values="M139.243 70.195C140.566 105.766 110.581 135.605 72.0713 137.075C33.7086 138.545 1.37221 110.911 0.0493603 75.4866C-0.685557 56.231 6.8106 14.1923 20.921 1.99224C32.8267 -8.44395 27.5353 26.3924 67.2208 8.60673C106.906 -9.1789 137.92 34.7707 139.243 70.195Z; M146.781 63.5336C148.581 111.731 110.581 143.747 72.0713 145.216C33.7086 146.686 1.37221 119.052 0.0493581 83.6282C-0.68556 64.3727 6.8106 22.334 20.921 10.1339C32.8267 -0.302261 23.5957 27.9195 63.2812 10.1339C119.675 -21.5809 145.458 28.1094 146.781 63.5336Z; M139.243 70.195C140.566 105.766 110.581 135.605 72.0713 137.075C33.7086 138.545 1.37221 110.911 0.0493603 75.4866C-0.685557 56.231 6.8106 14.1923 20.921 1.99224C32.8267 -8.44395 27.5353 26.3924 67.2208 8.60673C106.906 -9.1789 137.92 34.7707 139.243 70.195Z;"/></path><path opacity=".8" d="M112.482 56.715c1.029 28.663-23.224 52.916-54.237 54.092C27.23 111.983 1.215 89.641.039 60.977-.549 45.398 5.478 11.59 16.795 1.595c9.554-8.378 5.439 19.697 37.334 5.292 32.19-14.258 57.324 21.166 58.353 49.83z" transform="matrix(4 0 0 4 303.805 546.36)" fill="url(#paint7_linear)"><animate attributeName="d" dur="5s" repeatCount="indefinite" keyTimes="0; .5; 1" values="M112.482 56.7151C113.511 85.3779 89.2583 109.631 58.2448 110.807C27.2313 111.983 1.21518 89.6406 0.0393136 60.9778C-0.548621 45.397 5.4777 11.5896 16.7954 1.59438C26.3494 -6.78397 22.2338 21.2909 54.1293 6.88597C86.3187 -7.37193 111.453 28.0523 112.482 56.7151Z; M115.716 44.3369C116.745 72.9997 99.7293 109.661 68.7158 110.837C37.7023 112.013 0.0393125 104.837 0.0393125 60.9051C-0.548622 45.3243 5.4777 11.5169 16.7954 1.5217C26.3494 -6.85666 31.5488 22.8369 54.1293 6.81328C90.5488 -10.6631 114.687 15.6741 115.716 44.3369Z; M112.482 56.7151C113.511 85.3779 89.2583 109.631 58.2448 110.807C27.2313 111.983 1.21518 89.6406 0.0393136 60.9778C-0.548621 45.397 5.4777 11.5896 16.7954 1.59438C26.3494 -6.78397 22.2338 21.2909 54.1293 6.88597C86.3187 -7.37193 111.453 28.0523 112.482 56.7151Z;"/></path><path d="M84.104 42.367c.882 21.46-17.344 39.54-40.568 40.422C20.313 83.671.764 67.061.03 45.601-.41 33.989 4.145 8.56 12.67 1.211c7.203-6.321 3.97 14.698 27.928 3.968C64.555-5.698 83.222 20.907 84.104 42.367z" transform="matrix(4 0 0 4 332.654 578.469)" fill="url(#paint8_linear)"><animate attributeName="d" dur="5s" repeatCount="indefinite" keyTimes="0; .5; 1" values="M84.1039 42.3672C84.9858 63.8275 66.7598 81.9072 43.5364 82.7891C20.313 83.671 0.764185 67.0613 0.0292673 45.601C-0.411683 33.9888 4.1448 8.55982 12.6698 1.21039C19.872 -5.11013 16.6384 15.9093 40.5967 5.17909C64.555 -5.69807 83.222 20.9069 84.1039 42.3672Z; M92.5337 45.6898C94.0753 83.2048 66.7898 79.2146 43.5664 80.0965C20.343 80.9784 0.794239 64.3687 0.0593212 42.9084C-0.381629 31.2963 1.50865 14.0391 10.0337 6.68965C17.2359 0.369136 21.7739 21.8928 55.0337 4.18967C86.2175 -12.4084 91.6518 24.2294 92.5337 45.6898Z; M84.1039 42.3672C84.9858 63.8275 66.7598 81.9072 43.5364 82.7891C20.313 83.671 0.764185 67.0613 0.0292673 45.601C-0.411683 33.9888 4.1448 8.55982 12.6698 1.21039C19.872 -5.11013 16.6384 15.9093 40.5967 5.17909C64.555 -5.69807 83.222 20.9069 84.1039 42.3672Z;"/></path><defs><linearGradient id="paint0_linear" x2="1" gradientUnits="userSpaceOnUse" gradientTransform="matrix(178.09224 -355.46078 355.44827 178.0985 -71.356 290.103)"><stop stop-color="#79CBBF"/><stop offset="1" stop-color="#FEEF2F"/></linearGradient><linearGradient id="paint1_linear" x2="1" gradientUnits="userSpaceOnUse" gradientTransform="matrix(153.93899 -307.24565 307.23492 153.94437 -61.648 250.682)"><stop stop-color="#79CBBF"/><stop offset="1" stop-color="#FEEF2F"/></linearGradient><linearGradient id="paint2_linear" x2="1" gradientUnits="userSpaceOnUse" gradientTransform="scale(291.175 291.185) rotate(-69.006 .476 .497)"><stop stop-color="#79CBBF"/><stop offset="1" stop-color="#FEEF2F"/></linearGradient><linearGradient id="paint3_linear" x2="1" gradientUnits="userSpaceOnUse" gradientTransform="matrix(92.93797 -204.55567 204.54839 92.94128 -38.747 166.76)"><stop stop-color="#79CBBF"/><stop offset="1" stop-color="#FEEF2F"/></linearGradient><linearGradient id="paint4_linear" x2="1" gradientUnits="userSpaceOnUse" gradientTransform="matrix(81.6808 -179.7804 179.77402 81.6837 -33.835 146.776)"><stop stop-color="#79CBBF"/><stop offset="1" stop-color="#FEEF2F"/></linearGradient><linearGradient id="paint5_linear" x2="1" gradientUnits="userSpaceOnUse" gradientTransform="matrix(71.46608 -157.2961 157.29064 71.46857 -29.593 128.547)"><stop stop-color="#79CBBF"/><stop offset="1" stop-color="#FEEF2F"/></linearGradient><linearGradient id="paint6_linear" x2="1" gradientUnits="userSpaceOnUse" gradientTransform="matrix(56.96436 -125.37931 125.37476 56.96643 -23.619 102.37)"><stop stop-color="#79CBBF"/><stop offset="1" stop-color="#FEEF2F"/></linearGradient><linearGradient id="paint7_linear" x2="1" gradientUnits="userSpaceOnUse" gradientTransform="scale(111.21 111.213) rotate(-65.565 .492 .505)"><stop stop-color="#79CBBF"/><stop offset="1" stop-color="#FEEF2F"/></linearGradient><linearGradient id="paint8_linear" x2="1" gradientUnits="userSpaceOnUse" gradientTransform="matrix(34.4274 -75.7747 75.77206 34.4286 -14.319 61.722)"><stop stop-color="#79CBBF"/><stop offset="1" stop-color="#FEEF2F"/></linearGradient></defs></svg>