<svg width="55" height="50" fill="none" xmlns="http://www.w3.org/2000/svg"><path d="M36.586 3.713L33.678.743C33.194.248 32.71 0 32.225 0c-.97 0-1.696.743-1.696 1.733V15.84c0 1.238-.97 2.723-2.908 2.723H15.507c-1.454 0-2.423 1.238-2.423 2.476v12.376h29.075V21.287c0-.247.484-2.723 2.907-2.723h5.815c1.696 0 2.907-1.485 2.907-2.97V3.713H36.587zM51.123 27.475c-1.696 0-2.907 1.238-2.907 2.97 0 1.733 1.211 2.97 2.907 2.97s2.908-1.237 2.908-2.97c0-1.485-1.454-2.97-2.908-2.97zM1.454 33.416h4.119c.727 0 1.453-.743 1.453-1.733 0-.742-.242-.99-.726-1.485l-2.908-2.97-2.907 2.97c-.243.743-.485.99-.485 1.733 0 .742.727 1.485 1.454 1.485zM15.991 44.802s-.484 1.237-1.696 1.237c-1.454 0-2.18-.742-2.18-2.475s.726-2.723 2.18-2.723c1.212 0 1.454.99 1.696.99v2.97zm3.15 1.237c-.727.248-.97-.247-.97-.742v-5.94h-2.18v.494c-.242-.247-.97-.99-2.18-.99-2.423 0-3.877 1.98-3.877 4.703 0 2.475 1.454 4.208 3.876 4.208.97 0 2.423-.495 2.423-1.485 0 .99.727 1.485 1.696 1.485.727 0 .97-.247 1.454-.495l-.242-1.238c.242 0 .242 0 0 0zM7.996 39.109h-6.3s-.242 0-.242.247c0 4.703-.243 6.436-1.212 6.436H0v1.98c0 .248.727.248.727.248 2.423 0 3.15-2.228 3.15-6.436h1.696v5.94h2.423V39.11c.242.247.242 0 0 0zM24.229 45.545h-1.211v-1.486h1.211c1.211 0 1.211.495 1.211.743.243.495 0 .743-1.211.743zm-1.211-4.456h1.211c.97 0 1.211.248 1.211.743 0 .742-.726.742-.969.742h-1.453V41.09zm3.876 2.228h-.484c.969-.495 1.453-.99 1.453-1.98 0-1.486-1.211-2.228-3.634-2.228h-3.392v8.416h3.392c2.907 0 3.877-.743 3.877-2.476.242-.99-.485-1.485-1.212-1.732zM42.4 44.802s-.484 1.237-1.938 1.237c-1.211 0-1.696-.495-1.696-1.485 0-1.732.727-3.465 2.666-3.465 1.211 0 1.453.99 1.453.99l-.484 2.723zm2.181.742c0-.247 0-.247.97-6.435h-1.939-.242v.742c-.242-.247-.727-.99-2.18-.99-2.908 0-4.846 2.723-4.846 5.446 0 2.227 1.211 3.465 3.15 3.465.968 0 2.422-.495 2.907-1.485v.247c0 .743.484 1.238 1.454 1.238.726 0 1.211-.247 1.453-.495l.243-1.238h-.485c-.242 0-.485 0-.485-.495zM52.093 42.08c-.243.247-.485.494-.727.494h-1.454l.242-1.485h1.212c.969 0 .969.495.969.743-.242 0-.242.247-.242.247zm-1.696 3.465h-1.212l.242-1.486h1.454c1.212 0 1.212.495 1.212.743 0 .247 0 .743-1.696.743zm2.665-2.228c1.211-.248 1.696-.99 1.696-1.98 0-1.238-1.212-2.228-3.15-2.228h-3.634l-1.212 8.168h4.119c2.665 0 4.12-.99 4.12-2.475-.486-.743-1.455-1.485-1.94-1.485zM31.982 48.02c-.242 1.485-1.211 1.98-2.18 1.98-.727 0-1.454-.248-1.696-.495l.242-1.238h.485c.484 0 .484-.247.726-.99l1.212-8.168h5.572l-.242 1.98h-2.907l-1.212 6.93z" fill="#6BBE45"/></svg>