<svg width="53.75" height="60" fill="none" xmlns="http://www.w3.org/2000/svg"><path d="M6.619 0H47.13v40.631H6.62z" fill="#eb0a1e"/><path d="M26.875 11.093c-7.65 0-13.504 3.956-13.504 9.223 0 5.094 5.705 9.225 13.504 9.225s13.504-4.131 13.504-9.225c0-5.267-5.855-9.225-13.504-9.225zm8.42 3.956c.281 1.137-1.04 2.557-5.288 3.022-.283-2.896-1.14-5.342-2.56-5.861 1.912.055 3.723.379 5.302.954 1.476.559 2.393 1.271 2.546 1.885zM29 20.27c0 3.67-1.1 5.19-2.126 5.19-1.028 0-2.126-1.52-2.126-5.19v-.037c.682.057 1.393.087 2.125.087.733 0 1.443-.03 2.127-.087zm-2.127-2.045a31.612 31.612 0 0 1-1.992-.058c.323-2.4 1.18-3.794 1.993-3.794s1.67 1.395 1.992 3.794a32.64 32.64 0 0 1-1.994.058zm-8.42-3.177c.15-.611 1.06-1.32 2.522-1.878 1.585-.58 3.405-.906 5.325-.961-1.419.519-2.275 2.965-2.559 5.863-4.25-.467-5.57-1.888-5.288-3.025zm-3.092 4.935a6.22 6.22 0 0 1 1.422-4.008c.116 2.06 2.893 3.596 6.855 4.135v.16c0 4.97 1.27 7.604 2.677 8.148-6.046-.218-10.954-3.953-10.954-8.435zm12.047 8.436c1.417-.568 2.702-3.395 2.702-8.149v-.16c3.96-.538 6.738-2.075 6.855-4.135a6.221 6.221 0 0 1 1.421 4.008c0 4.487-4.921 8.227-10.978 8.436z" fill="#fff"/><path d="M47.509 56l1.262-3.324 1.263 3.325h-2.525zm2.575-5.211h-2.625L43.79 59.8h2.275l.834-2.2h3.741l.837 2.2h2.272zm-18.51 7.445c-1.481 0-2.679-1.34-2.679-2.993 0-1.653 1.198-2.995 2.679-2.995 1.479 0 2.679 1.34 2.679 2.995 0 1.654-1.2 2.993-2.68 2.993zm0-7.754a4.754 4.754 0 0 0-4.746 4.761A4.752 4.752 0 0 0 31.574 60a4.754 4.754 0 0 0 4.746-4.759 4.754 4.754 0 0 0-4.746-4.761zm-18.729 7.754c-1.477 0-2.677-1.34-2.677-2.993 0-1.653 1.2-2.995 2.677-2.995 1.481 0 2.68 1.34 2.68 2.995 0 1.654-1.2 2.993-2.68 2.993zm0-7.754a4.753 4.753 0 0 0-4.744 4.761A4.75 4.75 0 0 0 12.845 60a4.753 4.753 0 0 0 4.746-4.759c0-2.628-2.125-4.761-4.746-4.761zm11.731.309l-2.325 3.646-2.327-3.646h-2.275l3.601 5.652v3.36h2.003v-3.36l3.6-5.652h-2.275zm19.694 0h-7.681v1.729h2.845V59.8h2.004v-7.283h2.832v-1.73zM0 52.518h2.846V59.8H4.85v-7.283h2.834v-1.73H0v1.728z" fill="#eb0a1e"/></svg>