<svg width="126" height="30" fill="none" xmlns="http://www.w3.org/2000/svg"><path d="M126 0H0v30h126V0z" fill="#0BB3C8"/><path d="M112.025 18.737v-2.338h1.632a1.097 1.097 0 0 1 .855.319 1.02 1.02 0 0 1 .302.835 1.057 1.057 0 0 1-.308.846c-.11.112-.244.2-.393.258a1.168 1.168 0 0 1-.469.08h-1.62zm0-4.546v-2.004h1.343a.951.951 0 0 1 .744.249.885.885 0 0 1 .219.327.857.857 0 0 1 .053.386.898.898 0 0 1-.24.733.995.995 0 0 1-.73.308h-1.39zm-2.7 6.896h4.056c2.192 0 4.198-.899 4.198-3.361a2.458 2.458 0 0 0-.425-1.547 2.604 2.604 0 0 0-1.304-.99v-.03c.407-.263.739-.621.963-1.04a2.71 2.71 0 0 0 .322-1.361c0-1.941-1.543-2.952-3.748-2.952h-4.056l-.007 11.281zm-8.885 0h7.123v-2.35h-4.423v-2.134h3.362v-2.338h-3.362v-2.078h4.217V9.818h-6.917v11.27zm-11.635 0h2.712l3.073-5.253c.343-.625.652-1.267.926-1.922 0 0-.122 1.24-.122 1.922v5.253h2.7V9.818h-2.732l-3.054 5.272a19.448 19.448 0 0 0-.926 1.923s.123-1.21.123-1.923V9.818h-2.7v11.27zm-10.415 0h2.7V16.53h1.112l2.328 4.558h3.027l-3.15-5.848v-.037l2.977-5.396h-2.9l-2.282 4.341H81.09V9.806h-2.7v11.281zm-19.825 0h13.654V9.818h-2.7v8.931h-2.777V9.82h-2.7v8.93h-2.777V9.82h-2.7v11.268zM51.19 16.53l.643-2.196c.199-.713.45-1.941.45-1.941s.244 1.24.443 1.941l.643 2.196h-2.18zm-4.076 4.558h2.777l.643-2.363H54l.643 2.363h2.777L53.705 9.818h-2.842l-3.748 11.27zm-10.523 0h2.7v-4.403h4.017v4.403h2.694V9.818h-2.694v4.515h-4.017V9.818h-2.7v11.27zM27.077 18.78H11.648v2.91h15.429v-2.91zM27.077 13.725H11.648v2.91h15.429v-2.91zM27.077 8.664H11.648v2.91h15.429v-2.91z" fill="#fff"/></svg>