<svg width="53" height="70" fill="none" xmlns="http://www.w3.org/2000/svg"><path d="M4.002 46.978V23.956c0-12.141 10.35-20.177 22.466-20.177 12.115 0 22.551 8.036 22.551 20.177v23.022c0 11.663-10.393 19.265-22.508 19.265-12.115 0-22.509-7.428-22.509-19.265z" fill="#fff"/><path d="M40.54 32.644c.367-.522.69-1.065.97-1.651 2.043-4.409.881-9.252-2.626-10.816-1.463-.652-3.12-.63-4.67-.044-1.14-3.974-4.174-6.841-7.725-6.841-3.572 0-6.606 2.867-7.725 6.841-1.57-.564-3.206-.608-4.67.044-3.507 1.564-4.69 6.407-2.625 10.816.28.608.624 1.173 1.012 1.694 4.303-2.172 9.059-3.388 14.073-3.388 4.97 0 9.705 1.194 13.987 3.345z" fill="#ED1C24"/><path d="M15.515 41.722v-2.997H13.47v2.997h-1.959v-6.863h1.959v2.932h2.044v-2.932h1.98v6.863h-1.98zM22.83 41.765l-.774-2.041h-2.41l-.753 2.041h-1.011l2.517-6.863h1.98l2.56 6.863h-2.108zm-2-5.342l-.861 2.432h1.786l-.925-2.432zM25.263 41.722v-6.863h1.958v5.929h1.506v-5.93h1.958v5.93h1.507v-5.93h1.958v6.864h-8.887zM39.422 41.722l-.775-2.042h-2.41l-.753 2.042h-1.011l2.517-6.863h1.98l2.56 6.863h-2.108zm-2.001-5.343l-.861 2.432h1.786l-.925-2.432zM15.321 48.737h-1.528v3.54h-2.26v-8.644h3.594c1.464 0 3.035.76 3.035 2.628-.022 1.955-1.442 2.476-2.84 2.476zm-.925-3.974h-.603v2.845h.603c.731 0 1.506-.282 1.506-1.325-.021-1.108-.71-1.52-1.506-1.52zM23.283 52.277v-7.514h-.473c-1.313 0-1.872.673-1.872 1.628 0 1.304.903 1.564 1.98 1.564.064 0 .172-.021.215-.021l-1.959 4.365h-2.517l1.936-3.757c-.968-.283-1.893-.89-1.893-2.216 0-2.041 1.807-2.671 3.4-2.671h3.464v8.644h-2.28v-.022zM30.254 52.277h-3.593v-8.644h5.38v1.173h-3.12v2.367h1.441c1.334 0 2.905.674 2.905 2.52 0 1.89-1.57 2.584-3.013 2.584zm-.753-3.974H28.9v2.867h.602c.775 0 1.485-.435 1.485-1.52.022-1-.732-1.347-1.485-1.347zM39.142 52.277l-.882-2.562h-2.776l-.86 2.562H33.46l2.905-8.644h2.281l2.948 8.644h-2.453zm-2.28-6.732l-1.012 3.084h2.044l-1.033-3.084zM41.1 43.134c.624 0 1.12.5 1.12 1.13 0 .629-.496 1.128-1.12 1.128-.624 0-1.119-.5-1.119-1.129 0-.63.495-1.13 1.12-1.13zm0 2.085c.517 0 .904-.435.904-.956 0-.543-.409-.956-.904-.956-.516 0-.904.413-.904.956 0 .543.41.956.904.956zm-.409-1.52h.495c.108 0 .366.021.366.325 0 .087-.021.196-.194.26.151.023.151.153.151.283.022.174 0 .217.043.26h-.215c-.043-.043-.043-.064-.043-.26 0-.108 0-.217-.258-.217h-.173v.478h-.215v-1.13h.043zm.215.499h.237c.172 0 .215-.109.215-.196 0-.13-.086-.173-.215-.173h-.215v.369h-.022z" fill="#0050A4"/><path d="M12.803 12.054c-3.593 3.236-5.487 7.862-5.487 13.4V45.48c0 4.648 1.57 8.688 4.519 11.685 3.464 3.497 8.672 5.43 14.697 5.43 5.466 0 10.135-1.455 13.514-4.192 3.7-2.997 5.659-7.471 5.659-12.923V25.433c0-5.473-1.958-10.1-5.66-13.357-3.442-3.04-8.263-4.713-13.556-4.713-5.53.022-10.264 1.65-13.686 4.691zm-.344 44.502C9.66 53.733 8.177 49.91 8.177 45.48V25.433c0-5.3 1.807-9.687 5.207-12.75 3.25-2.888 7.79-4.43 13.083-4.43 5.079 0 9.684 1.586 12.976 4.496 3.508 3.106 5.358 7.493 5.358 12.706V45.5c0 5.17-1.85 9.404-5.336 12.25-3.228 2.606-7.704 3.996-12.955 3.996-5.767-.022-10.759-1.846-14.051-5.19z" fill="#0050A4"/><path d="M45.167 6.733C40.304 2.389 33.677 0 26.511 0 19.324 0 12.696 2.367 7.833 6.69 2.71 11.25 0 17.483 0 24.715v21.545c0 6.994 2.711 13.01 7.854 17.375C12.696 67.741 19.324 70 26.554 70c7.165 0 13.772-2.259 18.592-6.364C50.289 59.271 53 53.255 53 46.261V24.716c0-7.08-2.797-13.466-7.833-17.983zm2.044 39.376c0 10.816-8.327 18.092-20.722 18.092-5.982 0-11.082-1.65-14.805-4.8-3.83-3.236-5.874-7.84-5.874-13.292V24.716c0-5.603 2.023-10.36 5.875-13.791 3.7-3.302 8.994-5.126 14.847-5.126 5.789 0 11.018 1.824 14.74 5.126 3.874 3.431 5.94 8.21 5.94 13.791V46.11z" fill="#FFD400"/></svg>