<svg width="110" height="55" fill="none" xmlns="http://www.w3.org/2000/svg"><path d="M43.047 23.729c-2.152 0-3.075 1.178-3.69 2.121h-.077v-1.807h-3.075V41.72h3.229v-6.678h.077c.384.707 1.153 1.964 3.459 1.964 3.69 0 5.227-3.3 5.227-6.678 0-4.4-2.46-6.6-5.15-6.6zm-1 10.528c-2.075 0-2.69-2.278-2.69-3.85 0-1.964.692-3.85 2.767-3.85 2.23 0 2.768 2.043 2.768 4.086 0 1.886-.846 3.614-2.845 3.614zm20.986 2.357h3.382V24.043h-4.92l-2.92 8.564h-.077l-2.921-8.564h-4.92v12.571h3.382v-7.7c0-.707-.077-1.493-.077-1.493h.077l3.229 9.193h2.613l3.152-9.193h.077s-.077.786-.077 1.493v7.7zM33.592 34.18v-6.836c0-3.143-3.305-3.614-5.15-3.614-2.537 0-5.074.471-5.689 3.928h3.306c.153-.628.615-1.257 1.998-1.257.846 0 2.23.079 2.23 1.493 0 .628-.539 1.021-1.922 1.1-3.229.236-5.996 1.414-5.996 4.321 0 2.593 1.922 3.693 3.92 3.693 2.306 0 3.383-1.021 4.151-1.807.077.707.154.864.308 1.493h3.613v-.55c-.462-.157-.77-.472-.77-1.964zm-3.305-2.043c0 1.493-1.538 2.514-2.998 2.514-.692 0-1.615-.314-1.615-1.493 0-1.336 1-1.65 2.306-1.886 1.384-.235 1.922-.392 2.306-.707v1.572zm44.43-3.143c-3.228.236-5.996 1.414-5.996 4.321 0 2.593 1.922 3.693 3.92 3.693 2.307 0 3.383-1.021 4.151-1.807.077.707.154.864.308 1.493h3.613v-.55c-.385-.157-.769-.472-.769-1.964v-6.836c0-3.143-3.305-3.614-5.15-3.614-2.537 0-5.073.471-5.688 3.928h3.305c.154-.628.615-1.257 1.998-1.257.846 0 2.23.079 2.23 1.493 0 .55-.538.943-1.922 1.1zm1.922 3.143c0 1.493-1.538 2.514-2.998 2.514-.692 0-1.614-.314-1.614-1.493 0-1.336.999-1.65 2.306-1.886 1.383-.235 1.921-.392 2.306-.707v1.572zm-64.34-12.1V18.15H8.686v1.886C5.458 20.036 0 21.764 0 27.42c0 5.658 5.458 7.229 8.686 7.229v1.964H12.3V34.65c3.229 0 8.686-1.65 8.686-7.229 0-5.657-5.457-7.385-8.686-7.385zm-3.613 11.55c-1.921 0-4.92-.707-4.92-4.165 0-3.457 2.998-4.242 4.92-4.242v8.407zm3.613 0v-8.407c1.922 0 4.92.785 4.92 4.242 0 3.458-2.998 4.165-4.92 4.165zm97.624-1.257c0-13.593-10.838-24.672-24.137-24.672V0h-3.228v5.893C74.025 7.07 66.876 12.807 63.57 20.664h3.382c2.998-6.05 8.763-10.528 15.605-11.628v27.657h3.228v-5.657L100.7 45.57c-3.844 3.929-9.07 6.365-14.913 6.365-8.225 0-15.374-4.872-18.833-11.865h-3.382C67.26 48.793 75.793 55 85.786 55c6.688 0 12.76-2.829 17.142-7.307l2.383 2.278H110l-4.92-4.714c2.998-4.164 4.843-9.35 4.843-14.928zm-7.226 12.807L89.322 30.329l6.995-9.665h-3.92l-6.61 9.193V8.8c11.606 0 21.061 9.664 21.061 21.529 0 4.792-1.537 9.192-4.151 12.807z" fill="#33A9E0"/></svg>