<svg width="106" height="36" fill="none" xmlns="http://www.w3.org/2000/svg"><path d="M47.07.2c-.673 0-1.331.187-2.01.518-.673.36-1.24.719-1.681 1.098-.301.263-.61.608-.931.981l-.203-2.28H38.61V19.99h3.894v-4.925c.427.097 1.75.256 2.492.263 4.881 0 8.025-3.585 8.074-7.902.007-4.814-2.157-7.225-6-7.225zm.706 10.568c-.777.746-1.8 1.098-3.046 1.098-.805 0-1.554-.076-2.233-.22V6.92a8.761 8.761 0 0 1 1.764-2.238c.777-.718 1.548-1.057 2.276-1.057.728 0 1.302.304 1.744.919.44.615.672 1.547.672 2.88 0 1.485-.392 2.597-1.177 3.343zM66.395.518S64.491 0 62.74 0c-4.894 0-7.814 3.578-7.87 7.888 0 4.814 2.156 7.225 6.029 7.225.65 0 1.316-.145 1.988-.497a7.76 7.76 0 0 0 1.688-1.099c.287-.248.616-.594.952-.98l.203 2.341h3.634V.518h-2.969zm-.931 7.867a8.348 8.348 0 0 1-1.786 2.238c-.777.719-1.547 1.085-2.268 1.085-.729 0-1.324-.284-1.765-.898-.441-.615-.651-1.589-.651-2.922 0-1.457.4-2.563 1.176-3.302.778-.739 1.82-1.119 3.067-1.119.82 0 1.555.09 2.234.242v4.676h-.007zM90.945.573v14.353h3.466l7.689-8.489v8.53h3.9V.574h-3.333l-7.829 8.51V.573h-3.893zM72.032.518c.308.974 1.127 2.424 2.374 4.345 1.246 1.947 2.052 3.08 2.416 3.44l-5.4 6.561h5.197l2.983-3.923 3.143 3.923h6.022L82.78 7.922 88.81.518h-4.867l-4.138 4.98c-.316-.304-.799-1.05-1.499-2.203-.7-1.154-1.183-2.066-1.442-2.784h-4.832v.007zM20.412.518c.105 1.533.364 3.115.833 4.8.469 1.693 1.057 3.343 1.785 4.884a15.601 15.601 0 0 0 2.78 4.123c.21.228.434.429.652.622l-2.374 5.042h4.446L36.783.518h-4.405l-3.977 10.126c-.68-.933-1.274-2.08-1.785-3.46-.91-2.46-1.4-4.663-1.478-6.666h-4.726zM1.583.518L0 14.87h3.67l.755-8.31c.84 1.071 1.814 1.983 2.78 2.826a12.83 12.83 0 0 0 2.941 2.024l3.711-5.664.813 9.124h3.935L17.085.518h-4.18l-3.487 5.58c-.406-.358-.805-.738-1.19-1.132C6.995 3.723 5.854 2.28 4.986.518H1.583z" fill="#212121"/><path d="M21.854 23.146h-5.196v2.562h5.196v-2.562zM35.403 23.146h-5.195v2.562h5.195v-2.562zM8.305 23.146H3.109v2.562h5.196v-2.562zM48.96 23.146h-5.196v2.562h5.196v-2.562zM62.51 23.146h-5.197v2.562h5.196v-2.562zM76.058 23.146h-5.195v2.562h5.195v-2.562zM89.615 23.146h-5.196v2.562h5.196v-2.562zM103.164 23.146H97.97v2.562h5.195v-2.562z" fill="#F58A68"/><path d="M5.119 35.157H4.74v-2.88H3.067v2.88h-.378v-3.211h2.43v3.211zM7.92 35.157H6.105v-3.212h1.813v.332H6.484v1.036h1.351v.332H6.484v1.18h1.435v.332zM10.797 32.885c0 .324-.112.573-.336.753-.224.172-.546.262-.966.262H9.11v1.257h-.378v-3.212h.847c.812 0 1.218.311 1.218.94zm-1.687.69h.343c.336 0 .581-.055.728-.158.147-.11.224-.277.224-.512 0-.214-.07-.372-.21-.476-.14-.104-.364-.159-.658-.159h-.42v1.305H9.11zM15.384 35.157h-3.816v-3.212h.378v2.874h1.337v-2.874h.378v2.874H15v-2.874h.385v3.212zM18.423 35.157l-.406-1.022h-1.303l-.399 1.022h-.385l1.289-3.225h.322l1.281 3.225h-.399zm-.525-1.353l-.378-.995c-.05-.124-.098-.283-.154-.463a4.135 4.135 0 0 1-.14.463l-.386.995h1.058zM22.743 34.225c0 .317-.098.552-.287.704-.189.152-.483.228-.868.228h-.952v-3.212h1.918v.332h-1.54v1.043h.504c.287 0 .518.034.7.097a.734.734 0 0 1 .4.29c.083.124.125.297.125.518zm-1.736.614h.532c.28 0 .49-.048.616-.145.126-.096.196-.255.196-.47 0-.206-.063-.358-.196-.441-.133-.09-.357-.132-.686-.132h-.462v1.188zM25.838 35.157h-.378v-2.88h-1.057l-.07.525a21.015 21.015 0 0 1-.238 1.54c-.07.325-.161.553-.273.677a.58.58 0 0 1-.449.187.768.768 0 0 1-.294-.055v-.318a.519.519 0 0 0 .252.055.27.27 0 0 0 .203-.097.82.82 0 0 0 .154-.331 9.89 9.89 0 0 0 .176-.898c.07-.442.147-.98.23-1.63h1.751v3.225h-.007zM28.87 35.157l-.406-1.022H27.16l-.399 1.022h-.385l1.289-3.225h.322l1.281 3.225h-.399zm-.525-1.353l-.378-.995c-.05-.124-.098-.283-.154-.463a4.135 4.135 0 0 1-.14.463l-.386.995h1.058zM31.615 31.945v.339h-1.436v2.873h-.378v-3.212h1.814zM35.095 33.548c0 .511-.133.919-.392 1.216-.266.297-.63.442-1.1.442-.483 0-.847-.145-1.113-.436-.259-.29-.392-.697-.392-1.222s.133-.926.392-1.216c.26-.29.63-.435 1.114-.435.469 0 .833.145 1.099.442.259.29.392.69.392 1.209zm-2.598 0c0 .435.091.767.28.988.19.228.462.338.82.338.364 0 .63-.11.819-.338.182-.221.273-.553.273-.995 0-.435-.091-.76-.273-.98-.182-.222-.455-.34-.812-.34-.365 0-.638.111-.827.34-.182.234-.28.559-.28.987zM38.484 36h-.364v-.843H35.86v.836h-.365v-1.174h.252c.232-.38.428-.843.589-1.382a6.372 6.372 0 0 0 .273-1.492h1.463v2.874h.413v1.18zm-.79-1.181v-2.542h-.743c-.028.352-.12.78-.273 1.278-.154.497-.33.918-.532 1.257h1.547v.007zM39.122 35.157v-3.212h.378v3.212h-.378zM40.487 31.946h.357v1.789c0 .331-.007.628-.028.897h.021l1.828-2.68h.413v3.205h-.364V33.39c0-.297.014-.6.035-.925h-.021L40.9 35.157h-.413v-3.211zm1.352-.256c-.274 0-.477-.055-.603-.159-.126-.103-.196-.276-.21-.518h.35c.014.152.056.256.12.318.07.062.181.09.35.09.154 0 .266-.035.343-.097.077-.062.119-.166.133-.31h.35c-.021.234-.091.4-.224.51-.133.11-.336.166-.61.166zM46.53 35.157h-.378v-1.512h-1.716v1.512h-.378v-3.212h.378v1.368h1.716v-1.368h.378v3.212zM49.562 35.157l-.407-1.022h-1.302l-.4 1.022h-.384l1.288-3.225h.322l1.282 3.225h-.4zm-.526-1.353l-.378-.995c-.049-.124-.098-.283-.154-.463a4.135 4.135 0 0 1-.14.463l-.385.995h1.057zM52.769 35.157h-.378v-2.88h-1.03v-.332h2.444v.332h-1.029v2.88h-.007zM57.215 33.548c0 .511-.133.919-.392 1.216-.266.297-.63.442-1.1.442-.482 0-.846-.145-1.113-.436-.259-.29-.392-.697-.392-1.222s.133-.926.392-1.216c.26-.29.63-.435 1.114-.435.469 0 .833.145 1.1.442.258.29.391.69.391 1.209zm-2.598 0c0 .435.091.767.28.988.19.228.463.338.82.338.364 0 .637-.11.819-.338.182-.221.273-.553.273-.995 0-.435-.09-.76-.273-.98-.182-.222-.455-.34-.812-.34-.364 0-.637.111-.826.34-.19.234-.28.559-.28.987zM60.093 32.885c0 .324-.112.573-.336.753-.224.172-.546.262-.966.262h-.386v1.257h-.378v-3.212h.848c.812 0 1.218.311 1.218.94zm-1.68.69h.343c.336 0 .58-.055.728-.158.147-.11.224-.277.224-.512 0-.214-.07-.372-.21-.476-.14-.104-.364-.159-.658-.159h-.42v1.305h-.008zM62.684 31.945v.339h-1.435v2.873h-.379v-3.212h1.814zM66.164 33.548c0 .511-.133.919-.392 1.216-.266.297-.63.442-1.1.442-.482 0-.847-.145-1.113-.436-.259-.29-.392-.697-.392-1.222s.133-.926.392-1.216c.26-.29.63-.435 1.114-.435.469 0 .833.145 1.099.442.26.29.392.69.392 1.209zm-2.598 0c0 .435.091.767.28.988.19.228.463.338.82.338.364 0 .63-.11.819-.338.182-.221.273-.553.273-.995 0-.435-.091-.76-.273-.98-.182-.222-.455-.34-.812-.34-.364 0-.638.111-.827.34-.189.234-.28.559-.28.987zM66.977 31.945h.917c.434 0 .742.063.938.194.196.131.287.331.287.608a.696.696 0 0 1-.16.47.765.765 0 0 1-.47.241v.02c.497.084.742.34.742.767 0 .29-.098.512-.294.67-.196.16-.469.242-.826.242h-1.134v-3.212zm.385 1.375h.623c.266 0 .462-.042.574-.124.12-.083.175-.221.175-.422 0-.18-.063-.31-.196-.393-.133-.083-.336-.118-.623-.118h-.56v1.057h.007zm0 .318v1.201h.679c.266 0 .462-.048.595-.151.133-.104.196-.256.196-.47 0-.2-.07-.346-.203-.442-.133-.097-.343-.138-.623-.138h-.644zM72.074 35.157l-.406-1.022h-1.303l-.399 1.022h-.385l1.289-3.225h.322l1.281 3.225h-.4zm-.518-1.353l-.378-.995c-.05-.124-.098-.283-.154-.463a4.135 4.135 0 0 1-.14.463l-.386.995h1.058zM76.716 35.157h-.378v-2.88h-1.673v2.88h-.378v-3.212h2.43v3.212zM80.022 35.157h-.379v-2.88h-1.057l-.07.525a21.009 21.009 0 0 1-.238 1.54c-.07.325-.161.553-.273.677a.58.58 0 0 1-.448.187.768.768 0 0 1-.294-.055v-.318a.519.519 0 0 0 .252.055.27.27 0 0 0 .203-.097.82.82 0 0 0 .154-.331c.049-.159.105-.456.175-.898.07-.442.147-.98.231-1.63h1.75v3.225h-.006zM83.054 35.157l-.407-1.022h-1.302l-.4 1.022h-.384l1.288-3.225h.322l1.282 3.225h-.4zm-.526-1.353l-.378-.995c-.049-.124-.098-.283-.154-.463a4.135 4.135 0 0 1-.14.463l-.385.995h1.057zM84.986 35.157h-.378v-2.88h-1.03v-.332h2.445v.332h-1.03v2.88h-.007zM87.787 31.897h.385v.394h.154c.252 0 .476.048.658.152.19.096.33.242.428.421.098.18.147.387.147.622 0 .241-.056.463-.168.649-.112.193-.26.332-.456.428a1.49 1.49 0 0 1-.679.145h-.09v.498h-.386v-.498h-.098c-.26 0-.49-.048-.68-.145a1.065 1.065 0 0 1-.447-.428 1.236 1.236 0 0 1-.161-.642c0-.235.049-.435.147-.622.098-.18.245-.325.434-.428a1.35 1.35 0 0 1 .665-.152h.147v-.394zm0 .718h-.126c-.273 0-.483.076-.637.235-.154.16-.231.366-.231.636 0 .29.084.51.245.67.168.159.399.241.7.241h.056v-1.782h-.007zm.378 1.782h.056c.301 0 .532-.082.693-.241.168-.16.245-.387.245-.67 0-.27-.077-.484-.23-.636-.155-.152-.365-.228-.645-.228h-.126v1.775h.007zM93.165 33.548c0 .511-.133.919-.392 1.216-.267.297-.63.442-1.1.442-.483 0-.847-.145-1.113-.436-.26-.29-.392-.697-.392-1.222s.133-.926.392-1.216c.259-.29.63-.435 1.113-.435.47 0 .833.145 1.1.442.259.29.392.69.392 1.209zm-2.598 0c0 .435.09.767.28.988.189.228.462.338.82.338.363 0 .63-.11.818-.338.183-.221.274-.553.274-.995 0-.435-.092-.76-.274-.98-.182-.222-.455-.34-.812-.34-.364 0-.637.111-.826.34-.19.234-.28.559-.28.987zM96.05 32.885c0 .324-.112.573-.336.753-.224.172-.547.262-.967.262h-.385v1.257h-.378v-3.212h.847c.806 0 1.219.311 1.219.94zm-1.688.69h.343c.336 0 .582-.055.729-.158.147-.11.224-.277.224-.512 0-.214-.07-.372-.21-.476-.14-.104-.365-.159-.659-.159h-.42v1.305h-.007zM98.262 35.157l-1.106-2.846h-.02c.02.228.027.498.027.802v2.044h-.35v-3.212h.567l1.03 2.653h.02l1.044-2.653h.567v3.212h-.378v-2.072c0-.235.014-.497.028-.774h-.021l-1.113 2.846h-.295zM103.08 35.157l-.406-1.022h-1.303l-.399 1.022h-.385l1.288-3.225h.323l1.28 3.225h-.398zm-.525-1.353l-.378-.995c-.05-.124-.099-.283-.155-.463a4.135 4.135 0 0 1-.14.463l-.385.995h1.058z" fill="#000"/></svg>