<svg width="106" height="20" fill="none" xmlns="http://www.w3.org/2000/svg"><path d="M42.525 4.304c-1.824 0-3.908.81-5.211 2.43V4.557h-4.378v15.19h4.378v-8.658c0-1.57 1.25-3.19 3.596-3.19 1.824 0 3.7 1.215 3.7 3.19v8.658h4.377v-9.418c0-3.494-2.657-6.025-6.462-6.025zM79.995 4.557l-3.909 10.38-3.96-10.38h-5.003l6.566 15.19h4.743l6.566-15.19h-5.003zM19.908 9.114c.73-.962 1.928-1.52 3.335-1.52 1.563 0 2.762.862 3.387 2.127l-7.608 3.038c-.209-1.519.208-2.734.886-3.645zm8.39 5.975c-1.824 1.316-2.866 1.62-4.586 1.62-1.511 0-2.71-.456-3.544-1.215l11.153-4.456c-.26-1.671-.886-3.14-1.928-4.253-1.46-1.62-3.648-2.481-6.306-2.481-4.795 0-8.443 3.392-8.443 7.848 0 4.608 3.648 7.848 8.912 7.848 2.97 0 5.993-1.316 7.4-2.886l-2.658-2.025zM14.331 15.899H4.43V0H0v19.747h14.331v-3.848zM92.815 7.899c-2.45 0-4.221 1.772-4.221 4.303 0 2.38 1.876 4.304 4.273 4.304 2.45 0 4.221-1.822 4.221-4.304 0-2.43-1.824-4.303-4.273-4.303zm0 12.101c-4.794 0-8.547-3.392-8.547-7.848 0-4.405 3.753-7.848 8.6-7.848 4.794 0 8.494 3.392 8.494 7.848.052 4.405-3.7 7.848-8.547 7.848zM59.202 7.899c-2.45 0-4.222 1.772-4.222 4.303 0 2.38 1.876 4.304 4.274 4.304 2.449 0 4.22-1.822 4.22-4.304 0-2.43-1.875-4.303-4.272-4.303zm0 12.101c-4.795 0-8.547-3.392-8.547-7.848 0-4.405 3.752-7.848 8.599-7.848 4.794 0 8.546 3.392 8.546 7.848 0 4.405-3.752 7.848-8.599 7.848zM103.707 17.57h.469l.678 1.063.677-1.063H106v2.177h-.417v-1.52l-.677 1.064h-.052l-.73-1.063v1.519h-.417V17.57zm-1.616.405h-.677v-.405h1.824v.405h-.677v1.772h-.417v-1.772h-.053z" fill="#000"/></svg>