<svg width="106" height="49" fill="none" xmlns="http://www.w3.org/2000/svg"><path d="M52.372 0c-4.394 0-7.936 3.475-7.936 7.785 0 3.607 2.466 6.598 5.874 7.522v-1.671c-2.466-.836-4.26-3.167-4.26-5.895 0-3.43 2.825-6.201 6.322-6.201 3.498 0 6.367 2.815 6.367 6.245 0 2.728-1.793 5.059-4.304 5.895v1.627c3.408-.88 5.919-3.915 5.919-7.522C60.309 3.475 56.767 0 52.372 0z" fill="#6FA088"/><path d="M56.9 6.334a.247.247 0 0 0-.223-.132h-1.345c-.09 0-.18.088-.225.132l-2.645 3.65-.045.089-.045-.088-2.645-3.651a.247.247 0 0 0-.225-.132h-1.3c-.09 0-.18.044-.224.132a.276.276 0 0 0 0 .264l.045.088 3.542 4.97v5.586c0 .132.135.264.27.264H53c.134 0 .269-.132.269-.264v-5.63l3.677-5.014c0-.088 0-.176-.045-.264zM5.919 25.908c1.57 0 2.87.571 3.99 1.495.135.132.135.308 0 .44l-.762.748c-.134.132-.269.132-.448 0-.762-.66-1.794-1.1-2.78-1.1-2.332 0-4.125 1.935-4.125 4.179 0 2.243 1.793 4.178 4.125 4.178 1.345 0 2.287-.484 2.466-.528v-1.803H6.77a.304.304 0 0 1-.314-.308v-.924c0-.176.134-.307.314-.307h3.004c.18 0 .314.131.314.307V36.2c0 .088-.045.22-.135.264 0 0-1.704 1.056-4.08 1.056C2.646 37.564 0 34.969 0 31.758c0-3.211 2.646-5.85 5.919-5.85zM16.411 26.391c0-.176.135-.308.314-.308h1.076c.18 0 .314.132.314.308v9.501h4.44c.178 0 .313.132.313.308v.88a.304.304 0 0 1-.314.308h-5.829a.304.304 0 0 1-.314-.308V26.39zM32.419 25.908c3.273 0 5.919 2.595 5.919 5.806 0 3.21-2.646 5.806-5.92 5.806-3.272 0-5.918-2.551-5.918-5.806 0-3.167 2.6-5.806 5.919-5.806zm0 10.028c2.331 0 4.26-1.891 4.26-4.178 0-2.288-1.929-4.223-4.26-4.223-2.332 0-4.26 1.935-4.26 4.223 0 2.287 1.883 4.178 4.26 4.178zM43.09 35.76c.135-.22.27-.44.45-.66.134-.22.358-.263.537-.131.09.088 1.345 1.1 2.646 1.1 1.12 0 1.838-.66 1.838-1.496 0-.968-.852-1.584-2.466-2.244-1.66-.703-3.004-1.54-3.004-3.43 0-1.276.986-2.991 3.587-2.991 1.659 0 2.87.835 3.049.967.134.088.269.308.09.528-.135.176-.27.44-.404.616-.134.22-.359.308-.583.176-.134-.044-1.255-.792-2.242-.792-1.39 0-1.838.836-1.838 1.452 0 .923.717 1.495 2.107 2.023 1.928.748 3.543 1.627 3.543 3.607 0 1.671-1.525 3.035-3.677 3.035-2.018 0-3.274-1.012-3.543-1.276-.134-.088-.224-.22-.09-.484zM55.6 35.76c.135-.22.27-.44.449-.66.134-.22.359-.263.538-.131.09.088 1.345 1.1 2.645 1.1 1.121 0 1.839-.66 1.839-1.496 0-.968-.852-1.584-2.466-2.244-1.66-.703-3.005-1.54-3.005-3.43 0-1.276.987-2.991 3.588-2.991 1.659 0 2.87.835 3.049.967.134.088.269.308.09.528-.135.176-.27.44-.404.616-.135.22-.359.308-.583.176-.135-.044-1.256-.792-2.242-.792-1.39 0-1.839.836-1.839 1.452 0 .923.718 1.495 2.108 2.023 1.928.748 3.542 1.627 3.542 3.607 0 1.671-1.524 3.035-3.677 3.035-2.017 0-3.273-1.012-3.542-1.276-.134-.088-.224-.22-.09-.484zM67.214 36.948l5.067-10.865c.045-.088.18-.175.269-.175h.18c.09 0 .224.087.268.175l5.022 10.865c.09.22-.044.44-.269.44h-1.076c-.18 0-.314-.088-.358-.22l-1.032-2.2h-5.38c-.314.748-.673 1.452-.987 2.2-.045.132-.18.22-.359.22h-1.031c-.269 0-.404-.22-.314-.44zm7.443-3.387l-2.017-4.443h-.09l-2.018 4.443h4.125zM83.266 26.391c0-.176.135-.308.314-.308h4.484c1.973 0 3.587 1.54 3.587 3.475 0 1.496-.986 2.727-2.421 3.255l2.242 4.091c.135.22 0 .484-.27.484h-1.3c-.134 0-.224-.088-.268-.132l-2.198-4.267H84.97v4.135a.304.304 0 0 1-.314.308H83.58a.304.304 0 0 1-.314-.308V26.39zm4.664 5.19c1.076 0 2.017-.879 2.017-1.979 0-1.055-.941-1.935-2.017-1.935h-2.915v3.915h2.915zM104.655 26.215a.247.247 0 0 0-.225-.132h-1.345c-.09 0-.18.088-.224.132l-2.645 3.651-.045.088-.045-.088-2.646-3.65a.247.247 0 0 0-.224-.133h-1.3c-.09 0-.18.044-.224.132a.276.276 0 0 0 0 .264l.044.088 3.543 4.97v5.587c0 .132.134.264.269.264h1.166c.134 0 .269-.132.269-.264v-5.63l3.676-5.015c0-.088 0-.176-.044-.264zM2.062 44.953c1.121 0 2.063.88 2.063 2.024 0 1.1-.897 1.98-2.063 1.98-1.12 0-2.018-.88-2.018-1.98a2 2 0 0 1 2.018-2.024zm0 3.3c.718 0 1.3-.572 1.3-1.276a1.29 1.29 0 0 0-1.3-1.276c-.717 0-1.3.572-1.3 1.276a1.29 1.29 0 0 0 1.3 1.275zM8.16 45.13c0-.045.046-.089.09-.089h1.615c.672 0 1.255.528 1.255 1.188 0 .528-.358.924-.852 1.144l.763 1.407c.044.088 0 .176-.09.176h-.583c-.045 0-.09-.044-.09-.044l-.762-1.495h-.628v1.407c0 .044-.045.088-.09.088h-.537c-.045 0-.09-.044-.09-.088V45.13zm1.66 1.67a.588.588 0 0 0 .583-.571c0-.308-.27-.528-.583-.528h-.942v1.1h.942zM16.95 44.953c.492 0 .986.176 1.39.528a.132.132 0 0 1 0 .176l-.36.352c-.044.044-.09.044-.134 0-.224-.22-.538-.308-.852-.308-.717 0-1.255.616-1.255 1.276 0 .704.582 1.275 1.255 1.275.314 0 .583-.088.673-.132v-.483h-.449c-.045 0-.09-.044-.09-.088v-.44c0-.044.045-.088.09-.088h1.076c.045 0 .09.044.09.088v1.407c0 .044-.045.088-.045.088s-.583.352-1.39.352c-1.12 0-2.018-.88-2.018-1.98a2 2 0 0 1 2.018-2.023zM22.016 48.736l1.75-3.739c0-.044.044-.044.089-.044h.045c.044 0 .09.044.09.044l1.748 3.74c.045.087 0 .131-.09.131h-.493c-.09 0-.134-.044-.18-.132l-.268-.616h-1.704l-.27.616c-.044.044-.089.132-.179.132h-.493c-.045.044-.09-.044-.045-.132zm2.467-1.143L23.9 46.36l-.538 1.232h1.12zM29.594 45.041c0-.044.045-.088.09-.088h.134l2.377 2.464v-2.288c0-.044.045-.088.09-.088h.537c.045 0 .09.044.09.088v3.74c0 .043-.045.087-.09.087h-.134l-2.377-2.551v2.375c0 .044-.044.088-.09.088h-.537c-.045 0-.09-.044-.09-.088v-3.739zM37.037 45.13c0-.045.045-.089.09-.089h.538c.045 0 .09.044.09.088v3.695c0 .044-.045.088-.09.088h-.538c-.045 0-.09-.044-.09-.088V45.13zM43.405 44.953c.583 0 .986.176 1.39.528a.132.132 0 0 1 0 .176l-.36.352c-.044.044-.089.044-.134 0-.224-.22-.538-.308-.852-.308-.717 0-1.255.616-1.255 1.276 0 .704.538 1.275 1.255 1.275.36 0 .628-.132.852-.308.045-.044.09-.044.135 0l.359.352c.044.044.044.132 0 .132a2.027 2.027 0 0 1-1.39.528c-1.121 0-2.063-.88-2.063-1.98 0-1.143.897-2.023 2.063-2.023zM53.359 45.13c0-.045.044-.089.09-.089h1.344c.718 0 1.256.572 1.256 1.232 0 .704-.583 1.232-1.256 1.232h-.717v1.32c0 .043-.045.087-.09.087h-.538c-.045 0-.09-.044-.09-.088V45.13zm1.39 1.67a.588.588 0 0 0 .583-.571c0-.308-.27-.528-.583-.528h-.673v1.1h.673zM59.995 45.13c0-.045.045-.089.09-.089h1.614c.672 0 1.255.528 1.255 1.188 0 .528-.358.924-.852 1.144l.763 1.407c.044.088 0 .176-.09.176h-.583c-.045 0-.09-.044-.09-.044l-.762-1.495h-.628v1.407c0 .044-.045.088-.09.088h-.537c-.045 0-.09-.044-.09-.088V45.13zm1.659 1.67a.588.588 0 0 0 .583-.571c0-.308-.27-.528-.583-.528h-.942v1.1h.942zM68.783 44.953c1.121 0 2.063.88 2.063 2.024 0 1.1-.897 1.98-2.063 1.98-1.12 0-2.017-.88-2.017-1.98a2 2 0 0 1 2.017-2.024zm0 3.3c.718 0 1.3-.572 1.3-1.276a1.29 1.29 0 0 0-1.3-1.276c-.717 0-1.3.572-1.3 1.276a1.29 1.29 0 0 0 1.3 1.275zM74.882 45.13c0-.045.044-.089.09-.089h1.344c1.077 0 1.973.88 1.973 1.936 0 1.1-.896 1.935-1.973 1.935h-1.345c-.045 0-.09-.044-.09-.088V45.13zm1.345 3.078c.717 0 1.255-.527 1.255-1.275 0-.704-.538-1.276-1.255-1.276h-.628v2.551h.628zM82.28 45.13c0-.045.045-.089.09-.089h.538c.044 0 .09.044.09.088v2.288c0 .483.313.835.806.835.494 0 .808-.352.808-.835v-2.288c0-.044.044-.088.09-.088h.537c.045 0 .09.044.09.088v2.332c0 .835-.673 1.54-1.57 1.54-.896 0-1.569-.705-1.569-1.54v-2.332h.09zM91.248 44.953c.583 0 .986.176 1.39.528a.132.132 0 0 1 0 .176l-.359.352c-.045.044-.09.044-.134 0-.225-.22-.538-.308-.852-.308-.718 0-1.256.616-1.256 1.276 0 .704.538 1.275 1.256 1.275.358 0 .627-.132.852-.308.045-.044.09-.044.134 0l.359.352c.045.044.045.132 0 .132a2.027 2.027 0 0 1-1.39.528c-1.121 0-2.063-.88-2.063-1.98 0-1.143.897-2.023 2.063-2.023zM96.853 45.657h-.897c-.045 0-.09-.044-.09-.088v-.44c0-.044.045-.088.09-.088h2.466c.045 0 .09.044.09.088v.44c0 .044-.045.088-.09.088h-.852v3.123c0 .044-.045.088-.09.088h-.538c-.044 0-.09-.044-.09-.088v-3.123zM102.188 48.34l.224-.352c.045-.088.135-.088.18-.044.044 0 .493.352.851.352.314 0 .538-.176.538-.44 0-.263-.224-.483-.717-.66-.538-.22-1.076-.527-1.076-1.187 0-.484.359-1.056 1.255-1.056.583 0 1.032.308 1.121.352.045.044.09.132.045.176l-.224.308c-.045.088-.134.132-.18.088-.044-.044-.493-.308-.806-.308-.314 0-.494.22-.494.396 0 .264.225.44.673.616.538.22 1.166.528 1.166 1.275 0 .572-.493 1.1-1.3 1.1-.718 0-1.122-.308-1.256-.44 0-.044-.045-.088 0-.176zM103.533 36.112h-.448v-.176h1.166v.176h-.493v1.364h-.225v-1.364zM105.776 36.772c0-.22-.045-.484-.045-.66-.045.176-.134.352-.179.572l-.27.748h-.134l-.269-.704c-.09-.22-.134-.396-.179-.572 0 .176 0 .44-.045.66l-.045.66h-.179l.09-1.54h.269l.269.748c.045.176.134.352.134.528.045-.132.09-.308.18-.528l.269-.748h.269l.09 1.54h-.18l-.045-.704z" fill="#443635"/></svg>