<svg width="109" height="51" fill="none" xmlns="http://www.w3.org/2000/svg"><path d="M5.088 41.885v3.358l2.833-3.358h1.206l-2.465 2.878 2.57 4.158H8.078l-2.15-3.518-.892 1.013v2.505h-.892v-2.505l-.892-1.013-2.15 3.518H0l2.57-4.158-2.465-2.878H1.31l2.833 3.358v-3.358h.944zM11.12 47.642l2.466-3.838h.891v5.117h-.839v-3.838l-2.465 3.838h-.892v-5.117h.84v3.838zM15.946 43.804h2.308c1.102 0 1.626.586 1.626 1.332 0 .587-.42.96-.839 1.12.525.106 1.154.48 1.154 1.332 0 .8-.63 1.333-1.836 1.333H16v-5.117h-.053zm.84 2.132h1.206c.734 0 .997-.213.997-.8 0-.426-.263-.64-.997-.64h-1.207v1.44zm0 2.239h1.52c.683 0 .997-.213.997-.8 0-.533-.42-.8-1.101-.8h-1.417v1.6zM22.188 47.642l2.466-3.838h.891v5.117h-.839v-3.838l-2.465 3.838h-.892v-5.117h.84v3.838zM29.951 42.844v-.959h.84v.96h-.84zm.84 6.077h-.84v-5.117h.84v5.117zM32.05 45.243c.052-.64.577-1.599 1.993-1.599 1.154 0 1.888.64 1.888 1.44 0 .692-.472 1.012-.892 1.119.473.16 1.05.48 1.05 1.332 0 .96-.892 1.493-1.994 1.493-1.678 0-2.098-.853-2.203-1.76h.84c.052.694.42 1.014 1.31 1.014.63 0 1.155-.267 1.155-.853 0-.587-.472-.853-1.102-.853h-.524v-.693h.524c.735 0 .944-.267.944-.8 0-.586-.577-.746-1.049-.746-.734 0-1.049.266-1.154.853h-.786v.053zM43.38 45.51c-.105-.693-.472-1.12-1.207-1.12-1.049 0-1.364 1.013-1.364 1.92 0 .905.21 1.972 1.364 1.972.577 0 1.05-.427 1.207-1.226h.839c-.105.8-.577 1.972-2.046 1.972-1.416 0-2.255-1.066-2.255-2.559 0-1.599.734-2.825 2.413-2.825 1.311 0 1.836.96 1.888 1.866h-.84zM46.107 47.642l2.466-3.838h.891v5.117h-.839v-3.838l-2.465 3.838h-.892v-5.117h.84v3.838zM55.13 43.804v5.117h-.84v-4.424h-1.993v2.345c0 1.546-.525 2.132-1.312 2.132-.21 0-.42-.053-.524-.053v-.693h.367c.472 0 .682-.213.682-1.706v-2.771h3.62v.053zM58.644 43.644c1.626 0 2.308 1.386 2.308 2.719 0 1.332-.734 2.718-2.308 2.718-1.574 0-2.308-1.386-2.308-2.718 0-1.333.734-2.719 2.308-2.719zm0 4.69c1.206 0 1.469-1.278 1.469-1.971 0-.693-.263-1.973-1.47-1.973-1.206 0-1.468 1.28-1.468 1.973.053.693.262 1.972 1.469 1.972zM63.05 45.83h.997c.157-1.173.787-2.186 2.203-2.186 1.626 0 2.255 1.386 2.255 2.719 0 1.332-.629 2.718-2.255 2.718-1.521 0-2.15-1.226-2.203-2.452h-.997v2.346h-.84v-5.118h.84v1.973zm3.2 2.452c1.206 0 1.364-1.28 1.364-1.973 0-.693-.21-1.972-1.364-1.972-1.207 0-1.364 1.28-1.364 1.972 0 .747.157 1.973 1.364 1.973zM72.597 43.804h2.308c1.101 0 1.626.586 1.626 1.332 0 .587-.42.96-.84 1.12.525.106 1.154.48 1.154 1.332 0 .8-.629 1.333-1.835 1.333h-2.36v-5.117h-.053zm.839 2.132h1.206c.735 0 .997-.213.997-.8 0-.426-.262-.64-.997-.64h-1.206v1.44zm0 2.239h1.521c.682 0 .997-.213.997-.8 0-.533-.42-.8-1.102-.8h-1.416v1.6zM78.472 43.804l1.364 4.158 1.363-4.158h.945c-.577 1.652-1.522 4.424-2.204 6.023-.367.906-.576 1.173-1.573 1.173-.105 0-.21-.053-.367-.053v-.8c.105.053.262.107.524.107.42 0 .472-.107.892-1.173l-1.888-5.277h.944zM87.231 43.804v5.117h-.839v-4.424H84.4v2.345c0 1.546-.525 2.132-1.311 2.132-.21 0-.42-.053-.525-.053v-.693h.367c.472 0 .63-.213.63-1.706v-2.771h3.671v.053zM89.54 46.043l2.15-2.24h1.05l-1.942 1.92 2.046 3.198h-.997l-1.626-2.612-.734.693v1.92h-.84v-5.118h.84v2.239h.052zM93.736 45.35c0-1.226.839-1.706 2.098-1.706.42 0 1.888.107 1.888 1.44v2.931c0 .213.105.32.263.32.052 0 .157 0 .262-.053v.64c-.158.053-.262.106-.472.106-.735 0-.84-.373-.892-.8-.315.373-.84.853-1.836.853-.944 0-1.574-.586-1.574-1.492 0-.587.158-1.493 1.941-1.653 1.312-.106 1.417-.213 1.417-.746 0-.587-.368-.8-1.154-.8-.945 0-1.102.587-1.154 1.013h-.787v-.053zm3.095.96c-.158.106-.368.16-1.364.32-.42.052-1.102.159-1.102.799 0 .586.315.906.944.906.787 0 1.574-.533 1.574-1.226v-.8h-.052zM100.188 45.83h2.36v-2.08h.84v5.118h-.84v-2.346h-2.36v2.346h-.84V43.75h.84v2.078zM105.328 43.804l1.364 4.158 1.364-4.158H109c-.577 1.652-1.521 4.424-2.203 6.023-.367.906-.577 1.173-1.574 1.173-.105 0-.21-.053-.367-.053v-.8c.105.053.262.107.525.107.42 0 .472-.107.891-1.173l-1.888-5.277h.944z" fill="#007A70"/><path d="M55.234 10.009h-1.259v.266h1.26v-.266z" fill="#AA7F4D"/><path d="M54.028 10.115h1.154v.16h-1.154v-.16zm-.053-.16l-.052.054v.266l.052.053h1.26l.052-.053v-.266l-.053-.054h-1.259z" fill="#AA7F4D"/><path d="M55.234 10.009h-1.259v.266h1.26v-.266zM49.202 6.01V1.108h-.63c-.052.106-.157.213-.262.32-.105.106-.314.213-.524.266-.21.053-.472.16-.735.16l.105.533c.158 0 .315-.053.472-.053.158-.054.315-.054.42-.107.105-.053.21-.107.315-.107v3.892h.84zm4.564-1.172c0-.16-.053-.373-.105-.533a.828.828 0 0 0-.315-.427c-.157-.16-.315-.266-.577-.426a1.848 1.848 0 0 0 .734-.746c.053-.16.105-.267.105-.48 0-.16-.052-.32-.105-.48-.052-.16-.157-.266-.314-.373-.105-.106-.263-.16-.472-.266A1.859 1.859 0 0 0 52.14 1c-.21 0-.368.053-.577.107-.158.053-.315.16-.473.266-.104.107-.21.213-.314.373-.053.16-.105.32-.105.48 0 .16.052.32.105.48.052.16.157.266.262.373.105.107.315.266.472.373-.21.16-.42.267-.577.426-.157.16-.262.267-.315.427-.052.16-.105.32-.105.533 0 .213.053.373.105.533.105.16.21.267.315.373.157.107.315.213.472.267.21.053.367.106.577.106.21 0 .42-.053.63-.106.21-.054.367-.16.472-.267a.995.995 0 0 0 .314-.373c.315-.213.368-.373.368-.533zm-.84-2.612c0 .107 0 .213-.052.32-.053.106-.105.213-.21.266a2.914 2.914 0 0 1-.42.32c-.157-.106-.262-.16-.314-.213-.105-.053-.158-.16-.21-.213a.407.407 0 0 1-.105-.213c0-.054-.052-.16-.052-.267a.78.78 0 0 1 .104-.373c.053-.107.158-.16.263-.267.052 0 .157-.053.314-.053a.75.75 0 0 1 .368.107c.105.053.21.16.262.266 0 .107.052.213.052.32zm.053 2.612a.78.78 0 0 1-.105.373.637.637 0 0 1-.262.267.976.976 0 0 1-.42.106c-.157 0-.262-.053-.42-.106a.637.637 0 0 1-.262-.267c-.052-.16-.105-.266-.105-.426 0-.107 0-.214.053-.267 0-.106.052-.16.105-.266.052-.107.157-.16.262-.267.105-.107.262-.16.42-.266.157.106.314.16.42.266.104.107.209.16.261.267.053.106.105.16.105.266-.052.107-.052.213-.052.32zm4.563-1.866a3.19 3.19 0 0 0-.105-.746 1.985 1.985 0 0 0-.262-.586c-.105-.16-.262-.32-.472-.373-.21-.107-.42-.16-.682-.16-.262 0-.472.053-.63.106a1.83 1.83 0 0 0-.471.32l-.315.48c-.053.16-.105.373-.105.586 0 .267.052.48.105.693.105.213.21.32.367.48.157.106.315.213.525.266.21.054.367.107.577.107.105 0 .21 0 .314-.053.105 0 .158-.054.263-.054-.105.214-.21.427-.368.64-.157.16-.262.32-.42.426-.157.107-.314.214-.471.267-.158.053-.315.107-.42.16l.21.586c.105 0 .21-.053.367-.106.105-.054.262-.107.42-.214.157-.106.314-.16.472-.32a1.61 1.61 0 0 0 .42-.426c.157-.16.262-.373.367-.533.104-.213.21-.426.262-.693.052-.266.052-.586.052-.853zm-.786-.053v.32c0 .106 0 .213-.053.32-.052 0-.105.053-.21.053s-.21.053-.314.053c-.315 0-.525-.106-.682-.266-.158-.16-.21-.427-.21-.747 0-.106 0-.266.052-.373 0-.106.053-.213.105-.32a.413.413 0 0 1 .21-.213c.105-.053.21-.106.315-.106a.75.75 0 0 1 .367.106c.105.054.157.16.262.267.053.106.105.266.158.426v.48zm4.615.64c0-.16 0-.373-.052-.587 0-.213-.052-.373-.105-.586-.052-.213-.105-.373-.157-.533-.105-.16-.158-.32-.263-.427a2.911 2.911 0 0 0-.42-.32C60.218 1.054 60.06 1 59.85 1c-.21 0-.367.053-.524.107a.817.817 0 0 0-.42.32c-.105.16-.21.266-.262.426-.053.16-.157.32-.157.533-.053.213-.053.373-.105.586 0 .214-.053.373-.053.587 0 .16 0 .373.053.586 0 .213.052.373.105.586.052.214.104.373.157.533.052.16.157.32.262.427.105.106.262.213.42.32.157.053.315.106.524.106.21 0 .368-.053.525-.106a.817.817 0 0 0 .42-.32c.104-.107.21-.267.262-.427.052-.16.157-.32.157-.533.053-.213.053-.373.105-.586.053-.213.053-.373.053-.586zm-.786 0v.533c0 .16-.053.373-.053.533-.052.16-.052.32-.105.426a1.116 1.116 0 0 1-.21.32c-.104.053-.21.107-.314.107-.105 0-.21-.054-.315-.107-.105-.053-.157-.16-.21-.32a1.016 1.016 0 0 1-.105-.426c-.052-.16-.052-.32-.052-.533v-.533-.533c0-.16.052-.374.052-.533.053-.16.053-.32.105-.427.053-.107.105-.213.21-.32.105-.053.21-.106.315-.106.105 0 .21.053.315.106.104.054.157.16.21.32.052.16.104.267.104.427.053.16.053.32.053.533v.533z" fill="#AA7F4D"/><path d="M49.202 6.01V1.108h-.63c-.052.106-.157.213-.262.32-.105.106-.314.213-.524.266-.21.053-.472.16-.735.16l.105.533c.158 0 .315-.053.472-.053.158-.054.315-.054.42-.107.105-.053.21-.107.315-.107v3.892h.84zm4.564-1.172c0-.16-.053-.373-.105-.533a.828.828 0 0 0-.315-.427c-.157-.16-.315-.266-.577-.426a1.848 1.848 0 0 0 .734-.746c.053-.16.105-.267.105-.48 0-.16-.052-.32-.105-.48-.052-.16-.157-.266-.314-.373-.105-.106-.263-.16-.472-.266A1.859 1.859 0 0 0 52.14 1c-.21 0-.368.053-.577.107-.158.053-.315.16-.473.266-.104.107-.21.213-.314.373-.053.16-.105.32-.105.48 0 .16.052.32.105.48.052.16.157.266.262.373.105.107.315.266.472.373-.21.16-.42.267-.577.426-.157.16-.262.267-.315.427-.052.16-.105.32-.105.533 0 .213.053.373.105.533.105.16.21.267.315.373.157.107.315.213.472.267.21.053.367.106.577.106.21 0 .42-.053.63-.106.21-.054.367-.16.472-.267a.995.995 0 0 0 .314-.373c.315-.213.368-.373.368-.533zm-.84-2.612c0 .107 0 .213-.052.32-.053.106-.105.213-.21.266a2.914 2.914 0 0 1-.42.32c-.157-.106-.262-.16-.314-.213-.105-.053-.158-.16-.21-.213a.407.407 0 0 1-.105-.213c0-.054-.052-.16-.052-.267a.78.78 0 0 1 .104-.373c.053-.107.158-.16.263-.267.052 0 .157-.053.314-.053a.75.75 0 0 1 .368.107c.105.053.21.16.262.266 0 .107.052.213.052.32zm.053 2.612a.78.78 0 0 1-.105.373.637.637 0 0 1-.262.267.976.976 0 0 1-.42.106c-.157 0-.262-.053-.42-.106a.637.637 0 0 1-.262-.267c-.052-.16-.105-.266-.105-.426 0-.107 0-.214.053-.267 0-.106.052-.16.105-.266.052-.107.157-.16.262-.267.105-.107.262-.16.42-.266.157.106.314.16.42.266.104.107.209.16.261.267.053.106.105.16.105.266-.052.107-.052.213-.052.32zm4.563-1.866a3.19 3.19 0 0 0-.105-.746 1.985 1.985 0 0 0-.262-.586c-.105-.16-.262-.32-.472-.373-.21-.107-.42-.16-.682-.16-.262 0-.472.053-.63.106a1.83 1.83 0 0 0-.471.32l-.315.48c-.053.16-.105.373-.105.586 0 .267.052.48.105.693.105.213.21.32.367.48.157.106.315.213.525.266.21.054.367.107.577.107.105 0 .21 0 .314-.053.105 0 .158-.054.263-.054-.105.214-.21.427-.368.64-.157.16-.262.32-.42.426-.157.107-.314.214-.471.267-.158.053-.315.107-.42.16l.21.586c.105 0 .21-.053.367-.106.105-.054.262-.107.42-.214.157-.106.314-.16.472-.32a1.61 1.61 0 0 0 .42-.426c.157-.16.262-.373.367-.533.104-.213.21-.426.262-.693.052-.266.052-.586.052-.853zm-.786-.053v.32c0 .106 0 .213-.053.32-.052 0-.105.053-.21.053s-.21.053-.314.053c-.315 0-.525-.106-.682-.266-.158-.16-.21-.427-.21-.747 0-.106 0-.266.052-.373 0-.106.053-.213.105-.32a.413.413 0 0 1 .21-.213c.105-.053.21-.106.315-.106a.75.75 0 0 1 .367.106c.105.054.157.16.262.267.053.106.105.266.158.426v.48zm4.615.64c0-.16 0-.373-.052-.587 0-.213-.052-.373-.105-.586-.052-.213-.105-.373-.157-.533-.105-.16-.158-.32-.263-.427a2.911 2.911 0 0 0-.42-.32C60.218 1.054 60.06 1 59.85 1c-.21 0-.367.053-.524.107a.817.817 0 0 0-.42.32c-.105.16-.21.266-.262.426-.053.16-.157.32-.157.533-.053.213-.053.373-.105.586 0 .214-.053.373-.053.587 0 .16 0 .373.053.586 0 .213.052.373.105.586.052.214.104.373.157.533.052.16.157.32.262.427.105.106.262.213.42.32.157.053.315.106.524.106.21 0 .368-.053.525-.106a.817.817 0 0 0 .42-.32c.104-.107.21-.267.262-.427.052-.16.157-.32.157-.533.053-.213.053-.373.105-.586.053-.213.053-.373.053-.586zm-.786 0v.533c0 .16-.053.373-.053.533-.052.16-.052.32-.105.426a1.116 1.116 0 0 1-.21.32c-.104.053-.21.107-.314.107-.105 0-.21-.054-.315-.107-.105-.053-.157-.16-.21-.32a1.016 1.016 0 0 1-.105-.426c-.052-.16-.052-.32-.052-.533v-.533-.533c0-.16.052-.374.052-.533.053-.16.053-.32.105-.427.053-.107.105-.213.21-.32.105-.053.21-.106.315-.106.105 0 .21.053.315.106.104.054.157.16.21.32.052.16.104.267.104.427.053.16.053.32.053.533v.533z" stroke="#AD8505" stroke-width=".074" stroke-miterlimit="2.613" stroke-linecap="round" stroke-linejoin="round"/><path fill-rule="evenodd" clip-rule="evenodd" d="M59.85 6.064v-.533c.105 0 .21-.053.315-.107.105-.053.157-.16.21-.32.052-.106.105-.266.105-.426.052-.16.052-.32.052-.533v-.533-.533c0-.16-.052-.373-.052-.533-.053-.16-.053-.32-.105-.427-.053-.106-.105-.213-.21-.32-.105-.053-.21-.106-.315-.106V1.16c.21 0 .367.053.525.107.157.053.315.16.42.32.104.106.21.266.262.426.052.16.157.32.157.533.053.16.053.373.105.586 0 .213.052.373.052.587 0 .16 0 .373-.052.586 0 .213-.052.373-.105.586-.052.213-.105.373-.157.533-.105.16-.158.32-.263.427a2.911 2.911 0 0 1-.42.32c-.157-.107-.314-.107-.524-.107zm0-5.01v.532c-.105 0-.21.054-.314.107-.105.053-.158.16-.21.32-.053.16-.105.266-.105.426-.053.16-.053.32-.053.533v1.066c0 .16.053.374.053.533.052.16.052.32.105.427.052.106.105.213.21.32.104.053.21.106.314.106v.587c-.21 0-.367-.054-.524-.107a.817.817 0 0 1-.42-.32 1.164 1.164 0 0 1-.262-.426c-.053-.16-.157-.32-.157-.533-.053-.213-.053-.373-.105-.587 0-.213-.053-.373-.053-.586 0-.16 0-.373.053-.586 0-.214.052-.373.105-.587.052-.213.104-.373.157-.533.052-.16.157-.32.262-.426.105-.107.262-.213.42-.32.105.107.315.053.524.053zm-3.829 4.69v-.853c.105-.053.158-.16.21-.266.157-.16.262-.373.367-.64-.105.053-.157.053-.262.053-.105 0-.21.054-.315.054v-.48h.158c.104 0 .21 0 .314-.053.105 0 .158-.054.21-.054 0-.106.053-.213.053-.32v-.32c0-.16 0-.32-.053-.48-.052-.159-.052-.266-.157-.426a.637.637 0 0 0-.263-.266c-.104-.053-.21-.107-.314-.107v-.533c.262 0 .524.054.682.16.21.107.367.213.472.373.105.16.21.373.262.587.053.213.105.48.105.746 0 .32-.052.586-.105.853-.052.266-.157.48-.262.693-.105.213-.263.373-.367.533l-.42.426c-.105.16-.21.214-.315.32zm0-4.637v.533h-.052c-.105 0-.263.053-.315.106a.413.413 0 0 0-.21.213c-.052.107-.105.214-.105.32-.052.107-.052.267-.052.373 0 .32.052.587.21.747.105.16.314.213.524.266v.48c-.21 0-.367-.053-.577-.107-.21-.053-.367-.16-.524-.266-.158-.107-.263-.267-.368-.48-.104-.213-.104-.426-.104-.693 0-.213.052-.426.104-.586.053-.16.158-.373.315-.48.158-.16.315-.266.472-.32.21-.106.42-.106.682-.106zm0 3.784v.853c-.052 0-.052.053-.105.053-.157.107-.314.16-.42.214-.157.053-.262.106-.367.106l-.21-.586c.158-.053.263-.107.42-.16.158-.053.315-.16.472-.267.053-.106.158-.16.21-.213zm-3.777 1.173v-.533c.158 0 .263-.053.368-.107a.637.637 0 0 0 .262-.266c.052-.107.105-.213.105-.373 0-.107 0-.214-.053-.267 0-.106-.052-.16-.105-.266-.052-.107-.157-.16-.262-.267-.105-.053-.21-.16-.367-.266v-.587c.157-.106.315-.213.42-.32.105-.106.157-.213.21-.266a.686.686 0 0 0 .052-.32c0-.16-.053-.267-.105-.373-.052-.107-.157-.16-.262-.267 0 0-.158-.053-.263-.053v-.48c.21 0 .368.054.525.107.157.053.315.16.472.266.105.107.21.214.315.374.052.16.105.32.105.48 0 .16-.053.32-.105.48-.053.159-.158.266-.262.372-.105.107-.315.213-.473.373.21.16.42.267.577.427.158.16.263.266.315.426.053.16.105.32.105.48a1.6 1.6 0 0 1-.105.533c-.052.16-.157.267-.315.373-.157.107-.314.213-.472.267-.262.053-.472.053-.682.053zm-3.042-.053V1.107h-.63c-.052.106-.157.213-.262.32-.105.106-.314.213-.524.266-.21.053-.472.16-.735.16l.105.533c.158 0 .315-.053.472-.053.158-.054.315-.054.42-.107.105-.053.21-.107.315-.107v3.892h.84zm3.042-4.958v.48a.75.75 0 0 0-.367.107c-.105.053-.157.16-.262.266-.052.107-.105.213-.105.373 0 .107 0 .16.053.267 0 .053.052.16.104.213.053.053.105.16.21.213.105.054.21.16.315.214v.64h-.052c-.158.106-.315.16-.42.266l-.262.266a.41.41 0 0 0-.105.267c.052 0 .052.106.052.16 0 .16.053.266.105.373a.637.637 0 0 0 .262.266.976.976 0 0 0 .42.107h.052v.533c-.21 0-.42-.053-.577-.107a1.01 1.01 0 0 1-.472-.266c-.157-.107-.262-.213-.314-.373-.105-.16-.105-.32-.105-.533a1.6 1.6 0 0 1 .105-.533.828.828 0 0 1 .314-.427c.158-.16.315-.266.577-.426-.21-.107-.367-.267-.472-.373a1.62 1.62 0 0 1-.262-.374c-.052-.16-.105-.266-.105-.48 0-.16.053-.32.105-.479.052-.16.157-.267.315-.373a1.01 1.01 0 0 1 .472-.267c0 .054.21 0 .42 0z" fill="#AA7F4D"/><path d="M40.075 11.075c-.157.213-.42.32-.84.32-.261 0-.471-.054-.629-.16-.21-.107-.262-.32-.262-.533V8.996h.472v1.706c0 .213.158.373.472.373.158 0 .263 0 .367-.054a.41.41 0 0 0 .105-.266.41.41 0 0 0-.105-.267s-.052-.053-.157-.106c-.052-.054-.105-.107-.105-.16 0-.107.053-.16.158-.213h.839c-.315.106-.472.106-.472.16v.053s.052.053.157.106c.105.107.21.214.21.427-.105.106-.105.213-.21.32zm-2.413-.64c-.052.48-.157.8-.367.96h-.525a.946.946 0 0 0 .263-.427c.105-.266.105-.533.105-.853 0-.266 0-.426-.053-.533-.052-.213-.21-.32-.472-.32-.21 0-.367.107-.472.32-.052.107-.052.267-.052.533 0 .587.157 1.013.42 1.28h-.525a3.572 3.572 0 0 1-.315-.64v-.64c0-.373.052-.64.157-.8.158-.266.42-.373.84-.373s.734.107.839.374c.105.16.157.426.157.8.053.053.053.16 0 .319zm4.092-.8v.64c-.315 0-.472.107-.472.373 0 .267.157.427.472.427v.32c-.315 0-.525-.054-.682-.16a.66.66 0 0 1-.263-.533V8.996h.473v1.013l.472-.374zm0 1.76v-.32c.314 0 .472-.107.472-.373 0-.267-.158-.374-.472-.374v-.64l.105-.053h.524l-.42.32c.21.054.42.107.525.214.157.106.21.266.21.48a.78.78 0 0 1-.105.372c-.158.267-.42.374-.84.374zm2.465-1.44v.32c-.315 0-.472.107-.472.373 0 .267.157.373.472.373v.32c-.262 0-.472-.053-.682-.16-.21-.106-.262-.32-.262-.533 0-.213.105-.373.262-.533.21-.106.42-.16.682-.16zm0-1.013v.32c-.105 0-.21.054-.315.107-.105.053-.157.16-.157.213v.213h-.472V9.53c0-.16.105-.32.314-.48.21-.053.42-.107.63-.107zm3.357 2.08c-.105.106-.21.213-.367.266-.158.053-.315.107-.472.107-.263 0-.472-.054-.682-.214-.21-.16-.315-.32-.315-.533 0-.16.053-.32.157-.373h.525a.61.61 0 0 0-.157.427c0 .106.052.213.157.266.105.107.21.107.315.107.105 0 .262-.054.314-.107a.294.294 0 0 0 .158-.266v-1.12c0-.106-.053-.16-.158-.213-.104-.053-.21-.107-.314-.107-.105 0-.21.054-.315.107-.105.053-.157.16-.157.213v.267h-.472v-.267c0-.213.104-.373.314-.48.21-.106.42-.16.63-.16.21 0 .42.054.63.16.209.107.314.267.314.48v1.12c.052.106 0 .213-.105.32zm-3.357.373v-.32c.315 0 .472-.107.472-.373 0-.16-.052-.214-.105-.32-.052-.054-.105-.054-.157-.107h-.158v-.32c.158 0 .315.054.472.107v-.533c0-.053-.052-.16-.157-.213-.105-.054-.21-.054-.262-.054v-.32c.21 0 .42.054.63.16.21.107.314.267.314.427v1.173a1 1 0 0 1-.105.373c-.21.213-.524.32-.944.32zm5.14-2.186v1.12a.96.96 0 0 0-.367.106.294.294 0 0 0-.157.267c0 .106.052.213.157.266a.75.75 0 0 0 .368.107v.32c-.263 0-.473-.054-.682-.214-.21-.16-.315-.32-.315-.533 0-.213.105-.373.262-.48.158-.106.367-.213.63-.213V9.53h-.525c-.105 0-.157-.053-.21-.107-.052-.053-.052-.106-.052-.213v-.213h.472v.213h.42zm2.623 2.186c-.262 0-.472-.054-.682-.214-.21-.16-.314-.32-.314-.533 0-.213.052-.373.21-.426h.576c-.157.106-.21.16-.262.16-.052.053-.052.106-.052.266 0 .107.052.213.157.267.105.106.21.106.315.106.157 0 .314-.053.367-.16a.78.78 0 0 0 .105-.373.61.61 0 0 0-.158-.426c-.052-.053-.157-.16-.367-.213-.21-.107-.315-.16-.367-.267a.488.488 0 0 1-.157-.373v-.267h.577v.214c0 .106.052.213.157.266.105.054.21.107.315.213.21.107.314.214.42.32.104.107.157.267.157.48a.89.89 0 0 1-.263.64c-.157.213-.42.32-.734.32zm-2.623 0v-.32a.961.961 0 0 0 .368-.107.294.294 0 0 0 .157-.266c0-.054 0-.107-.052-.214-.105-.16-.263-.213-.473-.213v-1.12h.368v.8c.21.054.314.16.472.267.105.106.21.266.21.426 0 .16-.053.267-.158.373-.105.107-.21.214-.367.267-.157.053-.315.107-.524.107z" stroke="#AD8505" stroke-width=".074" stroke-miterlimit="2.613" stroke-linecap="round" stroke-linejoin="round"/><path fill-rule="evenodd" clip-rule="evenodd" d="M41.754 11.395v-.32.32zm0-1.12v-.64.64zm0 1.12c.367 0 .682-.107.839-.32.052-.107.105-.214.105-.373 0-.214-.053-.32-.21-.48-.157-.107-.315-.213-.525-.213l.42-.427h-.524l-.105.053v.64c.314 0 .472.107.472.373 0 .267-.158.373-.472.373v.374zm2.465-1.44v.32c-.315 0-.472.107-.472.373 0 .267.157.373.472.373v.32c-.262 0-.472-.053-.682-.16-.21-.106-.262-.32-.262-.533 0-.213.105-.373.262-.533.21-.106.42-.16.682-.16zm0-1.013v.32c-.105 0-.21.054-.315.107-.105.053-.157.16-.157.213v.213h-.472V9.53c0-.16.105-.32.314-.48.21-.053.42-.107.63-.107zm3.357 2.08c-.105.106-.21.213-.367.266-.158.053-.315.107-.472.107-.263 0-.472-.054-.682-.214-.21-.16-.315-.32-.315-.533 0-.16.053-.32.157-.373h.525a.61.61 0 0 0-.157.427c0 .106.052.213.157.266.105.107.21.107.315.107.105 0 .262-.054.314-.107a.294.294 0 0 0 .158-.266v-1.12c0-.106-.053-.16-.158-.213-.104-.053-.21-.107-.314-.107-.105 0-.21.054-.315.107-.105.053-.157.16-.157.213v.267h-.472v-.267c0-.213.104-.373.314-.48.21-.106.42-.16.63-.16.21 0 .42.054.63.16.209.107.314.267.314.48v1.12c.052.106 0 .213-.105.32zm-3.357.373c.42 0 .682-.107.84-.374.052-.106.104-.213.104-.373V9.476c0-.16-.105-.32-.315-.427a1.23 1.23 0 0 0-.63-.16v.32c.106 0 .21 0 .263.053.105.054.158.107.158.214v.533c-.158-.054-.263-.107-.473-.107v.32h.158c.052 0 .105.053.157.106.105.054.105.16.105.32 0 .267-.157.373-.472.373v.374h.105zm5.14-2.186v1.12a.96.96 0 0 0-.367.106.294.294 0 0 0-.157.267c0 .106.052.213.157.266.105.053.21.107.368.107v.32c-.263 0-.473-.054-.682-.214-.21-.16-.315-.32-.315-.533 0-.213.105-.373.262-.48.158-.106.367-.213.63-.213V9.53h-.525c-.105 0-.157-.053-.21-.107-.052-.053-.052-.106-.052-.213v-.213h.472v.213h.42zm2.623 2.186c-.262 0-.472-.054-.682-.214-.21-.16-.314-.32-.314-.533 0-.213.052-.373.21-.426h.576c-.157.106-.21.16-.262.16-.052.053-.052.106-.052.266 0 .107.052.213.157.267.105.106.21.106.315.106.157 0 .314-.053.367-.16a.78.78 0 0 0 .105-.373.61.61 0 0 0-.158-.426c-.052-.053-.157-.16-.367-.213-.21-.107-.315-.16-.367-.267a.488.488 0 0 1-.157-.373v-.267h.577v.214c0 .106.052.213.157.266.105.054.21.107.315.213.21.107.314.214.42.32.104.107.157.267.157.48a.89.89 0 0 1-.263.64c-.157.213-.42.32-.734.32zm-2.623 0c.158 0 .315-.054.473-.107.157-.053.262-.16.367-.267a.488.488 0 0 0 .157-.373c0-.16-.052-.32-.21-.426a1.01 1.01 0 0 0-.472-.267v-.8h-.367v1.12c.21 0 .315.053.472.213.053.054.053.107.053.214a.294.294 0 0 1-.158.266c-.105.053-.21.107-.367.107v.32h.053zm-9.284-.32c-.157.213-.42.32-.84.32-.261 0-.471-.054-.629-.16-.21-.107-.262-.32-.262-.533V8.996h.472v1.706c0 .213.158.373.472.373.158 0 .263 0 .367-.054a.41.41 0 0 0 .105-.266.41.41 0 0 0-.105-.267s-.052-.053-.157-.106c-.052-.054-.105-.107-.105-.16 0-.107.053-.16.158-.213h.839c-.315.106-.472.106-.472.16v.053s.052.053.157.106c.105.107.21.214.21.427-.105.106-.105.213-.21.32zm1.679-1.44v.64c-.315 0-.472.107-.472.373 0 .267.157.427.472.427v.32c-.315 0-.525-.054-.682-.16a.66.66 0 0 1-.263-.533V8.996h.473v1.013l.472-.374zm-4.092.8c-.052.48-.157.8-.367.96h-.525a.946.946 0 0 0 .263-.427c.105-.266.105-.533.105-.853 0-.266 0-.426-.053-.533-.052-.213-.21-.32-.472-.32-.21 0-.367.107-.472.32-.052.107-.052.267-.052.533 0 .587.157 1.013.42 1.28h-.525a3.572 3.572 0 0 1-.315-.64v-.64c0-.373.052-.64.157-.8.158-.266.42-.373.84-.373s.734.107.839.374c.105.16.157.426.157.8.053.052.053.16 0 .319z" fill="#AD8505"/><path d="M57.437 11.235v-.267h-.63v-.693h.578v-.266h-.577v-.64h.63v-.267h-1.05v2.186h1.05v-.053zm1.47-.64v-.16c0-.053-.053-.107-.053-.16l-.158-.16a1.143 1.143 0 0 0-.262-.16c-.052 0-.105-.053-.157-.106-.053-.054-.105-.054-.105-.107s-.053-.107-.053-.16c0-.053 0-.106.053-.16 0-.053.052-.106.105-.106.052 0 .105-.054.157-.054h.105c.052 0 .105 0 .105.054.052 0 .052.053.105.053l.105-.267c-.053-.053-.105-.053-.21-.106-.105 0-.158-.054-.262-.054-.105 0-.21 0-.263.054-.105.053-.157.106-.21.16-.052.053-.104.106-.104.213-.053.053-.053.16-.053.266v.16c0 .054.053.107.053.16.052.054.052.107.157.16.052.054.105.107.21.107.105.053.157.053.21.106.052.054.104.054.104.107s.053.107.053.16c0 .053 0 .107-.053.16-.052.053-.052.106-.104.106-.053.054-.105.054-.158.054h-.157c-.053 0-.105 0-.105-.054-.053 0-.053-.053-.105-.053l-.157.32c.052 0 .105.053.157.053.052 0 .105.054.157.054h.21c.105 0 .21 0 .262-.054.105-.053.158-.053.21-.16.053-.053.105-.106.158-.213 0 0 .052-.106.052-.213zm1.415-1.28V9.05h-1.206v.267h.42v1.919h.42v-1.92h.366zm1.889 1.92l-.682-2.186h-.367l-.735 2.186h.367l.158-.533h.682l.157.533h.42zm-.63-.8h-.577l.21-.746c0-.107.053-.16.053-.213v-.054.054c0 .053 0 .106.052.213l.262.746zm2.36.213c0-.053 0-.106-.052-.16 0-.053-.052-.106-.105-.16l-.105-.106c-.052-.053-.104-.053-.104-.053-.053 0-.105-.054-.105-.054.052 0 .105-.053.157-.053.052 0 .105-.053.105-.107.052-.053.052-.106.105-.16 0-.053.052-.106.052-.213 0-.106 0-.16-.052-.213l-.158-.16a.397.397 0 0 0-.262-.107c-.105-.053-.21-.053-.315-.053h-.262c-.052 0-.157 0-.21.053-.052 0-.105.054-.157.054v1.972c.052.053.157.053.262.107.105 0 .21.053.367.053.105 0 .21 0 .315-.053.105 0 .21-.054.262-.107.053-.053.105-.107.158-.213.105-.054.105-.16.105-.267zm-.471-1.013c0 .107 0 .16-.053.214-.052.053-.105.106-.157.106-.053.054-.158.054-.315.054h-.105v-.693c.053 0 .053 0 .105-.054h.105c.105 0 .21.054.315.107.105.053.105.16.105.266zm.052 1.013c0 .107 0 .16-.052.213-.053.054-.105.107-.158.107-.052 0-.157.053-.21.053h-.157c-.052 0-.052 0-.105-.053v-.8h.105c.157 0 .262 0 .315.054.105.053.157.106.157.16.105.053.158.16.105.266zm1.784.587v-.267h-.577V9.05h-.42v2.186h.997zm.734-2.186h-.42v2.186h.42V9.049zm1.521 1.546v-.16c0-.053-.052-.107-.052-.16l-.158-.16a1.142 1.142 0 0 0-.262-.16c-.053 0-.105-.053-.157-.106-.053-.054-.105-.054-.105-.107-.053-.053-.053-.107-.053-.16 0-.053 0-.106.053-.16 0-.053.052-.106.105-.106.052 0 .104-.054.157-.054h.105c.052 0 .052 0 .105.054.052 0 .052.053.105.053l.105-.267c-.053-.053-.105-.053-.21-.106-.053 0-.158-.054-.263-.054-.104 0-.21 0-.262.054-.105.053-.157.106-.21.16-.052.053-.104.106-.104.213-.053.053-.053.16-.053.266v.16c0 .054.053.107.053.16l.157.16c.052.054.105.107.21.107.105.053.157.053.21.106.052.054.104.054.104.107s.053.107.053.16c0 .053 0 .107-.053.16-.052.053-.052.106-.104.106-.053.054-.105.054-.158.054h-.157c-.053 0-.105 0-.105-.054-.053 0-.053-.053-.105-.053l-.105.267c.053 0 .105.053.157.053.053 0 .105.053.158.053h.21c.105 0 .21 0 .262-.053.105-.053.157-.053.21-.16a.735.735 0 0 0 .157-.213v-.16zm1.836.64V9.049h-.42v.906h-.682V9.05h-.42v2.186h.42v-.96h.682v.96h.42zm1.469 0v-.267h-.63v-.693h.577v-.266h-.577v-.64h.63v-.267h-1.05v2.186h1.05v-.053zm1.888-1.12c0-.16 0-.32-.052-.426-.053-.107-.105-.267-.158-.373-.052-.107-.157-.16-.262-.214a.976.976 0 0 0-.42-.106c-.105 0-.21 0-.314.053-.105 0-.158.053-.263.107v1.972c.053.053.158.053.263.107.104 0 .21.053.367.053a.976.976 0 0 0 .42-.107c.104-.053.21-.16.262-.213.052-.107.105-.213.157-.373v-.48zm-.367 0c0 .213 0 .373-.053.48-.052.107-.105.213-.157.266-.052.054-.157.107-.315.107h-.21V9.316h.21c.158 0 .315.053.367.213.105.106.158.32.158.586z" stroke="#AD8505" stroke-width=".074" stroke-miterlimit="2.613" stroke-linecap="round" stroke-linejoin="round"/><path fill-rule="evenodd" clip-rule="evenodd" d="M72.02 11.288v-.267c.052 0 .105-.053.157-.053.053-.053.105-.16.157-.266.053-.107.053-.267.053-.48 0-.267-.053-.48-.105-.64-.053-.106-.157-.16-.21-.16v-.266c.105 0 .157.053.262.053.105.053.21.107.263.213.052.107.105.213.157.373.052.16.052.267.052.427 0 .16 0 .32-.052.426-.052.16-.105.267-.157.373-.053.107-.158.16-.263.214-.157 0-.21 0-.314.053zm0-2.239v.267h-.367v1.652h.367v.267h-.158c-.157 0-.262 0-.367-.054a.397.397 0 0 1-.262-.106V9.102c.052-.053.157-.053.262-.106.105 0 .21-.054.315-.054.105.107.157.107.21.107zm-8.865 2.239v-.267c.052 0 .105 0 .157-.053.053 0 .105-.053.158-.107.052-.053.052-.106.052-.213 0-.106 0-.16-.052-.266l-.158-.16c-.052 0-.105 0-.157-.053v-.214c.052 0 .052 0 .105-.053.052-.053.105-.053.157-.107.053-.053.053-.106.053-.213a.41.41 0 0 0-.105-.266c-.053-.054-.105-.054-.21-.107v-.213c.105 0 .21 0 .262.053.105.053.158.053.262.107l.158.16c.052.053.052.16.052.213 0 .053 0 .16-.052.213 0 .053-.053.107-.105.16-.053.053-.105.053-.105.107-.052 0-.105.053-.157.053.052 0 .105 0 .105.053.052 0 .104.054.104.054.053.053.105.053.105.106.053.053.053.107.105.16 0 .053.053.107.053.16 0 .107 0 .213-.053.266-.052.054-.105.16-.157.214a.397.397 0 0 1-.262.106c-.105.054-.21.107-.315.107zm2.15-.053v-.267h-.576V9.05h-.42v2.186h.997zm.735-2.186h-.42v2.186h.42V9.049zm1.521 1.546v-.16c0-.053-.052-.107-.052-.16l-.158-.16a1.142 1.142 0 0 0-.262-.16c-.053 0-.105-.053-.157-.106-.053-.054-.105-.054-.105-.107-.053-.053-.053-.107-.053-.16 0-.053 0-.106.053-.16 0-.053.052-.106.105-.106.052 0 .104-.054.157-.054h.105c.052 0 .105 0 .105.054.052 0 .052.053.105.053l.105-.267c-.053-.053-.105-.053-.21-.106-.053 0-.158-.054-.263-.054-.104 0-.21 0-.262.054-.105.053-.157.106-.21.16-.052.053-.104.106-.104.213-.053.053-.053.16-.053.266v.16c0 .054.053.107.053.16l.157.16c.052.054.105.107.21.107.105.053.157.053.21.106.052.054.104.054.104.107s.053.107.053.16c0 .053 0 .107-.053.16-.052.053-.052.106-.104.106-.053.054-.105.054-.158.054h-.157c-.053 0-.105 0-.105-.054-.053 0-.053-.053-.105-.053l-.105.267c.053 0 .105.053.157.053.053 0 .105.053.158.053h.21c.105 0 .21 0 .262-.053.105-.053.157-.053.21-.16a.735.735 0 0 0 .157-.213v-.16zm1.836.64V9.049h-.42v.906h-.682V9.05h-.42v2.186h.42v-.96h.682v.96h.42zm1.469 0v-.267h-.63v-.693h.577v-.266h-.577v-.64h.63v-.267h-1.05v2.186h1.05v-.053zm-7.711-2.186v.213h-.157c-.053 0-.053 0-.105.054v.693h.315v.213h-.315v.8c.052 0 .052 0 .105.053h.209v.266h-.052c-.157 0-.262 0-.367-.053a.397.397 0 0 1-.263-.107V9.21c.053 0 .105-.053.158-.053.052 0 .105-.054.21-.054h.262c-.053-.053 0-.053 0-.053zm-1.836 1.653v-.214h.262l-.21-.746c0-.107-.052-.16-.052-.213v-.427h.21l.682 2.186h-.42l-.157-.533h-.315v-.053zm-3.882.533v-.267h-.63v-.693h.578v-.266h-.577v-.64h.63v-.267h-1.05v2.186h1.05v-.053zm3.882-2.186v.427c0 .053 0 .106-.052.213l-.21.746h.262v.213h-.367l-.158.533h-.367l.735-2.185h.157v.053zm-2.413 1.546v-.16c0-.053-.052-.107-.052-.16l-.158-.16a1.143 1.143 0 0 0-.262-.16c-.052 0-.105-.053-.157-.106-.053-.054-.105-.054-.105-.107s-.053-.107-.053-.16c0-.053 0-.106.053-.16 0-.053.052-.106.105-.106.052 0 .105-.054.157-.054h.105c.052 0 .052 0 .105.054.052 0 .052.053.105.053l.105-.267c-.053-.053-.105-.053-.21-.106-.105 0-.158-.054-.262-.054-.105 0-.21 0-.263.054-.105.053-.157.106-.21.16-.052.053-.104.106-.104.213-.053.053-.053.16-.053.266v.16c0 .054.053.107.053.16.052.054.052.107.157.16.052.054.105.107.21.107.105.053.157.053.21.106.052.054.104.054.104.107s.053.107.053.16c0 .053 0 .107-.053.16-.052.053-.052.106-.104.106-.053.054-.105.054-.158.054h-.157c-.053 0-.105 0-.105-.054-.053 0-.053-.053-.105-.053l-.157.32c.052 0 .105.053.157.053.052 0 .105.054.157.054h.21c.105 0 .21 0 .262-.054.105-.053.158-.053.21-.16.053-.053.105-.106.158-.213 0 0 .052-.106.052-.213zm1.416-1.28V9.05h-1.206v.267h.42v1.919h.42v-1.92h.366z" fill="#AD8505"/><path fill-rule="evenodd" clip-rule="evenodd" d="M49.202 6.01V1.108h-.63c-.052.106-.157.213-.262.32-.105.106-.314.213-.524.266-.21.053-.472.16-.735.16l.105.533c.158 0 .315-.053.472-.053.158-.054.315-.054.42-.107.105-.053.21-.107.315-.107v3.892h.84zm4.564-1.172c0-.16-.053-.373-.105-.533a.828.828 0 0 0-.315-.427c-.157-.16-.315-.266-.577-.426a1.848 1.848 0 0 0 .734-.746c.053-.16.105-.267.105-.48 0-.16-.052-.32-.105-.48-.052-.16-.157-.266-.314-.373-.105-.106-.263-.16-.472-.266A1.859 1.859 0 0 0 52.14 1c-.21 0-.368.053-.577.107-.158.053-.315.16-.473.266-.104.107-.21.213-.314.373-.053.16-.105.32-.105.48 0 .16.052.32.105.48.052.16.157.266.262.373.105.107.315.266.472.373-.21.16-.42.267-.577.426-.157.16-.262.267-.315.427-.052.16-.105.32-.105.533 0 .213.053.373.105.533.105.16.21.267.315.373.157.107.315.213.472.267.21.053.367.106.577.106.21 0 .42-.053.63-.106.21-.054.367-.16.472-.267a.995.995 0 0 0 .314-.373c.315-.213.368-.373.368-.533zm-.84-2.612c0 .107 0 .213-.052.32-.053.106-.105.213-.21.266a2.914 2.914 0 0 1-.42.32c-.157-.106-.262-.16-.314-.213-.105-.053-.158-.16-.21-.213a.407.407 0 0 1-.105-.213c0-.054-.052-.16-.052-.267a.78.78 0 0 1 .104-.373c.053-.107.158-.16.263-.267.052 0 .157-.053.314-.053a.75.75 0 0 1 .368.107c.105.053.21.16.262.266 0 .107.052.213.052.32zm.053 2.612a.78.78 0 0 1-.105.373.637.637 0 0 1-.262.267.976.976 0 0 1-.42.106c-.157 0-.262-.053-.42-.106a.637.637 0 0 1-.262-.267c-.052-.16-.105-.266-.105-.426 0-.107 0-.214.053-.267 0-.106.052-.16.105-.266.052-.107.157-.16.262-.267.105-.107.262-.16.42-.266.157.106.314.16.42.266.104.107.209.16.261.267.053.106.105.16.105.266-.052.107-.052.213-.052.32zm4.563-1.866a3.19 3.19 0 0 0-.105-.746 1.985 1.985 0 0 0-.262-.586c-.105-.16-.262-.32-.472-.373-.21-.107-.42-.16-.682-.16-.262 0-.472.053-.63.106a1.83 1.83 0 0 0-.471.32l-.315.48c-.053.16-.105.373-.105.586 0 .267.052.48.105.693.105.213.21.32.367.48.157.106.315.213.525.266.21.054.367.107.577.107.105 0 .21 0 .314-.053.105 0 .158-.054.263-.054-.105.214-.21.427-.368.64-.157.16-.262.32-.42.426-.157.107-.314.214-.471.267-.158.053-.315.107-.42.16l.21.586c.105 0 .21-.053.367-.106.105-.054.262-.107.42-.214.157-.106.314-.16.472-.32a1.61 1.61 0 0 0 .42-.426c.157-.16.262-.373.367-.533.104-.213.21-.426.262-.693.052-.266.052-.586.052-.853zm-.786-.053v.32c0 .106 0 .213-.053.32-.052 0-.105.053-.21.053s-.21.053-.314.053c-.315 0-.525-.106-.682-.266-.158-.16-.21-.427-.21-.747 0-.106 0-.266.052-.373 0-.106.053-.213.105-.32a.413.413 0 0 1 .21-.213c.105-.053.21-.106.315-.106a.75.75 0 0 1 .367.106c.105.054.157.16.262.267.053.106.105.266.158.426v.48zm4.615.64c0-.16 0-.373-.052-.587 0-.213-.052-.373-.105-.586-.052-.213-.105-.373-.157-.533-.105-.16-.158-.32-.263-.427a2.911 2.911 0 0 0-.42-.32C60.218 1.054 60.06 1 59.85 1c-.21 0-.367.053-.524.107a.817.817 0 0 0-.42.32c-.105.16-.21.266-.262.426-.053.16-.157.32-.157.533-.053.213-.053.373-.105.586 0 .214-.053.373-.053.587 0 .16 0 .373.053.586 0 .213.052.373.105.586.052.214.104.373.157.533.052.16.157.32.262.427.105.106.262.213.42.32.157.053.315.106.524.106.21 0 .368-.053.525-.106a.817.817 0 0 0 .42-.32c.104-.107.21-.267.262-.427.052-.16.157-.32.157-.533.053-.213.053-.373.105-.586.053-.213.053-.373.053-.586zm-.786 0v.533c0 .16-.053.373-.053.533-.052.16-.052.32-.105.426a1.116 1.116 0 0 1-.21.32c-.104.053-.21.107-.314.107-.105 0-.21-.054-.315-.107-.105-.053-.157-.16-.21-.32a1.016 1.016 0 0 1-.105-.426c-.052-.16-.052-.32-.052-.533v-.533-.533c0-.16.052-.374.052-.533.053-.16.053-.32.105-.427.053-.107.105-.213.21-.32.105-.053.21-.106.315-.106.105 0 .21.053.315.106.104.054.157.16.21.32.052.16.104.267.104.427.053.16.053.32.053.533v.533z" fill="#AA7F4D"/><path d="M59.273 6.01a.817.817 0 0 1-.42-.32 2.953 2.953 0 0 1-.314-.426c-.105-.16-.158-.373-.21-.533-.053-.213-.105-.373-.105-.586 0-.213-.052-.373-.052-.586 0-.16 0-.373.052-.587 0-.213.052-.373.105-.586a1.61 1.61 0 0 1 .21-.533.828.828 0 0 1 .314-.427c.105-.106.263-.213.42-.32.157-.053.367-.106.577-.106.21 0 .42.053.577.107.157.053.315.16.42.32.105.106.21.266.314.426.105.16.158.373.21.533.053.213.053.373.105.586 0 .214.053.373.053.587 0 .16 0 .373-.053.586 0 .213-.052.373-.105.586a1.61 1.61 0 0 1-.21.533c-.104.16-.157.32-.314.427-.105.16-.263.213-.42.32a1.86 1.86 0 0 1-.577.106c-.21 0-.42 0-.577-.106zm.053-4.797c-.158.054-.263.16-.368.267-.105.106-.21.266-.262.426-.052.16-.157.32-.157.533-.053.16-.053.373-.105.587 0 .213-.053.373-.053.533 0 .16 0 .373.053.586 0 .213.052.373.105.586.052.214.105.373.157.533.053.16.157.32.262.427.105.106.263.213.368.266.157.054.314.107.524.107.21 0 .367-.053.525-.107.157-.053.262-.16.367-.266.105-.107.21-.267.262-.427.053-.16.157-.32.157-.533.053-.16.053-.373.105-.586 0-.213.053-.373.053-.586 0-.16 0-.373-.053-.533 0-.214-.052-.374-.105-.587-.052-.16-.104-.373-.157-.533a1.164 1.164 0 0 0-.262-.426 1.595 1.595 0 0 0-.367-.267c-.158-.053-.315-.106-.525-.106-.21 0-.367.053-.524.106zm-4.25 4.904l-.209-.586.052-.053c.105-.054.263-.107.42-.16.157-.054.315-.16.472-.267a1.61 1.61 0 0 0 .42-.426l.315-.48c-.053 0-.105 0-.158.053-.105 0-.21.054-.315.054-.21 0-.42-.054-.577-.107-.21-.053-.367-.16-.524-.267-.157-.106-.262-.266-.367-.48a1.495 1.495 0 0 1-.158-.692c0-.213.053-.427.105-.64a1.11 1.11 0 0 1 .315-.533c.157-.16.315-.266.525-.32.21-.106.42-.106.681-.106.263 0 .525.053.735.16.21.106.367.213.524.426.105.16.21.373.263.586.052.214.105.48.105.747 0 .32-.053.586-.105.852-.053.267-.158.48-.263.693-.105.214-.262.374-.367.587-.157.16-.315.32-.472.426l-.472.32c-.157.107-.315.16-.42.213-.157.054-.262.107-.367.107l-.157-.107zm.106-.106c.105 0 .157-.054.314-.107a1.56 1.56 0 0 0 .42-.213c.157-.107.315-.16.472-.32a1.61 1.61 0 0 0 .42-.426c.157-.16.262-.32.367-.533.105-.214.21-.427.262-.693.053-.267.105-.533.105-.853 0-.267-.052-.48-.105-.747a1.987 1.987 0 0 0-.262-.586c-.105-.16-.262-.266-.472-.373-.21-.107-.42-.16-.682-.16-.262 0-.472.053-.63.107-.21.053-.314.16-.472.32-.104.16-.21.266-.262.48-.052.16-.105.372-.105.586 0 .266.053.48.105.64.105.16.21.319.315.426.157.106.315.213.472.266.157.053.367.107.577.107.105 0 .21 0 .315-.054.105 0 .157-.053.262-.053h.052v.053c-.104.267-.21.48-.367.64-.157.16-.262.32-.472.427-.157.106-.315.213-.472.266-.157.053-.262.107-.367.16l.21.64zm-3.567.053c-.21-.053-.367-.16-.525-.267-.157-.106-.262-.266-.367-.426-.105-.16-.105-.373-.105-.586a1.6 1.6 0 0 1 .105-.533c.053-.16.21-.32.315-.48.157-.107.315-.267.524-.373a1.14 1.14 0 0 1-.42-.267c-.157-.106-.21-.266-.314-.426-.052-.16-.105-.32-.105-.48 0-.16.053-.373.105-.533.052-.16.21-.267.315-.373.157-.107.314-.213.472-.267.21 0 .367-.053.577-.053.21 0 .42.053.577.107.157.053.315.16.472.266a.995.995 0 0 1 .315.373c.052.16.105.32.105.533 0 .16-.053.32-.105.48-.053.16-.158.267-.315.427-.105.106-.262.213-.42.32.21.106.367.266.525.372.157.16.262.32.315.48.052.16.104.32.104.533 0 .213-.052.373-.104.533-.105.16-.21.32-.315.427-.158.106-.315.213-.525.266-.21.054-.42.107-.63.107-.209-.107-.419-.107-.576-.16zm.052-4.85c-.157.053-.314.106-.42.212-.104.107-.21.214-.262.374-.105.106-.105.266-.105.426 0 .16.053.32.105.426.053.107.158.267.263.374.105.106.262.213.472.373l.052.053s0 .053-.052.053c-.21.16-.42.267-.577.427a.828.828 0 0 0-.315.426c-.052.16-.105.32-.105.48 0 .213.053.373.105.533.105.16.157.267.315.373.157.107.314.16.472.213.157.054.367.107.577.107.21 0 .42-.053.63-.107.21-.053.366-.16.471-.266.158-.107.21-.213.315-.373.053-.16.105-.32.105-.48 0-.16-.052-.32-.105-.48-.052-.16-.157-.266-.315-.426-.157-.16-.314-.267-.577-.427l-.052-.053s0-.053.052-.053c.21-.107.368-.213.472-.373.105-.107.21-.214.263-.374.052-.106.105-.266.105-.426 0-.16-.053-.32-.105-.48-.053-.16-.158-.266-.263-.373-.104-.106-.262-.16-.42-.213-.157-.053-.314-.053-.524-.107-.21.054-.42.107-.577.16zm-3.357 4.85l-.052-.053V2.173c-.053.053-.158.053-.263.106-.104.054-.262.054-.42.107-.157.053-.314.053-.471.053l-.053-.053-.105-.533L47 1.8c.315-.054.524-.107.734-.16.21-.054.367-.16.472-.267l.315-.32h.63l.052.054V6.01l-.053.053h-.839zm.892-.053v-.054.054zm-.84-3.945l.053 3.891h.734V1.16h-.524c-.053.107-.157.213-.315.32-.157.106-.315.213-.524.266-.21.054-.42.16-.682.16l.105.427c.157 0 .262-.054.42-.054.157-.053.262-.053.419-.106a.397.397 0 0 1 .262-.107h.053c-.053 0 0 0 0 0zm3.41 3.412c-.105-.054-.21-.16-.315-.267a1.017 1.017 0 0 1-.104-.426c0-.107 0-.214.052-.267 0-.106.052-.16.105-.266.052-.107.157-.16.262-.267.105-.107.262-.16.42-.266h.052c.158.106.315.213.42.266.105.107.21.16.262.267.053.106.105.16.105.266 0 .107.053.213.053.267 0 .16-.053.266-.105.426a.54.54 0 0 1-.315.267.976.976 0 0 1-.42.106c-.21 0-.367 0-.472-.106zm.053-1.386l-.21.213a.407.407 0 0 0-.105.213c0 .107-.053.16-.053.267a1 1 0 0 0 .105.373c.053.106.158.16.263.213a.75.75 0 0 0 .367.107.75.75 0 0 0 .367-.107c.105-.053.21-.16.262-.213.053-.107.105-.213.105-.32 0-.107 0-.16-.052-.267a.407.407 0 0 0-.105-.213c-.053-.053-.105-.16-.21-.213-.105-.053-.21-.16-.367-.267a.842.842 0 0 0-.367.214zm7.658 1.332a1.116 1.116 0 0 1-.21-.32c-.052-.16-.105-.266-.105-.48-.052-.16-.052-.372-.052-.532v-.533-.533c0-.16.052-.374.052-.533.053-.16.053-.32.105-.48a.82.82 0 0 1 .21-.32c.105-.107.21-.107.367-.107a.75.75 0 0 1 .367.107c.105.107.158.213.21.32.053.16.105.32.105.48.053.16.053.373.053.533v1.066c0 .16-.053.373-.053.533-.052.16-.052.32-.105.48a.82.82 0 0 1-.21.32c-.105.106-.21.106-.367.106-.157.053-.262 0-.367-.107zm.052-3.678c-.052.054-.157.16-.21.267a1.018 1.018 0 0 0-.104.426c-.053.16-.053.32-.053.533v1.066c0 .16.053.374.053.533.052.16.052.32.105.427.052.106.104.213.21.266a.398.398 0 0 0 .262.107c.105 0 .21-.053.262-.107.105-.053.157-.16.21-.266.052-.107.105-.267.105-.427.052-.16.052-.32.052-.533v-.533-.533c0-.16-.052-.373-.052-.533-.053-.16-.053-.32-.105-.426-.053-.107-.105-.213-.21-.267a.398.398 0 0 0-.262-.106c-.105 0-.158.053-.263.106zM55.444 3.4c-.157-.16-.262-.427-.262-.8 0-.106 0-.266.052-.373 0-.107.053-.267.105-.32a.637.637 0 0 1 .262-.266c.105-.054.21-.107.368-.107.157 0 .262.053.367.107.105.053.21.16.262.32.052.106.105.266.157.426.053.16.053.32.053.533v.32c0 .106 0 .213-.105.373-.053 0-.105.053-.21.053s-.21.054-.315.054c-.314 0-.577-.107-.734-.32zm.21-1.653a.413.413 0 0 0-.21.213c-.052.107-.105.214-.105.32 0 .107-.052.214-.052.373 0 .32.052.534.21.693.157.16.367.214.629.214.105 0 .21 0 .315-.054.105 0 .157-.053.157 0 0-.106.052-.213.052-.266v-.32c0-.16 0-.32-.052-.48-.052-.16-.052-.266-.105-.373a1.16 1.16 0 0 0-.21-.266c-.105-.054-.21-.107-.314-.107-.105 0-.21 0-.315.053zm-3.462 1.44a1.632 1.632 0 0 1-.315-.214c-.105-.053-.157-.16-.21-.213a.407.407 0 0 1-.105-.213c0-.107-.052-.16-.052-.267 0-.16.052-.266.105-.373a.637.637 0 0 1 .262-.266c.053-.107.21-.16.367-.16.158 0 .263.053.42.106.105.054.21.16.262.267.053.106.105.213.105.373 0 .107 0 .267-.052.373a1.117 1.117 0 0 1-.21.32 2.914 2.914 0 0 1-.42.32h-.157v-.053zm-.315-1.493a.413.413 0 0 0-.21.213c-.052.107-.052.213-.052.32 0 .107 0 .16.052.267 0 .053.053.16.105.213l.21.213c.105.053.157.107.315.213.157-.106.314-.213.367-.266a.934.934 0 0 0 .21-.267c.052-.106.052-.213.052-.32 0-.106-.052-.213-.105-.32a.413.413 0 0 0-.21-.213c-.104-.053-.21-.106-.314-.106-.21 0-.315 0-.42.053z" fill="#AA7F4D"/><path fill-rule="evenodd" clip-rule="evenodd" d="M59.85 6.064v-.533c.105 0 .21-.053.315-.107.105-.053.157-.16.21-.32.052-.106.105-.266.105-.426.052-.16.052-.32.052-.533v-.533-.533c0-.16-.052-.373-.052-.533-.053-.16-.053-.32-.105-.427-.053-.106-.105-.213-.21-.32-.105-.053-.21-.106-.315-.106V1.16c.21 0 .367.053.525.107.157.053.315.16.42.32.104.106.21.266.262.426.052.16.157.32.157.533.053.16.053.373.105.586 0 .213.052.373.052.587 0 .16 0 .373-.052.586 0 .213-.052.373-.105.586-.052.213-.105.373-.157.533-.105.16-.158.32-.263.427a2.911 2.911 0 0 1-.42.32c-.157-.107-.314-.107-.524-.107zm0-5.01v.532c-.105 0-.21.054-.314.107-.105.053-.158.16-.21.32-.053.16-.105.266-.105.426-.053.16-.053.32-.053.533v1.066c0 .16.053.374.053.533.052.16.052.32.105.427.052.106.105.213.21.32.104.053.21.106.314.106v.587c-.21 0-.367-.054-.524-.107a.817.817 0 0 1-.42-.32 1.164 1.164 0 0 1-.262-.426c-.053-.16-.157-.32-.157-.533-.053-.213-.053-.373-.105-.587 0-.213-.053-.373-.053-.586 0-.16 0-.373.053-.586 0-.214.052-.373.105-.587.052-.213.104-.373.157-.533.052-.16.157-.32.262-.426.105-.107.262-.213.42-.32.105.107.315.053.524.053zm-3.829 4.69v-.853c.105-.053.158-.16.21-.266.157-.16.262-.373.367-.64-.105.053-.157.053-.262.053-.105 0-.21.054-.315.054v-.48h.158c.104 0 .21 0 .314-.053.105 0 .158-.054.21-.054 0-.106.053-.213.053-.32v-.32c0-.16 0-.32-.053-.48-.052-.159-.052-.266-.157-.426a.637.637 0 0 0-.263-.266c-.104-.053-.21-.107-.314-.107v-.533c.262 0 .524.054.682.16.21.107.367.213.472.373.105.16.21.373.262.587.053.213.105.48.105.746 0 .32-.052.586-.105.853-.052.266-.157.48-.262.693-.105.213-.263.373-.367.533l-.42.426c-.105.16-.21.214-.315.32zm0-4.637v.533h-.052c-.105 0-.263.053-.315.106a.413.413 0 0 0-.21.213c-.052.107-.105.214-.105.32-.052.107-.052.267-.052.373 0 .32.052.587.21.747.105.16.314.213.524.266v.48c-.21 0-.367-.053-.577-.107-.21-.053-.367-.16-.524-.266-.158-.107-.263-.267-.368-.48-.104-.213-.104-.426-.104-.693 0-.213.052-.426.104-.586.053-.16.158-.373.315-.48.158-.16.315-.266.472-.32.21-.106.42-.106.682-.106zm0 3.784v.853c-.052 0-.052.053-.105.053-.157.107-.314.16-.42.214-.157.053-.262.106-.367.106l-.21-.586c.158-.053.263-.107.42-.16.158-.053.315-.16.472-.267.053-.106.158-.16.21-.213zm-3.777 1.173v-.533c.158 0 .263-.053.368-.107a.637.637 0 0 0 .262-.266c.052-.107.105-.213.105-.373 0-.107 0-.214-.053-.267 0-.106-.052-.16-.105-.266-.052-.107-.157-.16-.262-.267-.105-.053-.21-.16-.367-.266v-.587c.157-.106.315-.213.42-.32.105-.106.157-.213.21-.266a.686.686 0 0 0 .052-.32c0-.16-.053-.267-.105-.373-.052-.107-.157-.16-.262-.267 0 0-.158-.053-.263-.053v-.48c.21 0 .368.054.525.107.157.053.315.16.472.266.105.107.21.214.315.374.052.16.105.32.105.48 0 .16-.053.32-.105.48-.053.159-.158.266-.262.372-.105.107-.315.213-.473.373.21.16.42.267.577.427.158.16.263.266.315.426.053.16.105.32.105.48a1.6 1.6 0 0 1-.105.533c-.052.16-.157.267-.315.373-.157.107-.314.213-.472.267-.262.053-.472.053-.682.053zm-3.042-.053V1.107h-.63c-.052.106-.157.213-.262.32-.105.106-.314.213-.524.266-.21.053-.472.16-.735.16l.105.533c.158 0 .315-.053.472-.053.158-.054.315-.054.42-.107.105-.053.21-.107.315-.107v3.892h.84zm3.042-4.958v.48a.75.75 0 0 0-.367.107c-.105.053-.157.16-.262.266-.052.107-.105.213-.105.373 0 .107 0 .16.053.267 0 .053.052.16.104.213.053.053.105.16.21.213.105.054.21.16.315.214v.64h-.052c-.158.106-.315.16-.42.266l-.262.266a.41.41 0 0 0-.105.267c.052 0 .052.106.052.16 0 .16.053.266.105.373a.637.637 0 0 0 .262.266.976.976 0 0 0 .42.107h.052v.533c-.21 0-.42-.053-.577-.107a1.01 1.01 0 0 1-.472-.266c-.157-.107-.262-.213-.314-.373-.105-.16-.105-.32-.105-.533a1.6 1.6 0 0 1 .105-.533.828.828 0 0 1 .314-.427c.158-.16.315-.266.577-.426-.21-.107-.367-.267-.472-.373a1.62 1.62 0 0 1-.262-.374c-.052-.16-.105-.266-.105-.48 0-.16.053-.32.105-.479.052-.16.157-.267.315-.373a1.01 1.01 0 0 1 .472-.267c0 .054.21 0 .42 0zM40.075 11.075c-.157.213-.42.32-.84.32-.261 0-.471-.054-.629-.16-.21-.107-.262-.32-.262-.533V8.996h.472v1.706c0 .213.158.373.472.373.158 0 .263 0 .367-.054a.41.41 0 0 0 .105-.266.41.41 0 0 0-.105-.267s-.052-.053-.157-.106c-.052-.054-.105-.107-.105-.16 0-.107.053-.16.158-.213h.839l-.472.16v.053s.052.053.157.106c.105.107.21.214.21.427-.105.106-.105.213-.21.32zm-2.413-.64c-.052.48-.157.8-.367.96h-.525a.946.946 0 0 0 .263-.427c.105-.266.105-.533.105-.853 0-.266 0-.426-.053-.533-.052-.213-.21-.32-.472-.32-.21 0-.367.107-.472.32-.052.107-.052.267-.052.533 0 .587.157 1.013.42 1.28h-.525a3.572 3.572 0 0 1-.315-.64v-.64c0-.373.052-.64.157-.8.158-.266.42-.373.84-.373s.734.107.839.374c.105.16.157.426.157.8.053.053.053.16 0 .319zm4.092-.8v.64c-.315 0-.472.107-.472.373 0 .267.157.427.472.427v.32c-.315 0-.525-.054-.682-.16a.66.66 0 0 1-.263-.533V8.996h.473v1.013l.472-.374zm0 1.76v-.32c.314 0 .472-.107.472-.373 0-.267-.158-.374-.472-.374v-.64l.105-.053h.524l-.42.32c.21.054.42.107.525.214.157.106.21.266.21.48a.78.78 0 0 1-.105.372c-.158.267-.42.374-.84.374zm2.465-1.44v.32c-.315 0-.472.107-.472.373 0 .267.157.373.472.373v.32c-.262 0-.472-.053-.682-.16-.21-.106-.262-.32-.262-.533 0-.213.105-.373.262-.533.21-.106.42-.16.682-.16zm0-1.013v.32c-.105 0-.21.054-.315.107-.105.053-.157.16-.157.213v.213h-.472V9.53c0-.16.105-.32.314-.48.21-.053.42-.107.63-.107zm3.357 2.08c-.105.106-.21.213-.367.266-.158.053-.315.107-.472.107-.263 0-.472-.054-.682-.214-.21-.16-.315-.32-.315-.533 0-.16.053-.32.157-.373h.525a.61.61 0 0 0-.157.427c0 .106.052.213.157.266.105.107.21.107.315.107.105 0 .262-.054.314-.107a.294.294 0 0 0 .158-.266v-1.12c0-.106-.053-.16-.158-.213-.104-.053-.21-.107-.314-.107-.105 0-.21.054-.315.107-.105.053-.157.16-.157.213v.267h-.472v-.267c0-.213.104-.373.314-.48.21-.106.42-.16.63-.16.21 0 .42.054.63.16.209.107.314.267.314.48v1.12c.052.106 0 .213-.105.32zm-3.357.373v-.32c.315 0 .472-.107.472-.373 0-.16-.052-.214-.105-.32-.052-.054-.105-.054-.157-.107h-.158v-.32c.158 0 .315.054.472.107v-.533c0-.053-.052-.16-.157-.213-.105-.054-.21-.054-.262-.054v-.32c.21 0 .42.054.63.16.21.107.314.267.314.427v1.173a1 1 0 0 1-.105.373c-.21.213-.524.32-.944.32zm5.14-2.186v1.12a.96.96 0 0 0-.367.106.294.294 0 0 0-.157.267c0 .106.052.213.157.266a.75.75 0 0 0 .368.107v.32c-.263 0-.473-.054-.682-.214-.21-.16-.315-.32-.315-.533 0-.213.105-.373.262-.48.158-.106.367-.213.63-.213V9.53h-.525c-.105 0-.157-.053-.21-.107-.052-.053-.052-.106-.052-.213v-.213h.472v.213h.42zm2.623 2.186c-.262 0-.472-.054-.682-.214-.21-.16-.314-.32-.314-.533 0-.213.052-.373.21-.426h.576c-.157.106-.21.16-.262.16-.052.053-.052.106-.052.266 0 .107.052.213.157.267.105.106.21.106.315.106.157 0 .314-.053.367-.16a.78.78 0 0 0 .105-.373.61.61 0 0 0-.158-.426c-.052-.053-.157-.16-.367-.213-.21-.107-.315-.16-.367-.267a.488.488 0 0 1-.157-.373v-.267h.577v.214c0 .106.052.213.157.266.105.054.21.107.315.213.21.107.314.214.42.32.104.107.157.267.157.48a.89.89 0 0 1-.263.64c-.157.213-.42.32-.734.32zm-2.623 0v-.32a.961.961 0 0 0 .368-.107.294.294 0 0 0 .157-.266c0-.054 0-.107-.052-.214-.105-.16-.263-.213-.473-.213v-1.12h.368v.8c.21.054.314.16.472.267.105.106.21.266.21.426 0 .16-.053.267-.158.373-.105.107-.21.214-.367.267-.157.053-.315.107-.524.107z" fill="#AA7F4D"/><path d="M46.055 11.181c-.21-.16-.315-.373-.315-.586 0-.213.053-.32.21-.427h.525s.052 0 .052.054v.053a.58.58 0 0 0-.157.373c0 .107.052.16.157.267.105.053.21.106.315.106.105 0 .21-.053.314-.106.105-.054.105-.16.105-.214V9.582c0-.053-.052-.107-.105-.16-.104-.053-.157-.106-.262-.106-.105 0-.157.053-.262.106-.105.053-.105.107-.105.16v.267l-.052.053h-.473l-.052-.053v-.267c0-.213.105-.373.315-.533.21-.107.42-.16.682-.16.262 0 .472.053.682.16.21.107.314.32.314.533v1.12c0 .16-.052.266-.157.373l-.053-.054.053.054c-.105.106-.21.213-.367.266-.158.053-.315.107-.472.107-.472 0-.682-.054-.892-.267zm-.21-.586c0 .213.105.373.262.533.21.16.42.213.63.213a.976.976 0 0 0 .42-.106c.157-.054.262-.16.367-.267.105-.107.105-.213.105-.32v-1.12c0-.16-.105-.319-.263-.426a1.596 1.596 0 0 0-.577-.106c-.21 0-.42.053-.577.16a.44.44 0 0 0-.262.426v.213h.367v-.213c0-.107.053-.213.157-.266.105-.054.21-.107.315-.107.105 0 .21.053.315.107.105.053.157.16.157.266v1.12c0 .106-.052.213-.157.32-.105.106-.21.106-.367.106a.473.473 0 0 1-.367-.16c-.105-.107-.158-.213-.158-.32 0-.16.053-.266.105-.373h-.367c-.053.053-.105.16-.105.32zm-7.239.693c-.21-.16-.314-.32-.314-.587V8.996l.052-.054h.472l.053.054V10.7c0 .214.105.267.42.32.157 0 .262 0 .314-.053.052-.053.105-.107.105-.213 0-.107 0-.16-.053-.213 0 0-.052-.054-.157-.107-.052-.053-.105-.107-.105-.213 0-.107.053-.213.21-.267h.84c.052 0 .052 0 .052.054 0 .053 0 .053-.053.053-.314.106-.472.16-.42.106l.106.107c.157.107.21.267.21.48 0 .16-.053.266-.106.373-.157.266-.472.373-.891.373-.367-.053-.577-.107-.735-.213zm-.21-.587c0 .214.105.32.263.48.157.107.367.16.63.16.366 0 .629-.106.786-.32.053-.106.105-.213.105-.32 0-.213-.052-.32-.157-.373-.105-.053-.158-.106-.158-.16v-.106s.053 0 .105-.053h-.42c-.052.053-.104.106-.104.16 0 .053 0 .053.052.106a.649.649 0 0 1 .157.107.41.41 0 0 1 .105.266c0 .16-.052.267-.105.32-.104.16-.21.16-.367.16-.314 0-.524-.16-.524-.427V9.05h-.367v1.653zm-1.573.747s-.053 0-.053-.054v-.053a.946.946 0 0 0 .263-.426c.105-.267.105-.533.105-.853 0-.267 0-.427-.053-.533-.052-.16-.21-.267-.42-.267s-.314.107-.42.267c-.052.106-.052.266-.052.533 0 .533.105.96.368 1.28v.052l-.053.054h-.577a1.223 1.223 0 0 1-.315-.64c-.052-.213-.052-.426-.052-.693 0-.373.052-.64.157-.853.158-.266.472-.373.892-.373.42 0 .734.107.892.373.105.16.157.48.157.853v.32c-.052.48-.157.8-.42 1.013h-.42zm.472-.107c.157-.16.262-.48.315-.96v-.32c0-.372-.053-.639-.158-.799-.157-.213-.42-.32-.839-.32-.42 0-.682.107-.787.32-.105.16-.157.427-.157.8 0 .213 0 .48.052.64.053.266.158.48.263.586h.42c-.21-.267-.315-.693-.315-1.226 0-.267 0-.427.052-.533.105-.213.262-.373.525-.373.262 0 .42.106.524.373.053.106.053.32.053.533 0 .32-.053.64-.158.906a3.07 3.07 0 0 1-.21.373h.42zm6.924.107c-.262 0-.525-.054-.682-.213-.21-.16-.315-.32-.315-.587 0-.266.105-.426.315-.586.21-.107.42-.213.682-.213.157 0 .262 0 .367.053v-.48c0-.053-.052-.106-.105-.16-.105-.053-.157-.053-.262-.053-.105 0-.157.053-.262.107-.105.053-.105.106-.105.213v.213l-.053.053h-.472l-.052-.053v-.213c0-.213.105-.373.367-.533.21-.107.42-.16.63-.16.21 0 .42.053.629.16.21.106.367.266.367.48v1.172c0 .16-.052.267-.105.373-.21.32-.524.427-.944.427.052 0 0 0 0 0zm.052-.107c.368 0 .577-.106.735-.32.052-.106.105-.213.105-.32V9.53c0-.16-.105-.267-.315-.373-.157-.107-.315-.107-.525-.16v.213c.105 0 .158.053.263.053.105.054.21.16.21.267v.533s0 .053-.053.053h-.052c-.105-.053-.263-.053-.368-.053v.213h.105c.053 0 .105.053.158.107.105.053.157.213.157.32 0 .266-.157.426-.472.426v.213h.052zm-.681-1.12a.562.562 0 0 0-.263.48c0 .214.105.374.263.48.157.107.314.16.577.16v-.213c-.263 0-.473-.16-.473-.427 0-.266.158-.426.473-.426v-.213c-.21-.053-.42.053-.577.16zm.629.107c-.262 0-.367.107-.42.32 0 .213.105.32.42.32.262 0 .367-.107.367-.32a.41.41 0 0 0-.105-.266c-.052-.054-.105-.054-.105-.054.053.054-.052 0-.157 0zm-.577-1.172a.44.44 0 0 0-.262.426v.16h.367v-.16c0-.107.052-.213.157-.266.105-.054.158-.107.263-.107v-.213a1 1 0 0 0-.525.16zm-1.888 2.292c-.315 0-.525-.054-.682-.213-.21-.16-.263-.32-.263-.587V8.996l.053-.054h.472l.052.054v.906l.368-.267.105-.053h.524s.053 0 .053.053v.054l-.368.32c.158.053.315.106.472.213.158.16.21.32.21.533 0 .16-.052.266-.105.373-.21.213-.472.32-.891.32zm-.892-.8c0 .213.052.373.262.48.158.107.315.16.577.16v-.16a.474.474 0 0 1-.472-.48c0-.266.157-.373.472-.426v-.48l-.367.32h-.052l-.053-.053v-.96h-.367v1.6zm.944.693c.367 0 .577-.106.734-.32.053-.106.105-.213.105-.32 0-.16-.052-.32-.21-.426a.795.795 0 0 0-.524-.213s-.052 0-.052-.053v-.054l.314-.32h-.419v.587c.262 0 .472.16.472.426 0 .267-.158.427-.472.427v.266h.052zm-.052-1.013c-.315 0-.368.107-.42.32 0 .267.105.373.42.373.262 0 .367-.106.367-.32 0-.266-.105-.32-.367-.373zm7.606 1.12c-.263 0-.525-.054-.682-.213-.21-.16-.368-.32-.368-.587 0-.213.105-.373.315-.533.158-.106.367-.213.577-.213v-.373h-.472a.397.397 0 0 1-.262-.107c-.053-.053-.053-.16-.053-.213v-.213l.053-.054h.472l.052.054v.106h.735l.052.054v.746c.158.053.315.16.42.266.157.16.21.32.21.48 0 .16-.053.267-.158.427a1.14 1.14 0 0 1-.42.266 1.034 1.034 0 0 1-.471.107zm.052-.107c.157 0 .262-.053.42-.106.157-.054.262-.16.367-.214.105-.106.157-.213.157-.32a.487.487 0 0 0-.157-.373 1.14 1.14 0 0 0-.42-.266l-.052-.053v-.747h-.263v1.013c.158 0 .315.107.42.213.053.054.105.16.105.214 0 .106-.052.213-.21.32-.105.053-.21.106-.315.106v.213h-.052zM48.52 9.21c0 .107 0 .16.053.16 0 .053.052.053.157.053h.525l.052.107v.48l-.052.053c-.21 0-.42.106-.577.213-.158.107-.263.267-.263.426 0 .16.105.32.315.48.157.107.367.16.577.16v-.213c-.105 0-.21-.053-.315-.107-.105-.106-.21-.213-.21-.32 0-.106.053-.213.21-.32.105-.053.21-.106.315-.106V9.262h-.367l-.053-.053v-.107h-.367v.107zm.84 1.812c.104 0 .21-.053.314-.106.105-.054.158-.16.158-.214 0-.053 0-.106-.053-.16a.473.473 0 0 0-.367-.16c-.105 0-.21.054-.315.107-.105.054-.157.16-.157.214 0 .106.052.16.157.213a.398.398 0 0 0 .262.106zm1.94.214c-.21-.16-.314-.374-.314-.587 0-.213.052-.426.262-.48h.577s.052 0 .052.054v.053c-.157.053-.21.16-.21.16s-.052.107-.052.213c0 .107.053.16.157.267.105.053.21.106.315.106.158 0 .262-.053.315-.16.052-.106.105-.213.105-.32a.78.78 0 0 0-.105-.373c-.053-.053-.157-.106-.367-.213-.21-.106-.315-.16-.42-.266a.611.611 0 0 1-.157-.427v-.266l.052-.054h.42l.052.054v.213c0 .107.053.16.158.213.105.053.21.107.314.213.21.107.315.214.42.374.105.16.157.32.157.533 0 .266-.105.48-.262.693-.21.16-.42.266-.734.266-.315-.053-.525-.107-.735-.266zm.682.16v-.054.053zm0-.054a.988.988 0 0 0 .682-.266c.158-.16.262-.32.262-.587 0-.16-.052-.32-.105-.426-.052-.107-.21-.213-.367-.32-.105-.053-.21-.107-.314-.213-.105-.107-.21-.213-.21-.32v-.16h-.367v.213c0 .16.052.267.104.32.053.053.21.107.368.213.21.107.314.16.367.267.105.106.157.266.157.48 0 .16-.052.32-.105.426-.105.107-.262.213-.42.213a.473.473 0 0 1-.367-.16c-.104-.106-.157-.213-.157-.32 0-.106 0-.213.053-.266 0-.053.052-.053.104-.107H51.3c-.105.054-.157.16-.157.374 0 .213.105.373.262.48.158.106.367.16.577.16z" fill="#AA7F4D"/><path fill-rule="evenodd" clip-rule="evenodd" d="M41.754 11.395v-.32.32zm0-1.12v-.64.64zm0 1.12c.367 0 .682-.107.839-.32.052-.107.105-.214.105-.373 0-.214-.053-.32-.21-.48-.157-.107-.315-.213-.525-.213l.42-.427h-.524l-.105.053v.64c.314 0 .472.107.472.373 0 .267-.158.373-.472.373v.374zm2.465-1.44v.32c-.315 0-.472.107-.472.373 0 .267.157.373.472.373v.32c-.262 0-.472-.053-.682-.16-.21-.106-.262-.32-.262-.533 0-.213.105-.373.262-.533.21-.106.42-.16.682-.16zm0-1.013v.32c-.105 0-.21.054-.315.107-.105.053-.157.16-.157.213v.213h-.472V9.53c0-.16.105-.32.314-.48.21-.053.42-.107.63-.107zm3.357 2.08c-.105.106-.21.213-.367.266-.158.053-.315.107-.472.107-.263 0-.472-.054-.682-.214-.21-.16-.315-.32-.315-.533 0-.16.053-.32.157-.373h.525a.61.61 0 0 0-.157.427c0 .106.052.213.157.266.105.107.21.107.315.107.105 0 .262-.054.314-.107a.294.294 0 0 0 .158-.266v-1.12c0-.106-.053-.16-.158-.213-.104-.053-.21-.107-.314-.107-.105 0-.21.054-.315.107-.105.053-.157.16-.157.213v.267h-.472v-.267c0-.213.104-.373.314-.48.21-.106.42-.16.63-.16.21 0 .42.054.63.16.209.107.314.267.314.48v1.12c.052.106 0 .213-.105.32zm-3.357.373c.42 0 .682-.107.84-.374.052-.106.104-.213.104-.373V9.476c0-.16-.105-.32-.315-.427a1.23 1.23 0 0 0-.63-.16v.32c.106 0 .21 0 .263.053.105.054.158.107.158.214v.533c-.158-.054-.263-.107-.473-.107v.32h.158c.052 0 .105.053.157.106.105.054.105.16.105.32 0 .267-.157.373-.472.373v.374h.105zm5.14-2.186v1.12a.96.96 0 0 0-.367.106.294.294 0 0 0-.157.267c0 .106.052.213.157.266.105.053.21.107.368.107v.32c-.263 0-.473-.054-.682-.214-.21-.16-.315-.32-.315-.533 0-.213.105-.373.262-.48.158-.106.367-.213.63-.213V9.53h-.525c-.105 0-.157-.053-.21-.107-.052-.053-.052-.106-.052-.213v-.213h.472v.213h.42zm2.623 2.186c-.262 0-.472-.054-.682-.214-.21-.16-.314-.32-.314-.533 0-.213.052-.373.21-.426h.576c-.157.106-.21.16-.262.16-.052.053-.052.106-.052.266 0 .107.052.213.157.267.105.106.21.106.315.106.157 0 .314-.053.367-.16a.78.78 0 0 0 .105-.373.61.61 0 0 0-.158-.426c-.052-.053-.157-.16-.367-.213-.21-.107-.315-.16-.367-.267a.488.488 0 0 1-.157-.373v-.267h.577v.214c0 .106.052.213.157.266.105.054.21.107.315.213.21.107.314.214.42.32.104.107.157.267.157.48a.89.89 0 0 1-.263.64c-.157.213-.42.32-.734.32zm-2.623 0c.158 0 .315-.054.473-.107.157-.053.262-.16.367-.267a.488.488 0 0 0 .157-.373c0-.16-.052-.32-.21-.426a1.01 1.01 0 0 0-.472-.267v-.8h-.367v1.12c.21 0 .315.053.472.213.053.054.053.107.053.214a.294.294 0 0 1-.158.266c-.105.053-.21.107-.367.107v.32h.053zm-9.284-.32c-.157.213-.42.32-.84.32-.261 0-.471-.054-.629-.16-.21-.107-.262-.32-.262-.533V8.996h.472v1.706c0 .213.158.373.472.373.158 0 .263 0 .367-.054a.41.41 0 0 0 .105-.266.41.41 0 0 0-.105-.267s-.052-.053-.157-.106c-.052-.054-.105-.107-.105-.16 0-.107.053-.16.158-.213h.839l-.472.16v.053s.052.053.157.106c.105.107.21.214.21.427-.105.106-.105.213-.21.32zm1.679-1.44v.64c-.315 0-.472.107-.472.373 0 .267.157.427.472.427v.32c-.315 0-.525-.054-.682-.16a.66.66 0 0 1-.263-.533V8.996h.473v1.013l.472-.374zm-4.092.8c-.052.48-.157.8-.367.96h-.525a.946.946 0 0 0 .263-.427c.105-.266.105-.533.105-.853 0-.266 0-.426-.053-.533-.052-.213-.21-.32-.472-.32-.21 0-.367.107-.472.32-.052.107-.052.267-.052.533 0 .587.157 1.013.42 1.28h-.525a3.572 3.572 0 0 1-.315-.64v-.64c0-.373.052-.64.157-.8.158-.266.42-.373.84-.373s.734.107.839.374c.105.16.157.426.157.8.053.052.053.16 0 .319zM57.437 11.235v-.267h-.63v-.693h.578v-.266h-.577v-.64h.63v-.267h-1.05v2.186h1.05v-.053zm1.47-.64v-.16c0-.053-.053-.107-.053-.16l-.158-.16a1.143 1.143 0 0 0-.262-.16c-.052 0-.105-.053-.157-.106-.053-.054-.105-.054-.105-.107s-.053-.107-.053-.16c0-.053 0-.106.053-.16 0-.053.052-.106.105-.106.052 0 .105-.054.157-.054h.105c.052 0 .105 0 .105.054.052 0 .052.053.105.053l.105-.267c-.053-.053-.105-.053-.21-.106-.105 0-.158-.054-.262-.054-.105 0-.21 0-.263.054-.105.053-.157.106-.21.16-.052.053-.104.106-.104.213-.053.053-.053.16-.053.266v.16c0 .054.053.107.053.16.052.054.052.107.157.16.052.054.105.107.21.107.105.053.157.053.21.106.052.054.104.054.104.107s.053.107.053.16c0 .053 0 .107-.053.16-.052.053-.052.106-.104.106-.053.054-.105.054-.158.054h-.157c-.053 0-.105 0-.105-.054-.053 0-.053-.053-.105-.053l-.157.32c.052 0 .105.053.157.053.052 0 .105.054.157.054h.21c.105 0 .21 0 .262-.054.105-.053.158-.053.21-.16.053-.053.105-.106.158-.213 0 0 .052-.106.052-.213zm1.415-1.28V9.05h-1.206v.267h.42v1.919h.42v-1.92h.366zm1.889 1.92l-.682-2.186h-.367l-.735 2.186h.367l.158-.533h.682l.157.533h.42zm-.63-.8h-.577l.21-.746c0-.107.053-.16.053-.213v-.054.054c0 .053 0 .106.052.213l.262.746zm2.36.213c0-.053 0-.106-.052-.16 0-.053-.052-.106-.105-.16l-.105-.106c-.052-.053-.104-.053-.104-.053-.053 0-.105-.054-.105-.054.052 0 .105-.053.157-.053.052 0 .105-.053.105-.107.052-.053.052-.106.105-.16 0-.053.052-.106.052-.213 0-.106 0-.16-.052-.213l-.158-.16a.397.397 0 0 0-.262-.107c-.105-.053-.21-.053-.315-.053h-.262c-.052 0-.157 0-.21.053-.052 0-.105.054-.157.054v1.972c.052.053.157.053.262.107.105 0 .21.053.367.053.105 0 .21 0 .315-.053.105 0 .21-.054.262-.107.053-.053.105-.107.158-.213.105-.054.105-.16.105-.267zm-.471-1.013c0 .107 0 .16-.053.214-.052.053-.105.106-.157.106-.053.054-.158.054-.315.054h-.105v-.693c.053 0 .105-.054.105-.054h.105c.105 0 .21.054.315.107.105.053.105.16.105.266zm.052 1.013c0 .107 0 .16-.052.213-.053.054-.105.107-.158.107-.052 0-.157.053-.21.053h-.157c-.052 0-.052 0-.105-.053v-.8h.105c.157 0 .262 0 .315.054.105.053.157.106.157.16.105.053.105.16.105.266zm1.784.587v-.267h-.577V9.05h-.42v2.186h.997zm.734-2.186h-.42v2.186h.42V9.049zm1.521 1.546v-.16c0-.053-.052-.107-.052-.16l-.158-.16a1.142 1.142 0 0 0-.262-.16c-.053 0-.105-.053-.157-.106-.053-.054-.105-.054-.105-.107-.053-.053-.053-.107-.053-.16 0-.053 0-.106.053-.16 0-.053.052-.106.105-.106.052 0 .104-.054.157-.054h.105c.052 0 .052 0 .105.054.052 0 .052.053.105.053l.105-.267c-.053-.053-.105-.053-.21-.106-.053 0-.158-.054-.263-.054-.104 0-.21 0-.262.054-.105.053-.157.106-.21.16-.052.053-.104.106-.104.213-.053.053-.053.16-.053.266v.16c0 .054.053.107.053.16l.157.16c.052.054.105.107.21.107.105.053.157.053.21.106.052.054.104.054.104.107s.053.107.053.16c0 .053 0 .107-.053.16-.052.053-.052.106-.104.106-.053.054-.105.054-.158.054h-.157c-.053 0-.105 0-.105-.054-.053 0-.053-.053-.105-.053l-.105.267c.053 0 .105.053.157.053.053 0 .105.053.158.053h.21c.105 0 .21 0 .262-.053.105-.053.157-.053.21-.16a.735.735 0 0 0 .157-.213v-.16zm1.836.64V9.049h-.42v.906h-.682V9.05h-.42v2.186h.42v-.96h.682v.96h.42zm1.469 0v-.267h-.63v-.693h.577v-.266h-.577v-.64h.63v-.267h-1.05v2.186h1.05v-.053zm1.888-1.12c0-.16 0-.32-.052-.426-.053-.107-.105-.267-.158-.373-.052-.107-.157-.16-.262-.214a.976.976 0 0 0-.42-.106c-.105 0-.21 0-.314.053-.105 0-.158.053-.263.107v1.972c.053.053.158.053.263.107.104 0 .21.053.367.053a.976.976 0 0 0 .42-.107c.104-.053.21-.16.262-.213.052-.107.105-.213.157-.373v-.48zm-.367 0c0 .213 0 .373-.053.48-.052.107-.105.213-.157.266-.052.054-.157.107-.315.107h-.21V9.316h.21c.158 0 .315.053.367.213.105.106.158.32.158.586z" fill="#AA7F4D"/><path d="M71.495 11.288a.398.398 0 0 1-.262-.107l-.053-.053V9.156l.053-.054c.052-.053.157-.053.262-.106.105 0 .21-.054.367-.054.158 0 .315.054.42.107.105.053.21.16.315.267a.488.488 0 0 1 .157.373c.052.16.052.32.052.48 0 .16 0 .32-.052.48a2.62 2.62 0 0 1-.157.372.54.54 0 0 1-.315.267.976.976 0 0 1-.42.107c-.157-.054-.262-.054-.367-.107zm0-.107c.105 0 .21.054.367.054.158 0 .263-.054.367-.107.105-.053.21-.107.263-.213l.157-.32c.053-.107.053-.267.053-.426 0-.16 0-.32-.053-.427l-.157-.32c-.053-.106-.158-.16-.263-.213-.104-.053-.262-.053-.367-.053-.105 0-.21 0-.314.053-.105 0-.158.053-.21.053v1.866s.105.053.157.053zm-4.826.16c-.052 0-.105 0-.157-.053-.052 0-.105-.053-.157-.053v-.054l.105-.266s0-.054.052-.054h.053s.052.054.104.054c.053 0 .053 0 .105.053h.158c.052 0 .105 0 .157-.053.053 0 .053-.054.105-.107 0-.053.052-.106.052-.16 0-.053 0-.106-.052-.106 0-.054-.053-.054-.105-.107s-.105-.053-.157-.107c-.105-.053-.158-.106-.21-.106l-.157-.16c-.053-.053-.053-.107-.105-.16v-.16c0-.107 0-.16.052-.266a.735.735 0 0 1 .157-.214c.053-.053.158-.106.21-.16.105-.053.21-.053.315-.053.105 0 .21 0 .315.053.105 0 .157.054.21.107v.053l-.105.267s0 .053-.053.053h-.052s-.053-.053-.105-.053c-.053 0-.053 0-.105-.053h-.105c-.052 0-.105 0-.157.053-.053 0-.053.053-.105.106 0 .054-.053.107-.053.16 0 .054 0 .107.053.107 0 .053.052.053.105.107.052.053.105.053.157.106.105.054.21.107.262.16l.158.16c.052.053.052.107.052.16v.16c0 .106 0 .213-.052.266a.735.735 0 0 1-.158.214c-.052.053-.157.106-.21.16-.104.053-.21.053-.314.053-.105-.107-.21-.107-.263-.107zm-.157-.16c.053 0 .105.054.157.054h.21c.105 0 .158 0 .262-.054.105-.053.158-.053.21-.106.053-.054.105-.107.105-.214.053-.053.053-.16.053-.266v-.16c0-.053-.053-.107-.053-.16-.052-.053-.052-.106-.157-.16a1.142 1.142 0 0 0-.262-.16c-.053-.053-.105-.053-.158-.106-.052-.054-.105-.054-.105-.107-.052-.053-.052-.107-.052-.213 0-.053 0-.16.052-.213.053-.054.053-.107.105-.107.053-.053.105-.053.21-.053h.157c.053 0 .105 0 .105.053h.053l.052-.16c-.052 0-.105-.053-.157-.053-.053 0-.158-.054-.262-.054-.105 0-.158 0-.263.054-.052.053-.105.053-.157.106-.053.054-.105.107-.105.16 0 .054-.052.16-.052.214v.16c0 .053.052.106.052.16.053.053.053.106.105.106.052.053.105.107.21.107.105.053.157.053.21.106.052.054.105.107.105.16.052.053.052.107.052.16 0 .053 0 .16-.052.213l-.158.16c-.052.053-.157.053-.21.053h-.157c-.052 0-.105 0-.105-.053h-.052l-.053.16c.053.16.053.16.105.213zm-3.777.107a.397.397 0 0 1-.262-.107l-.052-.053V9.156l.052-.054c.053-.053.105-.053.157-.053.053 0 .158-.053.21-.053h.262c.158 0 .263 0 .368.053.105.053.21.053.262.107a.735.735 0 0 1 .157.213c.053.053.053.16.053.266 0 .107 0 .16-.053.214-.052.053-.052.106-.105.16-.052.053-.105.106-.157.106.052 0 .105.054.105.054.052.053.105.053.105.106.052.053.052.107.105.16 0 .053.052.107.052.213 0 .107 0 .213-.052.32a.413.413 0 0 1-.21.213c-.105.054-.157.107-.262.107-.105 0-.21.053-.367.053-.105 0-.263 0-.368-.053zm.053-.107c.105 0 .21.054.367.054.105 0 .21 0 .315-.054.105 0 .157-.053.262-.106l.157-.16c.053-.054.053-.16.053-.267 0-.053 0-.106-.053-.16 0-.053-.052-.106-.052-.106l-.105-.107c-.053-.053-.053-.053-.105-.053s-.052-.053-.105-.053l-.052-.054v-.053c.052 0 .105 0 .105-.053.052 0 .104-.054.104-.107l.105-.107c0-.053.053-.106.053-.16 0-.053 0-.16-.053-.213-.052-.053-.052-.106-.104-.16-.053-.053-.105-.106-.21-.106-.105-.054-.21-.054-.315-.054h-.262c-.053 0-.158 0-.21.054-.053 0-.105.053-.105.053v1.919c.052 0 .105.053.21.053zm-4.826.16c-.052 0-.105 0-.157-.053-.053 0-.105-.053-.158-.053v-.054l.105-.266s0-.054.053-.054h.052s.053.054.105.054.052 0 .105.053h.157c.053 0 .105 0 .158-.053.052 0 .052-.054.105-.107 0-.053.052-.106.052-.16 0-.053 0-.106-.052-.106 0-.054-.053-.054-.105-.107-.053-.053-.105-.053-.158-.107-.105-.053-.157-.106-.21-.106l-.157-.16c-.052-.053-.052-.107-.052-.16v-.16c0-.107 0-.16.052-.266a.735.735 0 0 1 .157-.214c.053-.053.158-.106.21-.16.105-.053.21-.053.263-.053.104 0 .21 0 .314.053.105 0 .158.054.21.107v.053l-.105.267s0 .053-.052.053H58.8s-.052-.053-.105-.053c-.052 0-.052 0-.105-.053h-.104c-.053 0-.105 0-.158.053-.052 0-.052.053-.105.106 0 .054-.052.107-.052.16 0 .054 0 .107.052.107 0 .053.053.053.105.107.053.053.105.053.158.106.104.054.21.107.262.16l.157.16c.053.053.053.107.053.16v.16c0 .106 0 .213-.053.266-.052.107-.105.16-.157.214-.053.053-.158.106-.21.16-.105.053-.21.053-.315.053-.105-.107-.21-.107-.262-.107zm-.157-.16c.052 0 .105.054.157.054h.21c.105 0 .157 0 .262-.054.053-.053.157-.053.21-.106.052-.054.105-.107.105-.214.052-.053.052-.16.052-.266v-.16c0-.053 0-.107-.052-.16-.053-.053-.053-.106-.158-.16a1.143 1.143 0 0 0-.262-.16c-.052-.053-.105-.053-.157-.106-.053-.054-.105-.054-.105-.107-.053-.053-.053-.107-.053-.213 0-.053 0-.16.053-.213.052-.054.052-.107.105-.107.052-.053.105-.053.21-.053h.157c.052 0 .105 0 .105.053h.052l.053-.16c-.053 0-.105-.053-.158-.053-.052 0-.157-.054-.262-.054-.105 0-.157 0-.262.054-.053.053-.157.053-.157.106-.053.054-.105.107-.105.16 0 .054-.053.16-.053.214v.16c0 .053.053.106.053.16.052.053.052.106.105.106.052.053.104.107.21.107.104.053.157.053.21.106.052.054.104.107.104.16.053.053.053.107.053.16 0 .053 0 .16-.053.213l-.157.16c-.053.053-.158.053-.21.053h-.157c-.053 0-.105 0-.105-.053h-.053l-.052.16c.052.16.105.16.105.213zm12.064.107l-.052-.053V9.049l.052-.053h1.05l.052.053v.267l-.053.053h-.63v.533h.525l.053.053v.267l-.053.053h-.524v.586h.577l.052.054v.266l-.052.054h-.997v.053zm.997-.053v-.054.054zm-.944-.054h.944v-.16h-.577l-.053-.053v-.693l.053-.053h.524v-.16h-.524l-.053-.053v-.64l.053-.053h.577v-.16h-.944v2.025zm-.892.107l-.053-.053v-.907H68.4v.907l-.052.053h-.42l-.052-.053V9.049l.052-.053h.42l.052.053v.853h.577v-.853l.053-.053h.42l.052.053v2.186l-.052.053h-.42zm.367-.053v-.054.054zm-.367-1.013l.052.053v.906h.263V9.102h-.263v.853l-.052.054h-.682l-.053-.054v-.853h-.262v2.08h.262v-.907l.053-.053h.682zm-3.41 1.066l-.052-.053V9.049l.052-.053h.42v.053-.053l.052.053v2.186l-.052.053h-.42zm.053-.107h.262V9.102h-.262v2.08zm-1.364.107l-.053-.053V9.049l.053-.053h.42l.052.053v1.866h.525l.052.053v.267l-.052.053h-.997zm.997-.053v-.054.054zm-.945-.054h.892v-.16h-.524l-.053-.053V9.102h-.262v2.08h-.053zm-2.517.107l-.053-.053-.157-.533h-.63l-.157.533-.052.053h-.42v-.053l.734-2.186.053-.053h.367l.052.053.682 2.186h-.052v-.054.054h.052v.053h-.419zm-.21-.64l.052.054.158.533h.262l-.682-2.08h-.315l-.682 2.08h.21l.158-.533.052-.054h.787zm-2.098.64l-.053-.053V9.369h-.367l-.052-.053v-.267l.052-.053h1.206l.053.053v.267l-.053.053h-.367v1.866l-.052.053h-.367zm-.368-2.026h.368l.052.054v1.865h.262V9.316l.053-.054h.367v-.16h-1.102v.16zm1.154.054v-.054.054zm-3.934 1.972l-.052-.053V9.049l.052-.053h1.05l.052.053v.267l-.053.053h-.577v.533h.525l.052.053v.267l-.052.053h-.525v.586h.577l.053.054v.266l-.053.054h-1.049v.053zm1.05-.053v-.054.054zm-.997-.054h.944v-.16h-.577l-.052-.053v-.693l.052-.053h.525v-.16h-.525l-.052-.053v-.64l.052-.053h.577v-.16h-.944v2.025zm6.504-.106c-.052 0-.105 0-.105-.054l-.052-.053v-.8l.052-.053h.158c.104 0 .21 0 .314.054.105.053.158.106.21.16.053.106.053.16.053.266 0 .107 0 .213-.053.266l-.157.16c-.053.054-.158.054-.263.054h-.157zm.053-.107h.104c.105 0 .158 0 .21-.053.053 0 .105-.054.105-.107.053-.053.053-.106.053-.213s0-.16-.053-.213c-.052-.054-.105-.107-.157-.107-.053 0-.158-.053-.262-.053h-.105v.693c.052.053.052.053.105.053zm8.707.053H71.6l-.052-.053V9.316l.052-.054c.053 0 .105 0 .105-.053h.105c.21 0 .367.053.42.213.104.16.157.373.157.64 0 .213 0 .373-.053.48-.052.16-.104.266-.157.32-.105.053-.21.106-.315.106-.052.107-.157.053-.157.053zm0-.106h.157c.105 0 .21-.054.263-.054.052-.053.104-.16.157-.266.052-.107.052-.267.052-.48 0-.266-.052-.48-.105-.586-.104-.107-.157-.16-.367-.16h-.105-.052v1.546zm-10.648-.427c-.053 0-.053 0 0 0l-.053-.053.21-.746c.053-.107.053-.16.053-.16 0-.053 0-.107.052-.107l.053.054v.106c0 .053 0 .107.052.16l.21.746h-.053v-.053.053h.053v.054H61.057v-.054zm.262-.8l-.21.694h.42l-.21-.693zm1.679.374h-.105l-.053-.053v-.693l.053-.054c.052 0 .105-.053.105-.053h.157c.157 0 .262.053.315.107.105.053.105.16.105.32 0 .106 0 .16-.053.266-.052.053-.105.107-.21.16h-.314zm-.053-.107h.105c.105 0 .21 0 .262-.053.053 0 .105-.053.105-.107 0-.053.053-.106.053-.213 0-.106-.053-.16-.053-.213-.052-.053-.157-.053-.262-.053h-.157v.64h-.053z" fill="#AA7F4D"/><path fill-rule="evenodd" clip-rule="evenodd" d="M72.02 11.288v-.267c.052 0 .105-.053.157-.053.053-.053.105-.16.157-.266.053-.107.053-.267.053-.48 0-.267-.053-.48-.105-.64-.053-.106-.157-.16-.21-.16v-.266c.105 0 .157.053.262.053.105.053.21.107.263.213.052.107.105.213.157.373.052.16.052.267.052.427 0 .16 0 .32-.052.426-.052.16-.105.267-.157.373-.053.107-.158.16-.263.214-.157 0-.21 0-.314.053zm0-2.239v.267h-.263-.104v1.652h.367v.267h-.158c-.157 0-.262 0-.367-.054a.397.397 0 0 1-.262-.106V9.102c.052-.053.157-.053.262-.106.105 0 .21-.054.315-.054.105.107.157.107.21.107zm-8.865 2.239v-.267c.052 0 .105 0 .157-.053.053 0 .105-.053.158-.107.052-.053.052-.106.052-.213 0-.106 0-.16-.052-.266l-.158-.16c-.052 0-.105 0-.157-.053v-.214c.052 0 .052 0 .105-.053.052-.053.105-.053.157-.107.053-.053.053-.106.053-.213a.41.41 0 0 0-.105-.266c-.053-.054-.105-.054-.21-.107v-.213c.105 0 .21 0 .262.053.105.053.158.053.262.107l.158.16c.052.053.052.16.052.213 0 .053 0 .16-.052.213 0 .053-.053.107-.105.16-.053.053-.105.053-.105.107-.052 0-.105.053-.157.053.052 0 .105 0 .105.053.052 0 .104.054.104.054.053.053.105.053.105.106.053.053.053.107.105.16 0 .053.053.107.053.16 0 .107 0 .213-.053.266-.052.054-.105.16-.157.214a.397.397 0 0 1-.262.106c-.105.054-.21.107-.315.107zm2.15-.053v-.267h-.576V9.05h-.42v2.186h.997zm.735-2.186h-.42v2.186h.42V9.049zm1.521 1.546v-.16c0-.053-.052-.107-.052-.16l-.158-.16a1.142 1.142 0 0 0-.262-.16c-.053 0-.105-.053-.157-.106-.053-.054-.105-.054-.105-.107-.053-.053-.053-.107-.053-.16 0-.053 0-.106.053-.16 0-.053.052-.106.105-.106.052 0 .104-.054.157-.054h.105c.052 0 .105 0 .105.054.052 0 .052.053.105.053l.105-.267c-.053-.053-.105-.053-.21-.106-.053 0-.158-.054-.263-.054-.104 0-.21 0-.262.054-.105.053-.157.106-.21.16-.052.053-.104.106-.104.213-.053.053-.053.16-.053.266v.16c0 .054.053.107.053.16l.157.16c.052.054.105.107.21.107.105.053.157.053.21.106.052.054.104.054.104.107s.053.107.053.16c0 .053 0 .107-.053.16-.052.053-.052.106-.104.106-.053.054-.105.054-.158.054h-.157c-.053 0-.105 0-.105-.054-.053 0-.053-.053-.105-.053l-.105.267c.053 0 .105.053.157.053.053 0 .105.053.158.053h.21c.105 0 .21 0 .262-.053.105-.053.157-.053.21-.16a.735.735 0 0 0 .157-.213v-.16zm1.836.64V9.049h-.42v.906h-.682V9.05h-.42v2.186h.42v-.96h.682v.96h.42zm1.469 0v-.267h-.63v-.693h.577v-.266h-.577v-.64h.63v-.267h-1.05v2.186h1.05v-.053zm-7.711-2.186v.213h-.157s-.053 0-.105.054v.693h.315v.213h-.315v.8c.052 0 .052 0 .105.053h.209v.266h-.052c-.157 0-.262 0-.367-.053a.397.397 0 0 1-.263-.107V9.21c.053 0 .105-.053.158-.053.052 0 .105-.054.21-.054h.262c-.053-.053 0-.053 0-.053zm-1.836 1.653v-.214h.262l-.21-.746c0-.107-.052-.16-.052-.213v-.427h.21l.682 2.186h-.42l-.157-.533h-.315v-.053zm-3.882.533v-.267h-.63v-.693h.578v-.266h-.577v-.64h.63v-.267h-1.05v2.186h1.05v-.053zm3.882-2.186v.427c0 .053 0 .106-.052.213l-.21.746h.262v.213h-.367l-.158.533h-.367l.735-2.185h.157v.053zm-2.413 1.546v-.16c0-.053-.052-.107-.052-.16l-.158-.16a1.143 1.143 0 0 0-.262-.16c-.052 0-.105-.053-.157-.106-.053-.054-.105-.054-.105-.107s-.053-.107-.053-.16c0-.053 0-.106.053-.16 0-.053.052-.106.105-.106.052 0 .105-.054.157-.054h.105c.052 0 .052 0 .105.054.052 0 .052.053.105.053l.105-.267c-.053-.053-.105-.053-.21-.106-.105 0-.158-.054-.262-.054-.105 0-.21 0-.263.054-.105.053-.157.106-.21.16-.052.053-.104.106-.104.213-.053.053-.053.16-.053.266v.16c0 .054.053.107.053.16.052.054.052.107.157.16.052.054.105.107.21.107.105.053.157.053.21.106.052.054.104.054.104.107s.053.107.053.16c0 .053 0 .107-.053.16-.052.053-.052.106-.104.106-.053.054-.105.054-.158.054h-.157c-.053 0-.105 0-.105-.054-.053 0-.053-.053-.105-.053l-.157.32c.052 0 .105.053.157.053.052 0 .105.054.157.054h.21c.105 0 .21 0 .262-.054.105-.053.158-.053.21-.16.053-.053.105-.106.158-.213 0 0 .052-.106.052-.213zm1.416-1.28V9.05h-1.206v.267h.42v1.919h.42v-1.92h.366z" fill="#AA7F4D"/><path d="M55.234 10.009h-1.259v.266h1.26v-.266z" fill="#AA7F4D"/><path d="M53.975 10.328l-.052-.053v-.266l.052-.054h1.26l.052.054v.266l-.053.053h-1.259zm.053-.106h1.154v-.16h-1.154v.16z" fill="#AA7F4D"/><path d="M55.234 10.009h-1.259v.266h1.26v-.266z" fill="#AA7F4D"/><path fill-rule="evenodd" clip-rule="evenodd" d="M68.558 36.714v-5.117c.996 0 1.468-.213 1.468-1.28V22.43c0-1.066-.472-1.28-1.468-1.28v-5.117c4.039 0 6.924 2.239 6.924 6.503v7.623c0 4.317-2.885 6.556-6.924 6.556zm28.535-20.309h5.508v19.883h-5.508V16.405zm-10.858 7.783c1.573-2.719 4.144-7.25 4.144-7.25l.314-.533h4.669v19.883h-5.403v-8.529c-1.574 2.665-2.832 4.85-2.832 4.85l-.84 1.493-.891-1.439s-1.417-2.345-3.043-5.01v8.635H76.95V16.405h3.987c.84 0 1.416 1.226 1.836 1.866.63 1.013 1.206 2.025 1.836 3.038.472.96 1.049 1.92 1.626 2.879zM51.72 36.235l.052.053h-6.294l-.262-.64s-.997-2.292-1.836-4.21V24.72h.052c1.102 0 1.416-.747 1.416-1.76 0-1.065-.314-1.705-1.416-1.705h-.052v-4.85h.42c2.937 0 5.56 1.652 6.241 4.637.263 1.066.21 2.931-.052 3.998-.367 1.386-1.05 2.505-2.15 3.304.891 1.813 2.622 5.331 3.094 6.237v-3.518l1.102.107c.577.053 1.154.106 1.73.106.263 0 .787 0 .945-.266.315-.32.315-1.386.315-1.813v-7.942h-2.57v-4.85h8.077v12.579c0 4.798-1.888 7.516-6.871 7.516-.577 0-1.26-.106-1.941-.266zm16.838-20.203v5.117c-.997 0-1.469.213-1.469 1.28v7.889c0 1.066.472 1.28 1.469 1.28v5.116c-4.04 0-6.924-2.239-6.924-6.503v-7.676c0-4.264 2.885-6.503 6.924-6.503zM43.38 31.437l-.787-1.759h-.734v6.61h-5.456V16.405h6.924v4.85H41.86v3.519h1.468v6.663h.053zm-15.212 5.277v-5.117c.997 0 1.469-.213 1.469-1.28V22.43c0-1.066-.472-1.28-1.469-1.28v-5.117c4.039 0 6.924 2.239 6.924 6.503v7.623c0 4.317-2.885 6.556-6.924 6.556zm0-20.682v5.117c-.997 0-1.469.213-1.469 1.28v7.889c0 1.066.472 1.28 1.469 1.28v5.116c-4.039 0-6.924-2.239-6.924-6.503v-7.676c0-4.264 2.885-6.503 6.924-6.503zm-14.95 20.256V31.49h.578c1.049-.053 1.206-.64 1.206-1.652 0-1.226-.42-1.76-1.626-1.76h-.157v-4.903h.157c.105 0 .262 0 .367-.053.262-.16.262-.747.262-1.013 0-.48-.052-1.226-.682-1.226h-.157v-4.798c3.357 0 6.295 1.653 6.295 5.384 0 1.44-.315 2.719-1.154 3.785 1.363 1.013 2.15 2.612 2.15 4.424 0 4.424-2.99 6.61-7.134 6.61h-.104zm0-20.203v4.798h-1.783v2.292h1.784v4.904h-1.784v3.411h1.784v4.798H5.927V16.085h7.292z" fill="#AA7F4D"/><path fill-rule="evenodd" clip-rule="evenodd" d="M98.3 35.062h3.042V17.684H98.3v17.378zm-29.742.373v-2.612c1.678 0 2.728-.746 2.728-2.505v-7.89c0-1.812-.997-2.505-2.728-2.505v-2.612c3.357 0 5.665 1.653 5.665 5.224v7.623c0 3.625-2.308 5.277-5.665 5.277zm12.274-17.75h-2.675v17.377h2.937V23.175l.42.693c1.888 3.145 4.04 6.716 4.669 7.836.629-1.066 2.622-4.531 4.51-7.783l.42-.746v11.887h2.938V17.684h-2.728c-.524.907-3.882 6.823-4.93 8.636l-.21.32-.21-.32c-.892-1.44-1.679-2.932-2.57-4.371-.263-.587-2.099-3.785-2.57-4.265zm-12.274-.374v2.612c-1.679 0-2.728.747-2.728 2.506v7.889c0 1.812.997 2.505 2.728 2.505v2.612c-3.357 0-5.665-1.652-5.665-5.277v-7.623c-.053-3.571 2.308-5.224 5.665-5.224zM43.38 28.4V26h.052c1.784 0 2.675-1.28 2.675-3.038 0-1.76-.839-2.985-2.675-2.985h-.052v-2.293h.42c2.36 0 4.458 1.28 5.088 3.678.21.853.157 2.506-.053 3.412-.315 1.386-1.101 2.399-2.36 2.985l-.21.107.105.213c1.154 2.292 2.308 4.638 3.462 6.983h-3.515c-.944-2.186-1.888-4.318-2.78-6.503l-.157-.16zm15.946-10.715h-5.613v2.346h2.57v9.168c0 1.92-.314 3.305-2.517 3.305-.525 0-1.05-.053-1.574-.053v2.612c.525.106 1.05.213 1.574.213 4.301 0 5.612-2.132 5.612-6.237v-.479-1.386-4.211c-.052-1.813-.052-3.572-.052-5.278zm-15.946 0v2.293h-2.728V26h2.728v2.399h-2.728v6.61h-2.99V17.684h5.718zM28.168 35.435v-2.612c1.679 0 2.728-.746 2.728-2.505v-7.89c0-1.812-.997-2.505-2.728-2.505v-2.612c3.357 0 5.665 1.653 5.665 5.224v7.623c0 3.625-2.308 5.277-5.665 5.277zm0-18.124v2.612c-1.678 0-2.728.747-2.728 2.506v7.889c0 1.812.997 2.505 2.728 2.505v2.612c-3.357 0-5.665-1.652-5.665-5.277v-7.623c-.052-3.571 2.308-5.224 5.665-5.224zm-14.95 17.75V32.77h.63c1.731-.054 2.413-1.226 2.413-2.879 0-1.919-.944-2.985-2.833-2.985h-.157v-2.452h.157c.368 0 .682-.053.997-.213.734-.426.892-1.333.892-2.079 0-1.226-.472-2.505-1.889-2.505h-.157v-2.292c2.675 0 5.088 1.119 5.088 4.157 0 1.44-.367 2.719-1.469 3.678-.052.054-.157.107-.21.214l-.262.213.315.16c.105.053.21.106.262.106 1.522.747 2.36 2.133 2.36 3.838 0 3.732-2.465 5.384-5.927 5.384h-.21v-.053zm0-17.696v2.292H10.229V24.454H13.219v2.399H10.229V32.77H13.219v2.292H7.135V17.365h6.085z" fill="#fff"/><path fill-rule="evenodd" clip-rule="evenodd" d="M98.09 35.275h3.514V17.418H98.09v17.857zm-29.532.373v-3.091c1.678 0 2.465-.747 2.465-2.293V22.43c0-1.546-.787-2.292-2.465-2.292v-3.092c3.776 0 5.927 2.025 5.927 5.49v7.623c0 3.518-2.15 5.49-5.927 5.49zm17.677-9.435c.367-.693 5.035-8.742 5.035-8.742h3.095v17.857h-3.41v-11.3c-.734 1.28-4.668 8.102-4.668 8.102s-4.144-6.876-4.878-8.155v11.3h-3.41V17.418h2.938c.262 0 4.72 7.836 5.298 8.795zm-17.677-9.168v3.092c-1.679 0-2.466.746-2.466 2.292v7.889c0 1.546.787 2.292 2.466 2.292v3.038c-3.777 0-5.928-1.972-5.928-5.49v-7.623c0-3.465 2.151-5.49 5.928-5.49zM43.38 28.879v-3.145h.052c1.574 0 2.413-1.013 2.413-2.772 0-1.76-.892-2.772-2.413-2.772h-.052v-2.772h.42c2.307 0 4.668 1.226 5.297 3.838.21.906.158 2.612-.052 3.518-.367 1.493-1.207 2.559-2.518 3.145.21.427 3.62 7.303 3.62 7.303h-4.04c0 .053-2.203-5.117-2.727-6.343zM59.588 17.47v11.514c0 4.265-1.416 6.503-5.822 6.503-.63 0-1.26-.106-1.784-.266v-3.039s1.102.107 1.784.107c1.94 0 2.308-1.066 2.308-3.092v-8.955h-2.57v-2.772h6.084zm-16.208-.053v2.772h-2.466v5.544h2.466v3.145l-.105-.267h-2.36v6.61h-3.463V17.418H43.38zm-15.212 18.23v-3.091c1.678 0 2.465-.747 2.465-2.293V22.43c0-1.546-.787-2.292-2.465-2.292v-3.092c3.777 0 5.927 2.025 5.927 5.49v7.623c0 3.518-2.15 5.49-5.927 5.49zm0-18.603v3.092c-1.679 0-2.465.746-2.465 2.292v7.889c0 1.546.786 2.292 2.465 2.292v3.038c-3.777 0-5.927-1.972-5.927-5.49v-7.623c0-3.465 2.15-5.49 5.927-5.49zm-15.474 18.23v-2.772h1.101c1.47-.106 2.204-.96 2.204-2.665 0-1.759-.84-2.772-2.623-2.772h-.682v-2.878h.63c.367 0 .629-.054.891-.213.525-.32.787-.907.787-1.866 0-1.386-.577-2.239-1.679-2.239h-.63v-2.772h.525c3.358 0 5.298 1.653 5.298 4.371 0 2.186-.891 3.252-1.52 3.838-.106.053-.158.16-.21.213.104.054.21.107.262.107.944.48 2.465 1.6 2.465 4.051 0 3.572-2.256 5.597-6.137 5.597h-.682zm0-18.177v2.772h-2.308v4.371h2.308v2.879h-2.308v5.437h2.308v2.771H6.924v-18.23h5.77z" fill="#001F3B"/></svg>