<svg width="126" height="30" fill="none" xmlns="http://www.w3.org/2000/svg"><path d="M4.502 0h3.514L6.478 5.846c.44-.386.934-.772 1.538-1.048.549-.331 1.208-.441 1.866-.441 1.098 0 2.032.33 2.69.992.66.662.989 1.544.989 2.647 0 .331-.055.717-.11 1.158-.11.386-.165.828-.274 1.214l-1.812 6.728H7.85l1.812-6.894c.055-.165.11-.386.11-.551 0-.166.054-.386.054-.552 0-.496-.164-.882-.439-1.158-.274-.276-.713-.386-1.263-.386-.713 0-1.262.22-1.701.717a4.454 4.454 0 0 0-.989 1.82L3.514 17.04H0L4.502 0zM16.36 17.04c-.438-.165-.823-.386-1.152-.716-.33-.276-.55-.662-.769-1.048a3.627 3.627 0 0 1-.274-1.379c0-.717.165-1.379.439-1.93a4.157 4.157 0 0 1 1.153-1.434c.494-.386 1.043-.662 1.702-.882.659-.22 1.372-.276 2.141-.276.659 0 1.318.055 1.867.165.549.11 1.098.221 1.647.386l.055-.165c.055-.165.055-.276.11-.441.054-.166.054-.331.054-.496 0-.442-.164-.773-.494-1.048-.33-.276-.933-.386-1.811-.386-.604 0-1.208.055-1.757.22a5.602 5.602 0 0 0-1.538.497l-.549-2.813a12.168 12.168 0 0 1 2.142-.662c.658-.165 1.482-.22 2.36-.22 1.702 0 2.965.33 3.789.992.823.662 1.262 1.6 1.262 2.868 0 .33 0 .662-.055.938a5.79 5.79 0 0 1-.22.937l-1.81 6.893h-3.405l.384-1.433c-.494.551-1.043.937-1.647 1.268a4.972 4.972 0 0 1-2.031.441c-.659-.055-1.153-.11-1.592-.276zm4.064-2.37c.329-.111.658-.332.933-.552.274-.221.494-.497.714-.828.22-.33.33-.606.439-.992l.11-.331c-.33-.11-.66-.22-1.043-.331-.385-.11-.824-.11-1.263-.11-.769 0-1.373.165-1.812.551-.44.386-.714.827-.714 1.434 0 .386.165.717.44.938.274.22.713.386 1.207.386.275 0 .66-.056.989-.166zM32.337 0h3.514l-4.557 17.04H27.78L32.337 0zM38.87 0h3.514l-4.502 17.04H34.37L38.87 0zM45.294 16.875c-.714-.276-1.372-.662-1.867-1.213-.494-.552-.933-1.103-1.207-1.82a6.435 6.435 0 0 1-.44-2.316c0-.938.165-1.82.55-2.702.384-.883.878-1.655 1.537-2.317a7.529 7.529 0 0 1 2.306-1.599 6.906 6.906 0 0 1 2.8-.606c.933 0 1.756.165 2.47.44.714.276 1.373.662 1.867 1.214a5.271 5.271 0 0 1 1.208 1.82c.274.717.439 1.489.439 2.316 0 .937-.165 1.82-.55 2.702-.383.883-.878 1.655-1.536 2.316a7.527 7.527 0 0 1-2.306 1.6 6.906 6.906 0 0 1-2.8.606 6.811 6.811 0 0 1-2.47-.441zm4.118-2.978a5 5 0 0 0 1.153-.993c.33-.386.549-.827.713-1.323.165-.496.275-.938.275-1.434 0-.937-.275-1.654-.769-2.15-.494-.497-1.153-.718-1.976-.718-.55 0-1.043.11-1.482.386a5 5 0 0 0-1.153.993c-.33.386-.55.827-.714 1.324-.165.496-.275.937-.275 1.378 0 .938.275 1.655.769 2.151.494.496 1.153.717 1.976.717a2.281 2.281 0 0 0 1.483-.33zM57.318 4.301h4.94l-.054 5.13 2.91-5.185h4.227l.165 5.24L72.25 4.3h5.106l-7.302 12.85h-4.337l-.22-5.46-3.184 5.46h-4.447l-.55-12.85zM78.51 4.301h5.27l-3.403 12.74h-5.271L78.51 4.3zM79.608 0h5.435l-.933 3.364h-5.435L79.608 0zM87.13 0h5.27l-4.557 17.04h-5.27L87.128 0zM91.247 11.691h5.38l-1.427 5.35h-5.38l1.427-5.35zM97.945 11.912c0-4.412 3.404-7.886 7.796-7.886 3.075 0 5.051 1.764 5.545 4.136l-4.172 1.654c-.22-.992-.769-1.544-1.647-1.544-1.538 0-2.47 1.654-2.47 3.199 0 .937.603 1.544 1.427 1.544.768 0 1.317-.331 1.921-1.048l3.569 2.371c-1.263 1.82-3.075 3.033-5.985 3.033-3.458 0-5.984-2.04-5.984-5.46zM114.855 0h5.27l-1.537 5.9c.824-1.047 2.196-1.874 3.788-1.874 2.306 0 3.624 1.544 3.624 3.915 0 .662-.11 1.379-.33 2.15l-1.866 7.005h-5.27l1.701-6.342c.11-.331.165-.717.165-.938 0-.662-.33-1.103-1.098-1.103-1.043 0-1.592.717-1.976 2.096l-1.702 6.342h-5.271L114.855 0zM26.353 22.445h.988l2.086 4.356 1.153-4.356h1.043l-1.647 6.121h-.878L26.957 24.1l-1.153 4.522h-1.098l1.647-6.176zM32.941 27.518c.22.221.494.331.879.331.22 0 .439-.055.604-.11.164-.055.384-.165.549-.33l.494.66c-.22.166-.494.332-.769.442-.274.11-.549.165-.988.165-.33 0-.604-.055-.879-.165-.274-.11-.494-.22-.658-.386a1.984 1.984 0 0 1-.44-.662 2.221 2.221 0 0 1-.164-.827c0-.33.055-.662.22-.993.109-.33.329-.661.548-.882.22-.276.55-.496.879-.662.33-.165.713-.22 1.098-.22.274 0 .549.055.768.165.22.11.44.22.55.386.11.166.274.331.384.552.055.22.11.44.11.717 0 .165 0 .33-.055.496l-.165.496h-3.35c.056.331.166.607.385.827zm2.196-1.544c.055-.11.055-.22.055-.33 0-.221-.055-.442-.22-.607-.164-.166-.384-.276-.713-.276-.385 0-.659.11-.934.33-.274.222-.439.497-.549.883h2.361zM36.894 23.989h1.098l.11 3.143 1.867-3.198h.878l.165 3.198 1.811-3.143h1.044l-2.746 4.687h-.933l-.165-3.143-1.866 3.143h-.934l-.329-4.687zM44.086 28.511a1.849 1.849 0 0 1-.933-.607l.604-.661c.22.22.494.44.769.496.274.11.494.165.713.165.22 0 .385-.055.55-.165.164-.11.219-.22.219-.386 0-.11-.055-.22-.165-.276-.11-.11-.274-.165-.494-.276-.165-.055-.384-.165-.549-.22a1.195 1.195 0 0 1-.44-.276c-.109-.11-.219-.22-.274-.33a1.043 1.043 0 0 1-.11-.442c0-.22.055-.441.11-.607.11-.165.22-.33.385-.496.164-.165.33-.22.549-.33.22-.056.494-.111.768-.111.385 0 .714.055 1.043.22.33.11.55.276.77.442l-.605.661c-.44-.33-.823-.496-1.263-.496a.925.925 0 0 0-.549.166.502.502 0 0 0-.164.386c0 .11.055.22.164.33.11.11.275.166.55.276.164.055.329.166.494.22.164.056.274.166.384.277.11.11.22.22.274.33.055.11.11.276.11.442 0 .22-.055.44-.165.661-.11.22-.22.331-.384.497-.165.11-.384.22-.604.33-.165-.055-.439-.055-.714-.055-.329 0-.713-.055-1.043-.165zM50.675 28.346c-.275-.276-.385-.607-.385-.993 0-.11 0-.276.055-.386.055-.166.055-.276.11-.441l.659-2.537h1.043l-.714 2.592c0 .055-.055.165-.055.22v.221c0 .22.055.441.22.551.11.11.33.166.604.166.274 0 .549-.11.769-.331.22-.22.384-.496.494-.827l.713-2.592h1.043l-1.207 4.632H52.98l.164-.606c-.164.165-.384.33-.604.496-.22.165-.549.165-.878.165-.384 0-.769-.11-.988-.33zM55.89 28.511a1.849 1.849 0 0 1-.933-.607l.604-.661c.22.22.494.44.768.496.275.11.494.165.714.165.22 0 .384-.055.55-.165.164-.11.219-.22.219-.386 0-.11-.055-.22-.165-.276-.11-.11-.275-.165-.494-.276-.165-.055-.384-.165-.55-.22a1.195 1.195 0 0 1-.438-.276c-.11-.11-.22-.22-.275-.33a1.043 1.043 0 0 1-.11-.442c0-.22.055-.441.11-.607.11-.165.22-.33.384-.496.165-.165.33-.22.55-.33.22-.056.494-.111.768-.111.384 0 .714.055 1.043.22.33.11.55.276.769.442l-.604.661c-.44-.33-.824-.496-1.263-.496a.925.925 0 0 0-.549.166.502.502 0 0 0-.165.386c0 .11.055.22.165.33.11.11.275.166.55.276.164.055.329.166.493.22.165.056.275.166.385.277.11.11.22.22.274.33.055.11.11.276.11.442 0 .22-.055.44-.165.661-.11.22-.22.331-.384.497-.165.11-.384.22-.604.33a3.2 3.2 0 0 1-.714.11c-.274-.165-.659-.22-1.043-.33zM62.973 23.989h1.043l-.165.607c.165-.166.384-.331.604-.497.22-.165.44-.22.769-.22s.604.11.823.275c.22.166.33.386.44.662.219-.276.439-.496.713-.662a1.89 1.89 0 0 1 .988-.275c.44 0 .769.11.989.386.274.275.384.606.384.992 0 .11 0 .276-.055.386-.055.166-.055.276-.11.442l-.659 2.536h-1.043l.714-2.592c0-.055.055-.165.055-.22v-.22c0-.221-.055-.442-.22-.552-.11-.11-.33-.166-.549-.166-.274 0-.549.11-.768.331a1.52 1.52 0 0 0-.44.827l-.713 2.592H64.73l.713-2.592c0-.055.055-.165.055-.22v-.22c0-.221-.055-.442-.22-.552-.11-.11-.329-.166-.548-.166-.275 0-.55.11-.77.331a1.52 1.52 0 0 0-.438.827l-.714 2.592h-1.043l1.208-4.632zM71.153 23.99h1.043l-1.263 4.631H69.89l1.263-4.632zm.44-1.766h1.152l-.274.993h-1.153l.274-.993zM73.459 23.989h1.043l-.165.607c.165-.166.384-.331.604-.497.22-.165.494-.22.769-.22.439 0 .768.11 1.043.386.274.275.384.606.384.992 0 .11 0 .276-.055.386-.055.166-.055.276-.11.442l-.658 2.536H75.27l.658-2.592c0-.055.055-.165.055-.22v-.22c0-.221-.055-.442-.22-.552-.164-.11-.329-.166-.603-.166-.275 0-.55.11-.769.331-.22.22-.384.497-.494.827l-.714 2.592h-1.043l1.318-4.632zM79.059 27.518c.22.221.494.331.878.331.22 0 .44-.055.604-.11.165-.055.384-.165.55-.33l.493.66c-.22.166-.494.332-.768.442-.275.11-.604.165-1.044.165-.329 0-.603-.055-.878-.165-.274-.11-.494-.22-.659-.386a1.984 1.984 0 0 1-.439-.662 2.221 2.221 0 0 1-.165-.827c0-.33.055-.662.22-.993.11-.33.33-.661.549-.882.22-.276.549-.496.878-.662.33-.165.714-.22 1.098-.22.275 0 .55.055.769.165.22.11.44.22.549.386.11.166.275.331.384.552.055.22.11.44.11.717 0 .165 0 .33-.055.496l-.164.496h-3.35c.165.331.22.607.44.827zm2.196-1.544c.055-.11.055-.22.055-.33 0-.221-.055-.442-.22-.607-.165-.166-.384-.276-.714-.276-.384 0-.658.11-.933.33-.274.222-.44.497-.549.883h2.36zM83.726 23.989h1.043l-.275 1.048c.275-.386.55-.662.824-.883.33-.22.659-.275 1.098-.275l-.275 1.103h-.055c-.22 0-.439.055-.658.11-.22.055-.385.165-.604.33-.165.166-.33.332-.495.607-.164.221-.274.497-.329.828l-.44 1.71h-1.042l1.208-4.578zM87.514 27.518c.22.221.494.331.878.331.22 0 .44-.055.604-.11.165-.055.384-.165.55-.33l.493.66c-.22.166-.494.332-.768.442-.275.11-.604.165-1.044.165-.329 0-.603-.055-.878-.165-.274-.11-.494-.22-.659-.386a1.984 1.984 0 0 1-.439-.662 2.221 2.221 0 0 1-.165-.827c0-.33.055-.662.22-.993.11-.33.33-.661.549-.882.22-.276.549-.496.878-.662.33-.165.714-.22 1.098-.22.275 0 .55.055.769.165.22.11.44.22.549.386.11.166.275.331.384.552.055.22.11.44.11.717 0 .165 0 .33-.055.496l-.164.496h-3.35c.11.331.22.607.44.827zm2.196-1.544c.055-.11.055-.22.055-.33 0-.221-.055-.442-.22-.607-.165-.166-.384-.276-.714-.276-.384 0-.658.11-.933.33-.274.222-.44.497-.549.883h2.36zM95.145 22.445h2.196c.494 0 .934.055 1.263.22.33.166.549.386.714.662.11.166.164.386.22.607.054.22 0 .44-.056.662a1.706 1.706 0 0 1-.604 1.102 2.93 2.93 0 0 1-1.317.607l1.153 2.261h-1.208l-1.043-2.15H95.2l-.549 2.15h-1.098l1.592-6.121zm1.647 3.033c.44 0 .824-.055 1.098-.22.275-.166.494-.387.494-.662a.706.706 0 0 0 0-.662c-.055-.166-.164-.276-.384-.386-.165-.11-.44-.11-.769-.11h-1.317l-.55 2.04h1.428zM101.13 27.518c.219.221.493.331.878.331.22 0 .439-.055.604-.11.164-.055.384-.165.549-.33l.494.66c-.22.166-.494.332-.769.442-.274.11-.604.165-1.043.165-.33 0-.604-.055-.878-.165-.275-.11-.494-.22-.66-.386a1.984 1.984 0 0 1-.438-.662 2.221 2.221 0 0 1-.165-.827c0-.33.055-.662.22-.993.11-.33.329-.661.549-.882.22-.276.549-.496.878-.662.33-.165.714-.22 1.098-.22.275 0 .549.055.769.165.22.11.439.22.549.386.11.166.274.331.384.552.055.22.11.44.11.717 0 .165 0 .33-.055.496l-.165.496h-3.349c.165.331.275.607.44.827zm2.25-1.544c.055-.11.055-.22.055-.33 0-.221-.055-.442-.22-.607-.164-.166-.384-.276-.713-.276-.384 0-.659.11-.933.33-.275.222-.44.497-.55.883h2.361zM105.357 29.835a2.632 2.632 0 0 1-1.043-.497l.604-.717c.22.166.494.331.823.442.275.11.604.165.934.165.274 0 .494-.055.659-.11.164-.055.329-.166.494-.331.11-.11.22-.276.274-.386.055-.166.165-.331.22-.552l.055-.275c-.22.22-.494.386-.714.496-.22.11-.549.165-.878.165-.22 0-.44-.055-.66-.11a1.138 1.138 0 0 1-.548-.33 1.98 1.98 0 0 1-.385-.552 1.532 1.532 0 0 1-.164-.717c0-.386.055-.717.22-1.048.164-.33.329-.607.548-.827.22-.22.494-.441.824-.552.33-.11.604-.22.933-.22.22 0 .385 0 .55.055.164.055.329.11.438.22.11.11.22.166.33.276.11.11.165.22.22.331l.22-.827h1.042l-.988 3.805c-.055.22-.11.386-.165.551-.055.166-.11.276-.164.442-.055.165-.11.22-.22.33-.055.11-.165.166-.22.276-.22.22-.494.386-.768.497-.275.11-.66.165-1.043.165-.55 0-.989-.055-1.428-.165zm2.36-2.592c.22-.11.385-.22.495-.331.165-.166.275-.331.33-.497.11-.165.11-.386.11-.606 0-.276-.11-.552-.275-.717-.22-.22-.494-.276-.824-.276-.22 0-.384.055-.604.11l-.494.331c-.165.11-.274.331-.33.497-.109.22-.109.386-.109.606 0 .331.11.607.33.772.219.166.439.221.768.221.22 0 .44-.055.604-.11zM111.506 23.99h1.043l-1.263 4.631h-1.043l1.263-4.632zm.439-1.766h1.153l-.275.993h-1.153l.275-.993zM114.14 28.566a1.974 1.974 0 0 1-.658-.441c-.165-.165-.33-.441-.44-.662-.11-.22-.164-.551-.164-.827 0-.33.055-.717.22-.993.164-.33.329-.606.549-.882.22-.276.549-.441.878-.607.33-.165.659-.22 1.043-.22.33 0 .604.055.879.165.274.11.494.276.658.441.165.166.33.442.44.662.11.22.164.552.164.827 0 .331-.055.717-.22.993-.164.276-.329.607-.603.882-.22.276-.55.442-.879.607-.329.165-.658.22-1.043.22-.22-.055-.549-.055-.823-.165zm1.593-.937c.165-.11.384-.22.494-.386.165-.166.275-.331.33-.552.054-.22.11-.441.11-.606 0-.386-.11-.717-.33-.883-.22-.22-.494-.33-.879-.33-.22 0-.439.054-.604.165-.164.11-.384.22-.494.386-.11.165-.274.33-.33.551-.054.22-.109.441-.109.607 0 .386.11.717.33.882.22.166.494.331.878.331.22 0 .44-.055.604-.165zM119.248 23.989h1.043l-.165.607a5.84 5.84 0 0 1 .604-.497c.22-.165.494-.22.769-.22.439 0 .768.11 1.043.386.274.275.384.606.384.992 0 .11 0 .276-.055.386-.055.166-.055.276-.11.442l-.658 2.536h-1.044l.66-2.592c0-.055.054-.165.054-.22v-.22c0-.221-.055-.442-.22-.552-.164-.11-.329-.166-.603-.166-.275 0-.55.11-.769.331-.22.22-.384.497-.494.827l-.714 2.592h-1.043l1.318-4.632z" fill="#020202"/></svg>