<svg width="110" height="29" fill="none" xmlns="http://www.w3.org/2000/svg"><path d="M0 2.182h6.672l3.916 7.72L16.098 0l6.141 9.8 4.15-7.618h6.837l-11.12 19.266h-1.46L15.5 12.419l-4.946 8.525L0 2.182zM30.504 10.27v7.72s2.39 4.196 8.995 4.264c6.838.067 8.83-4.263 8.83-4.263V2.215h-5.112v13.057s-.498 2.719-3.784 2.719c-2.954 0-3.42-2.719-3.42-2.719V2.182h-1.128l-4.381 8.089zM90.98 2.182h6.108v13.56h8.365l-2.855 5.706h-7.833l-3.784-6.21V2.182z" fill="#005F9C"/><path d="M48.262 23.16l-2.29 4.397H13.277s-1.76-.47-1.76-2.25c0-1.711 1.76-2.147 1.76-2.147h34.985z" fill="#00B15E"/><path fill-rule="evenodd" clip-rule="evenodd" d="M105.718 4.397h.697c.332 0 .565-.067.698-.168a.48.48 0 0 0 .199-.403c0-.1-.034-.201-.1-.302a.413.413 0 0 0-.265-.201c-.1-.034-.3-.067-.598-.067h-.664v1.141h.033zm-.597 2.081V2.786h1.261c.432 0 .73.033.93.1.199.068.332.202.464.336.1.168.166.336.166.537 0 .269-.1.504-.298.705-.2.202-.432.302-.764.336.133.067.233.134.299.201.133.134.332.37.531.739l.431.704h-.73l-.332-.57c-.265-.47-.464-.739-.63-.84-.1-.1-.266-.134-.465-.134h-.332v1.578h-.531zm1.494-4.733c-.465 0-.93.135-1.394.37a2.883 2.883 0 0 0-1.063 1.04c-.265.47-.365.94-.365 1.41 0 .503.133.973.365 1.41.266.436.598.805 1.063 1.04.431.269.929.37 1.394.37.498 0 .962-.135 1.394-.37.431-.268.796-.604 1.029-1.04.232-.437.365-.94.365-1.41a2.97 2.97 0 0 0-.365-1.41c-.266-.47-.598-.805-1.062-1.04a2.524 2.524 0 0 0-1.361-.37zm0-.57a3.32 3.32 0 0 1 1.66.436c.53.302.962.705 1.26 1.276a3.486 3.486 0 0 1 .034 3.423c-.299.537-.697.974-1.262 1.276a3.354 3.354 0 0 1-1.692.436 3.354 3.354 0 0 1-1.693-.436 3.308 3.308 0 0 1-1.262-1.276 3.451 3.451 0 0 1-.431-1.712c0-.604.166-1.174.465-1.711a3.32 3.32 0 0 1 2.92-1.712zM74.65 2.182h7.335l11.02 19.3h-6.107l-2.224-4.532H72.891l-2.457 4.028-3.319-5.303L74.65 2.182zM78.5 7.35l-3.253 5.034h6.705L78.5 7.351z" fill="#005F9C"/><path d="M64.792 25.744c0-1.812 1.46-3.256 3.22-3.256 1.792 0 3.22 1.477 3.22 3.256 0 1.813-1.461 3.256-3.22 3.256-1.793 0-3.22-1.477-3.22-3.256z" fill="#E8313F"/><path d="M64.493 25.744c0-1.947 1.56-3.558 3.519-3.558.763 0 1.427.235 1.991.638L63.73 12.385l5.51-10.203h-6.97l-3.32 6.31-3.253-6.31h-7.07l6.207 11.479-7.335 13.996h6.173l5.477-10.069 5.344 8.56c.033-.169 0-.27 0-.404z" fill="#005F9C"/><path d="M99.843 23.16H70.401a3.618 3.618 0 0 1 1.096 2.584c0 .671-.2 1.276-.498 1.813h28.844s1.76-.47 1.76-2.25c0-1.711-1.76-2.147-1.76-2.147z" fill="#00B15E"/></svg>