<svg width="40" height="41" fill="none" xmlns="http://www.w3.org/2000/svg"><path fill-rule="evenodd" clip-rule="evenodd" d="M4.096 23.41l5.45-.011c1.18.012 1.825.555 1.862 1.69l.049 13.654c.012 1.258-.767 1.751-1.862 1.751l-5.39.013c-1.204.012-1.922-.568-1.922-1.74l-.049-13.642c0-1.147.609-1.714 1.862-1.714zM6.772.704C5.994 0 5.166.086 4.254 1.011l-3.65 4.01c-.791.875-.815 1.714-.012 2.54l18.883 17.54c.851.79 1.727.604 2.494-.272l3.674-4.144c.84-.937.828-1.826.037-2.59L6.772.703z" fill="#EF3B24"/><path fill-rule="evenodd" clip-rule="evenodd" d="M31.8 0h6.326C39.234.012 39.988.506 40 1.714v37.608C40 40.383 39.331 41 38.14 41h-5.427c-1.107 0-1.873-.518-1.886-1.678V17.614c-.024-.962.037-1.727-.73-2.418l-5.438-5.143c-.779-.654-1.07-1.518-.292-2.566L30.182.74c.377-.481.9-.728 1.618-.74z" fill="#EF3B24"/></svg>