<svg width="126" height="34" fill="none" xmlns="http://www.w3.org/2000/svg"><path d="M24.772 28.927v2.483c.338-.54.788-.648 1.126-.648 1.014 0 1.577.755 1.577 1.619 0 .971-.676 1.619-1.577 1.619-.45 0-.9-.216-1.126-.648v.54h-.45v-4.965h.45zm2.252 3.454c0-.864-.563-1.295-1.126-1.295-.675 0-1.126.647-1.126 1.295 0 .756.45 1.295 1.126 1.295.676 0 1.126-.432 1.126-1.295zM31.078 33.136c-.225.432-.676.864-1.351.864-1.126 0-1.577-.864-1.577-1.62 0-.755.45-1.618 1.577-1.618 1.126 0 1.35.971 1.35 1.403v.216h-2.476c0 .647.45 1.187 1.126 1.187.338 0 .788-.108 1.126-.755l.225.323zm-.338-.971c0-.54-.45-.971-1.013-.971-.676 0-1.014.431-1.126.971h2.14zM34.456 33.784a2.195 2.195 0 0 1-.901.216c-.9 0-1.802-.54-1.802-1.62 0-.863.676-1.618 1.802-1.618.563 0 .788.108.9.216v.431c-.337-.215-.675-.323-.9-.323-.788 0-1.351.54-1.351 1.295 0 .647.45 1.295 1.238 1.295.45 0 .789-.216 1.014-.324v.432zM37.721 30.978h.338v2.914h-.338v-.54c-.225.432-.675.648-1.126.648-.9 0-1.576-.648-1.576-1.62 0-.863.563-1.618 1.576-1.618.338 0 .788.108 1.126.647v-.431zm0 1.403c0-.648-.338-1.295-1.126-1.295-.788 0-1.126.647-1.126 1.295 0 .755.45 1.295 1.126 1.295.563 0 1.126-.432 1.126-1.295zM39.523 30.978v1.727c0 .323.112.971.9.971.789 0 .901-.648.901-.971v-1.727h.338v1.727c0 1.187-.788 1.295-1.238 1.295-.45 0-1.24-.108-1.24-1.295v-1.727h.339zM42.788 33.136c.113.324.338.54.788.54s.676-.216.676-.54c0-.431-.45-.54-.676-.647-.45-.108-.9-.324-.9-.864 0-.431.337-.863 1.013-.863.338 0 .676.108.9.647l-.337.108c-.113-.216-.338-.431-.676-.431-.337 0-.563.215-.563.431 0 .324.226.432.563.54.45.108 1.014.324 1.014.971 0 .432-.338.972-1.126.972-.225 0-.788 0-1.126-.756l.45-.108zM48.193 33.136c-.225.432-.676.864-1.464.864-1.126 0-1.576-.864-1.576-1.62 0-.755.45-1.618 1.576-1.618 1.126 0 1.464.971 1.464 1.403v.216h-2.477c0 .647.45 1.187 1.126 1.187.338 0 .788-.108 1.126-.755l.225.323zm-.45-.971c0-.54-.45-.971-1.014-.971-.675 0-1.013.431-1.126.971h2.14zM52.472 34l-1.351-3.022h.45l.9 2.158 1.014-2.374 1.014 2.374.9-2.158h.45L54.5 34l-1.014-2.483L52.472 34zM59.228 33.136c-.225.432-.676.864-1.351.864-1.126 0-1.577-.864-1.577-1.62 0-.755.45-1.618 1.577-1.618 1.126 0 1.35.971 1.35 1.403v.216h-2.476c0 .647.45 1.187 1.126 1.187.338 0 .788-.108 1.126-.755l.225.323zm-.45-.971c0-.54-.45-.971-1.014-.971-.675 0-1.013.431-1.126.971h2.14zM64.97 33.784a2.195 2.195 0 0 1-.9.216c-.901 0-1.802-.54-1.802-1.62 0-.863.676-1.618 1.802-1.618.563 0 .788.108.9.216v.431c-.337-.215-.675-.323-.9-.323-.788 0-1.351.54-1.351 1.295 0 .647.45 1.295 1.238 1.295.45 0 .788-.216 1.014-.324v.432zM68.236 30.978h.45v2.914h-.45v-.54c-.225.432-.676.648-1.126.648-.901 0-1.577-.648-1.577-1.62 0-.863.563-1.618 1.577-1.618.338 0 .788.108 1.126.647v-.431zm0 1.403c0-.648-.338-1.295-1.126-1.295-.788 0-1.126.647-1.126 1.295 0 .755.45 1.295 1.126 1.295.563 0 1.126-.432 1.126-1.295zM69.7 30.978h.45v.647c.338-.54.563-.647.901-.647.113 0 .225 0 .338.108l-.113.216h-.337c-.45 0-.789.647-.789 1.079v1.511h-.45v-2.914zM74.767 33.136c-.225.432-.676.864-1.351.864-1.127 0-1.577-.864-1.577-1.62 0-.755.45-1.618 1.577-1.618 1.126 0 1.35.971 1.35 1.403v.216H72.29c0 .647.45 1.187 1.127 1.187.337 0 .788-.108 1.126-.755l.225.323zm-.45-.971c0-.54-.451-.971-1.014-.971-.676 0-1.013.431-1.126.971h2.14z" fill="#001D41"/><path d="M2.477 2.483L0 3.67V1.08L2.477 0v2.483zM4.166 4.317L0 6.152V3.67l4.166-1.835v2.482zM8.332 4.965L0 8.635V6.153l8.332-3.67v2.482z" fill="#00A8EA"/><path d="M6.306 8.42L0 11.224v-2.59l6.306-2.806v2.59z" fill="#00A8EA"/><path d="M15.764 6.692l-9.458 4.21V8.419l9.458-4.317v2.59z" fill="#00CB3E"/><path d="M13.062 10.47L0 16.298v-2.59l13.062-5.829v2.59z" fill="#00A8EA"/><path d="M6.981 15.65L0 18.78v-2.482l6.981-3.13v2.483z" fill="#00A8EA"/><path d="M14.075 15.003L4.28 19.428v-2.59l9.796-4.425v2.59z" fill="#FFA800"/><path d="M14.075 17.486L0 23.854v-2.59l14.075-6.26v2.482z" fill="#00A8EA"/><path d="M21.169 14.356L16.89 16.19v-2.482l4.279-1.943v2.59zM18.58 20.508l-6.644 3.022v-2.59l6.643-2.915v2.483z" fill="#00CB3E"/><path d="M16.89 18.78L2.14 25.366v-2.483l14.75-6.692v2.59z" fill="#FFA800"/><path d="M10.021 26.876L0 31.41v-2.59l10.021-4.425v2.482z" fill="#00A8EA"/><path d="M16.89 23.854l-6.869 3.022v-2.483l6.87-3.13v2.59zM12.274 28.387L0 33.892V31.41l12.274-5.505v2.482zM10.472 31.733l-4.166 1.835v-2.482l4.166-1.835v2.482z" fill="#FFA800"/><path d="M26.461 8.743V20.4h-2.027V8.743h-3.152V6.8h8.445v1.835H26.46v.108zM29.389 12.089h2.027v.755c.337-.323.675-.647 1.013-.755.338-.108.676-.216 1.013-.216.563 0 1.126.216 1.69.54l-1.014 1.619c-.338-.216-.788-.432-1.126-.432-1.126 0-1.69.756-1.69 2.375v4.317h-2.026v-8.203h.113zM37.383 12.089h-2.026V20.4h2.026v-8.311zM45.265 9.175h2.027V20.4h-2.027v-.864c-.788.756-1.689 1.08-2.702 1.08-1.239 0-2.14-.432-2.928-1.295-.788-.864-1.126-1.943-1.126-3.13 0-1.296.338-2.267 1.126-3.13a3.861 3.861 0 0 1 2.928-1.296c1.013 0 1.914.432 2.702 1.187V9.175zm-4.841 7.015c0 .756.225 1.404.675 1.943.45.54 1.014.756 1.69.756.787 0 1.35-.216 1.8-.756.451-.54.676-1.187.676-1.943 0-.755-.225-1.403-.675-1.942-.45-.54-1.014-.756-1.802-.756-.675 0-1.238.216-1.689.756-.338.54-.675 1.187-.675 1.942zM56.638 16.622h-6.193c0 .648.338 1.188.676 1.62.45.431.9.647 1.576.647.45 0 .9-.108 1.239-.324.338-.216.675-.648 1.126-1.295l1.689.863c-.225.432-.563.756-.788 1.08-.338.324-.563.54-.901.755-.338.216-.676.324-1.126.432-.338.108-.788.108-1.239.108-1.351 0-2.364-.432-3.153-1.187-.788-.756-1.126-1.835-1.126-3.238 0-1.296.338-2.375 1.126-3.238.789-.756 1.802-1.188 3.04-1.188 1.24 0 2.253.432 3.04 1.188.789.755 1.127 1.834 1.127 3.238l-.113.54zm-2.027-1.51c-.225-1.08-.9-1.512-2.026-1.512-.226 0-.45 0-.676.108-.225.108-.45.216-.563.324-.225.108-.338.324-.45.432l-.338.647h4.053zM57.764 12.089h2.027v.755c.676-.647 1.464-.971 2.365-.971 1.013 0 1.801.324 2.364.863.45.54.676 1.404.676 2.591V20.4h-2.027v-4.641c0-.864-.113-1.403-.338-1.727-.225-.324-.675-.432-1.238-.432-.676 0-1.126.216-1.464.648-.225.431-.45 1.187-.45 2.158V20.4h-2.027v-8.311h.112zM69.024 13.816V20.4h-2.027v-6.584h-.9V11.98h.9V8.959h2.027v3.022h1.577v1.835h-1.577zM82.311 8.743h-5.517v3.346h5.405v1.835h-5.405v4.64h5.517V20.4h-7.657V6.8h7.657v1.943zM83.55 12.089h2.027v.755c.675-.647 1.463-.971 2.364-.971 1.014 0 1.802.324 2.365.863.45.54.788 1.404.788 2.591V20.4h-2.027v-4.641c0-.864-.112-1.403-.338-1.727-.225-.324-.675-.432-1.238-.432-.676 0-1.126.216-1.464.648-.225.431-.45 1.187-.45 2.158V20.4H83.55v-8.311zM100.327 16.622h-6.193c0 .648.338 1.188.676 1.62.45.431.9.647 1.576.647.45 0 .901-.108 1.239-.324.338-.216.675-.648 1.126-1.295l1.689.863c-.225.432-.563.756-.788 1.08-.338.324-.563.54-.901.755-.338.216-.676.324-1.126.432-.338.108-.788.108-1.239.108-1.351 0-2.364-.432-3.153-1.187-.788-.756-1.126-1.835-1.126-3.238 0-1.296.338-2.375 1.126-3.238.789-.756 1.802-1.188 3.04-1.188 1.24 0 2.253.432 3.04 1.188.789.755 1.127 1.834 1.127 3.238l-.113.54zm-2.027-1.51c-.225-1.08-.9-1.512-2.026-1.512-.226 0-.45 0-.676.108-.225.108-.45.216-.563.324-.225.108-.338.324-.45.432l-.338.647H98.3zM101.453 12.089h2.027v.755c.338-.323.675-.647 1.013-.755.338-.108.676-.216 1.014-.216.563 0 1.126.216 1.689.54l-.901 1.619c-.338-.216-.788-.432-1.126-.432-1.126 0-1.69.756-1.69 2.375v4.317h-2.026v-8.203zM115.64 20.184v1.08c0 .323-.112.54-.112.755-.113.648-.45 1.187-.788 1.62-.789.863-1.915 1.294-3.266 1.294-1.126 0-2.14-.324-2.815-.863-.788-.648-1.238-1.511-1.351-2.59h1.914c.113.431.225.755.338.97.45.54 1.013.756 1.802.756 1.463 0 2.252-.863 2.252-2.59v-1.187c-.789.755-1.69 1.187-2.815 1.187-1.239 0-2.14-.432-2.928-1.187-.788-.864-1.126-1.835-1.126-3.13 0-1.188.338-2.267 1.013-3.13.789-.864 1.802-1.404 3.04-1.404 1.127 0 2.027.432 2.703 1.187v-.971h2.027v8.203h.112zm-1.914-3.994c0-.755-.225-1.403-.675-1.942-.45-.54-1.014-.756-1.802-.756s-1.351.324-1.802.864c-.45.431-.563 1.079-.563 1.834 0 .756.226 1.404.563 1.835.45.54 1.014.756 1.802.756s1.351-.216 1.802-.756c.45-.431.675-1.079.675-1.835zM120.145 18.781l-3.941-6.8h2.365l2.702 4.75 2.477-4.75H126l-6.981 12.844h-2.252l3.378-6.044z" fill="#001D41"/><path d="M38.397 10.038l-3.04 1.295V8.851l3.04-1.403v2.59z" fill="#00CB3E"/></svg>