<svg width="106" height="57" fill="none" xmlns="http://www.w3.org/2000/svg"><path d="M43.633 24.944h9.293v2.519H47.16v2.766h5.318v2.519H47.16v3.013h5.964v2.519h-9.492V24.944zM59.336 24.944h3.529v5.087h5.416v-5.087h3.529V38.23H68.28v-5.68h-5.416v5.68h-3.529V24.944zM83.24 24.944h-5.666l-3.528 10.768h9.045l.795 2.518h3.876L83.24 24.944zm-4.97 8.298l2.137-6.718 2.087 6.718H78.27zM40.651 24.944h-3.528v10.768h3.528V24.944zM37.122 35.712h-5.416V24.944h-3.529V38.23h8.945v-2.52z" fill="#6EC4E9"/><path d="M83.09 43.713h6.113c.646 0 2.286.05 3.38 1.037.645.593.944 1.383.944 2.371 0 .939-.299 1.531-.547 1.877-.447.593-1.143.988-1.789 1.186v.049c1.093.148 2.684.84 2.684 3.013 0 1.63-.845 2.47-1.442 2.865-1.093.79-2.783.889-3.776.889H83.04V43.713h.05zm3.53 5.236h.993c.547 0 1.292 0 1.789-.395.398-.247.547-.593.547-1.038 0-.345-.1-.691-.398-.938-.298-.247-.795-.395-1.74-.395H86.57v2.766h.05zm0 5.532h1.192c.596 0 1.44-.099 1.888-.395a1.31 1.31 0 0 0 .597-1.136c0-.593-.249-1.087-.845-1.334-.2-.099-.646-.247-1.79-.247H86.57v3.112h.05zM75.686 43.713h3.528V57h-3.528V43.713zM73.201 38.23h3.628l-1.044 3.112h-3.628l1.044-3.111z" fill="#4F7F70"/><path d="M38.315 38.23h3.628l-1.044 3.112h-3.627l1.043-3.111zM1.391 24.944h4.82l-1.39 4.149H0l1.391-4.15zM8.945 16.646l-2.733 8.298h9.59l2.784-8.298H8.945z" fill="#6EC4E9"/><path d="M21.32 8.298l-2.734 8.348h9.591l2.783-8.348h-9.64z" fill="#4F7F70"/><path d="M24.102 0L21.32 8.298h9.641L33.693 0h-9.59zM30.96 8.298l-2.783 8.348h9.641l2.733-8.348h-9.59z" fill="#6EC4E9"/><path d="M33.693 0L30.96 8.298h9.591L43.334 0h-9.64zM79.115 38.23h3.628l-1.044 3.112h-3.628l1.044-3.111z" fill="#4F7F70"/><path d="M92.234 24.944v10.768h3.38V24.944h3.478v10.768h3.38V24.944H106V38.23H88.706V24.944h3.528z" fill="#6EC4E9"/><path d="M52.578 49.542c1.292-.741 3.28-2.371 3.578-5.829h-3.479c-.199 2.124-1.59 4.594-4.323 4.594v-4.594h-3.529V57h3.529v-5.78c2.733 0 4.472 2.125 4.87 5.78h3.578c-.497-4.347-2.584-6.57-4.224-7.458zM67.983 43.713l-5.168 8.348.05-3.705v-4.643h-3.529V57h3.827l5.218-8.446-.1 3.704V57h3.578V43.713h-3.876z" fill="#4F7F70"/></svg>