<svg width="105" height="57" fill="none" xmlns="http://www.w3.org/2000/svg"><path fill-rule="evenodd" clip-rule="evenodd" d="M96.215 21.087c.07-.173.133-.351.19-.534.279-.897.39-1.793.432-2.623.791-.775 1.912-2.202 1.912-4.491 0-2.006-.849-3.782-2.337-5.011.03-.24.043-.482.043-.73 0-3.916-3.846-5.017-5.118-5.378a3.509 3.509 0 0 0-.175-.051C90.544 1.468 89.174 0 86.757 0c-2.22 0-4.151 1.194-5.276 3.16-1.293.02-2.428.46-3.38 1.303-.032.006-.063.012-.09.019-1.71.365-6.248 1.339-6.248 5.765 0 .915.214 1.778.615 2.54a7.379 7.379 0 0 0-.92 4.295 5.664 5.664 0 0 0-2.398-.535c-1.324 0-2.612.483-3.641 1.296a6.998 6.998 0 0 0-1.46-1.21c-1.367-.865-3.128-1.38-4.71-1.38-3.596 0-6.767 1.542-8.89 4.15-1.785-3.53-4.65-3.915-5.818-3.915-.11 0-.223.002-.334.007-2.416.129-4.212 1.466-5.353 3.974-.438-.4-.94-.728-1.48-.966-1.121-1.845-3.326-2.986-5.912-2.986-3.778 0-6.969 1.755-8.931 4.716-1.777-2.14-3.91-2.517-5.193-2.517-2.398 0-4.395 1.278-5.478 3.351-.75-.4-1.682-.683-2.836-.683-2.933 0-5.308 2.22-6.192 5.786l-.066.258C1.964 29.596.62 34.9.62 38.218c0 3.173 2.49 5.659 5.67 5.659 2.687 0 5.082-2.037 5.629-4.575 1.035.6 2.06.767 2.884.767a5.303 5.303 0 0 0 3.583-1.396 5.497 5.497 0 0 0 3.529 1.282c2.027 0 3.632-.956 4.63-2.271a9.282 9.282 0 0 0 3.554.693 9.955 9.955 0 0 0 4.383-1.016 5.235 5.235 0 0 0 3.615 1.208c2.473-.133 4.544-1.58 6.189-4.314 1.1 1.57 2.901 2.555 4.83 2.555a5.39 5.39 0 0 0 2.764-.75c1.508.99 3.305 1.521 5.217 1.521 2.276 0 4.388-.631 6.17-1.816a4.974 4.974 0 0 0 3.819 1.772c1.31 0 2.525-.487 3.462-1.292.891 1.022 1.771 1.875 2.517 2.427l.034.023c.882.626 2.078 1 3.202 1 .65 0 1.29-.115 1.894-.343.463.175.946.285 1.436.324.872.878 2.324 1.728 4.682 1.728 1.299 0 2.753-.288 4.217-.818a5.422 5.422 0 0 0 4.937 3.117c2.316 0 4.349-1.45 5.303-3.78l.054-.136c.346-.94 2.205-7.525 2.205-10.252 0-3.556-1.91-6.75-4.814-8.448z" fill="#98CAE7"/><path fill-rule="evenodd" clip-rule="evenodd" d="M92.532 21.69c.667-.477 1.176-1.21 1.473-2.162.298-.957.352-1.986.358-2.961.058-.054.136-.12.2-.173.589-.507 1.688-1.452 1.688-3.342 0-1.841-1.03-3.307-2.691-4.063a3.6 3.6 0 0 0 .398-1.676c0-2.31-2.326-2.974-3.576-3.332-.286-.082-.704-.201-.896-.285-.057-.07-.123-.162-.192-.257-.397-.551-1.223-1.697-2.921-1.697-1.928 0-3.405 1.315-3.967 3.365a3.5 3.5 0 0 0-1.209-.206c-1.409 0-2.115.764-2.426 1.115-.18.048-.476.111-.707.161-1.596.342-4.572.98-4.572 3.683 0 .895.339 1.826 1.16 2.505a5.231 5.231 0 0 0-1.497 3.708c0 1.818 1.182 3.152 2.837 3.25-1.247.365-2.632.979-3.912 1.767-.236-1.556-1.699-2.801-3.405-2.801-1.502 0-2.986 1.02-3.527 2.426a7.331 7.331 0 0 0-.256.824 3.243 3.243 0 0 0-.53-.467c-.008-2.626-3.256-4.077-5.5-4.077-4.431 0-7.885 2.763-9.086 6.913a147.313 147.313 0 0 0-1.596-3.743c-1.208-2.554-3.04-2.937-4.025-2.937a3.65 3.65 0 0 0-.223.006c-2.65.141-3.518 2.58-3.837 3.472-.267.718-.507 1.507-.758 2.343a54.806 54.806 0 0 1-.767 2.391c-.016-1.394-.125-2.482-.746-3.75-.464-.947-1.362-1.637-2.341-1.834-.48-1.387-2.053-2.597-4.405-2.597-4.485 0-7.813 3.018-8.687 7.588A90.492 90.492 0 0 0 21.618 23l-.014-.036c-1.334-2.899-3.265-3.507-4.65-3.507-2.202 0-3.845 1.602-4.185 4.077a28.72 28.72 0 0 0-.153 1.412 6.889 6.889 0 0 0-.433-.723c-.504-.732-1.442-2.098-3.542-2.098-1.947 0-3.497 1.567-4.147 4.183l-.063.256c-.78 3.073-2.082 8.213-2.082 11.267 0 1.979 1.564 3.529 3.558 3.529 1.901 0 3.631-1.682 3.631-3.53 0-.907.07-2.898.184-4.896.569 1.189 1.008 2.081 1.255 2.512l.077.127c.332.49 1.343 1.98 3.364 1.98 1.74 0 3.181-1.426 3.428-3.391a10.2 10.2 0 0 0 .046-.472c.174.594.354 1.16.543 1.67.465 1.244 1.709 2.077 3.095 2.077 1.694 0 3.501-1.273 3.646-3.193 1.263 1.051 2.829 1.617 4.538 1.617 1.763 0 3.427-.58 4.85-1.662.51 1.09 1.623 1.861 2.87 1.861.055 0 .11-.001.165-.004 3.324-.178 5.244-3.926 6.445-7.946.556 1.92.921 3.152 1.13 3.675.598 1.566 2.116 2.593 3.752 2.505a3.31 3.31 0 0 0 2.52-1.4c1.312 1.366 3.146 2.175 5.267 2.175 2.852 0 5.287-1.207 6.943-3.225l.006.135c.181 1.793 1.43 3.045 3.04 3.045 1.684 0 3.07-1.3 3.203-2.932 1.304 1.86 2.9 3.649 4.004 4.462l.026.02c.521.37 1.299.609 1.982.609.7 0 1.359-.225 1.908-.603.038.028.073.057.113.08a3.148 3.148 0 0 0 1.712.518c.198 0 .391-.027.582-.064.554.987 1.699 1.777 3.698 1.777 1.757 0 3.901-.665 5.87-1.8a4.99 4.99 0 0 0-.06.753 3.31 3.31 0 0 0 3.343 3.346c1.467 0 2.718-.92 3.35-2.462l.025-.067c.344-.933 2.073-7.236 2.073-9.51 0-3.686-2.583-6.768-5.999-7.457zm-7.114 6.036c.187 1.395.964 2.693 2.224 3.72-.906.344-2.324.684-3.886.771a223.165 223.165 0 0 0 1.662-4.49zm.635-3.434a3.516 3.516 0 0 0-1.144-2.018c.69-.441 1.253-1.089 1.65-1.902.259.305.558.602.908.881.376.302.8.542 1.25.72-1.167.459-2.086 1.264-2.664 2.319zM73.864 26.92c.857-.613 3.083-1.395 4.588-1.566.133-.014.255-.037.378-.058l-.143.583c-.357 1.48-.774 3.195-1.211 4.685-2.226-1.987-3.21-3.063-3.612-3.644zm-16.473 1.398c-.882 0-1.347-.83-1.347-1.711 0-1.835 1.026-3.644 2.818-3.644.188 0 .657.123.804.202.07.046.139.088.208.13l-.002.034c0 .226.004.402.006.602.002.251.004.539.004 1.016 0 1.624-.78 3.371-2.491 3.371zm-25.234-4.958c.018.094.035.192.055.29.1.51.236 1.21.236 2.338 0 1.567-.962 2.905-2.248 2.905-.839 0-1.352-1.046-1.352-2.075 0-1.806.925-3.739 2.303-3.739.381 0 .765.163 1.006.28z" fill="#fff"/><path fill-rule="evenodd" clip-rule="evenodd" d="M58.478 18.543c1.453 0 3.578.927 3.578 2.154 0 .525-.431.793-.853.793-.293 0-.605-.16-.876-.336-.406-.263-1.282-.512-1.85-.512-2.994 0-4.738 2.601-4.738 5.58 0 2.181 1.382 3.646 3.267 3.646 2.795 0 4.414-2.549 4.414-5.305 0-.861-.01-1.117-.01-1.619 0-.536.471-.86.856-.86.529 0 .948.352 1.205 1.007.166.422.185.916.185 1.442 0 4.387-2.619 8.211-7.328 8.211-3.266 0-5.473-2.49-5.473-5.899 0-4.626 2.883-8.302 7.623-8.302zM83.505 25.89c-.156.564-2.797 7.703-3.204 8.34-.412.646-1.114.798-1.706.414-.544-.353-.674-1.044-.434-1.63.918-2.276 1.76-6.093 2.367-8.52.213-.858.862-1.503 1.841-1.503.837 0 1.435.77 1.435 1.516 0 .559-.176.944-.3 1.382zM17.05 24.582c-.114-.283-.28-.539-.536-.539-.196 0-.366.143-.394.484-.027.227-.452 8.176-.563 8.999-.113.91-.678 1.703-1.522 1.703-.846 0-1.354-.51-1.777-1.135-.648-1.135-3.241-6.784-3.41-7.014-.168-.283-.288-.538-.536-.538-.197 0-.338.285-.393.597-.396 1.93-.687 8.488-.687 10.308 0 .964-.8 1.59-1.709 1.59-.96 0-1.636-.648-1.636-1.59 0-2.9 1.381-8.265 2.087-11.046.366-1.477 1.156-2.726 2.282-2.726 1.1 0 1.523.624 1.973 1.278.762 1.078 2.592 5.791 2.761 6.075.141.256.256.426.452.426.225 0 .423-.228.423-.569 0-1.618.17-5.677.421-7.465.2-1.448 1.016-2.413 2.283-2.413 1.347 0 2.247.903 2.905 2.383.943 2.123 3.41 8.349 3.41 10.221 0 .94-.974 1.505-1.738 1.505-.505 0-1.093-.28-1.295-.824-1.022-2.733-1.79-7.395-2.801-9.71zM77.837 20.5c.82 0 1.473.506 1.473 1.247 0 .86-.49 1.19-1.456 1.298-1.896.213-6.482 1.596-6.482 3.351 0 1.395 3.74 4.6 4.978 5.706.367.34.677.767.677 1.278 0 .767-.705 1.476-1.495 1.476-.28 0-.673-.113-.873-.254-1.465-1.081-4.434-4.744-5.3-7.066-.1-.271-.202-.666-.202-.979 0-2.772 6.002-6.057 8.68-6.057zM92.129 30.783c0 2.563-5.237 5.783-8.583 5.783-1.073 0-2.192-.3-2.192-1.45 0-.735.513-1.327 1.256-1.327 3.243 0 7.348-1.162 7.348-2.646 0-.385-.26-.78-.699-1.04-1.025-.605-2.35-1.763-2.35-3.422 0-2.09 1.61-3.59 3.79-3.59 3.121 0 5.525 2.467 5.525 5.67 0 1.932-1.631 7.964-1.952 8.837-.274.67-.781 1.266-1.573 1.266a1.398 1.398 0 0 1-1.422-1.411c0-1.772 2.305-6.372 2.305-8.518 0-1.978-.841-3.56-2.509-3.56-.826 0-1.441.618-1.441 1.538 0 1.357 1.268 1.972 1.997 2.765.295.318.5.667.5 1.105zM30.694 18.808c1.245 0 2.638.66 2.638 1.562 0 .488-.325.78-.8.78-.174 0-.384-.088-.55-.151-.268-.105-.801-.243-1.215-.243-2.607 0-4.224 2.821-4.224 5.675 0 2.141 1.068 4.01 3.113 4.01 2.726 0 4.33-2.343 4.33-4.84 0-2-.375-2.874-.375-3.413 0-.58.41-.843.916-.843.42 0 .941.307 1.19.812.504 1.03.55 1.856.55 3.415 0 3.663-2.736 7.967-6.937 7.967-3.706 0-5.631-3.428-5.631-6.616 0-4.327 2.43-8.115 6.995-8.115zM37.112 33.736c-.703.038-1.27-.557-1.304-1.181-.022-.454.13-.93.502-1.193 3.293-2.335 4.086-7.374 5.2-10.363.393-1.101.901-2.153 2.142-2.22 1.237-.066 1.964.891 2.41 1.833.539 1.109 3.624 8.45 3.708 9.837.05.82-.465 1.474-1.33 1.522-.873.048-1.601-.583-1.862-1.28-.392-.973-1.978-6.787-2.344-7.792-.163-.417-.38-.831-.747-.813-.45.025-.588.6-.655.946-.493 2.416-2.202 10.515-5.72 10.704zM66.552 21.03c.254-.651 1.004-1.19 1.739-1.19.732 0 1.52.595 1.52 1.305 0 .368-.055.737-.169.965-.956 2.1-2 6.5-2.029 9.312 0 .738-.618 1.277-1.296 1.277-.59 0-1.042-.454-1.127-1.305 0-1.734.628-8.46 1.362-10.364z" fill="#243081"/><path fill-rule="evenodd" clip-rule="evenodd" d="M86.359 15.654c.337 1.494.684 2.705 1.924 3.701a3.006 3.006 0 0 0 1.818.643c1.888 0 1.955-2.511 1.955-3.971 0-1.562 1.888-1.46 1.888-3.363 0-1.832-1.645-2.682-3.532-2.682-1.729 0-3.177 1.12-4.794 1.12-.304 0-.541-.238-.541-.51 0-.746 2.53-1.19 3.575-1.358 1.248-.204 3-.78 3-2.31 0-1.393-3.035-1.357-3.843-2.172C87.2 4.139 87 3.29 85.988 3.29c-1.626 0-2.293 1.802-2.293 3.366 0 .714.337 1.358.337 2.004 0 .475-.303 1.321-.809 1.321-.405 0-.538-.511-.538-.816-.035-1.358-.56-2.718-1.872-2.718-.943 0-.91.64-1.535.919-.956.425-4.248.543-4.248 2.104 0 1.327 1.603 1.592 2.73 1.592 1.416 0 2.396-.504 3.506-.504.372.033.845.204.845.61-.067.51-.641.51-1.955.51-2.428 0-5.463 1.223-5.463 4.01 0 .78.406 1.322 1.113 1.322 1.416 0 2.259 0 2.934.917.438.612 1.921 2.682 3.437 2.682 1.99 0 2.745-1.978 2.745-3.812 0-1.662-1.126-2.749-1.126-3.67 0-.358.31-.634.65-.634 1.338 0 1.642 1.97 1.913 3.16z" fill="#BCCF00"/><path fill-rule="evenodd" clip-rule="evenodd" d="M3.415 54.319c-.11.237-.25.372-.508.372-.26 0-.398-.135-.513-.372L.998 51.387v3.784c0 .247-.004.326-.074.457-.073.134-.226.227-.425.227-.198 0-.351-.093-.425-.227-.07-.131-.074-.21-.074-.457v-5.4c0-.163.023-.34.148-.47a.507.507 0 0 1 .365-.149c.116 0 .218.028.282.065.078.047.18.172.245.303l1.867 3.836 1.858-3.836a.797.797 0 0 1 .245-.303.59.59 0 0 1 .282-.065c.124 0 .259.042.365.149.124.13.148.307.148.47v5.4c0 .247-.005.326-.075.457-.073.134-.226.227-.425.227a.469.469 0 0 1-.425-.227c-.069-.131-.074-.21-.074-.457v-3.784l-1.39 2.932zM7.734 51.6c.305-.316.763-.558 1.4-.558.638 0 1.095.242 1.4.558.454.475.55 1.062.55 1.858s-.096 1.382-.55 1.857c-.305.317-.762.559-1.4.559-.637 0-1.095-.242-1.4-.559-.458-.475-.55-1.061-.55-1.857s.092-1.383.55-1.858zm.716 3.148c.176.18.398.27.684.27.287 0 .509-.09.684-.27.282-.285.324-.773.324-1.29s-.042-1.001-.324-1.29c-.175-.181-.397-.27-.684-.27-.286 0-.508.089-.684.27-.282.289-.323.773-.323 1.29s.041 1.005.323 1.29zM13.589 53.295c0 1.974-.569 2.523-1.488 2.523a.652.652 0 0 1-.328-.065.392.392 0 0 1-.19-.35c0-.158.07-.283.185-.353a.48.48 0 0 1 .194-.056c.375-.051.717-.378.717-1.9V51.68c0-.144 0-.311.134-.447.133-.135.3-.135.443-.135h2.052c.144 0 .31 0 .444.135.134.136.134.303.134.447v3.529c0 .228-.014.312-.07.424-.064.125-.198.223-.401.223-.204 0-.338-.098-.402-.223-.056-.112-.07-.196-.07-.424v-3.254H13.59v1.341zM17.71 51.6c.305-.316.763-.558 1.4-.558.638 0 1.096.242 1.401.558.453.475.55 1.062.55 1.858s-.097 1.382-.55 1.857c-.305.317-.763.559-1.401.559-.637 0-1.095-.242-1.4-.559-.457-.475-.55-1.061-.55-1.857s.093-1.383.55-1.858zm.716 3.148c.176.18.398.27.684.27.287 0 .509-.09.684-.27.283-.285.324-.773.324-1.29s-.041-1.001-.324-1.29c-.175-.181-.397-.27-.684-.27-.286 0-.508.089-.684.27-.28.289-.322.773-.322 1.29s.041 1.005.322 1.29zM25.77 55.743a.438.438 0 0 1-.29.112c-.149 0-.255-.075-.43-.275l-1.55-1.778h-.22v1.406c0 .228-.014.312-.07.424-.065.125-.199.223-.403.223-.203 0-.337-.098-.402-.223-.055-.112-.069-.196-.069-.424v-3.5c0-.229.014-.312.07-.424.064-.126.198-.223.401-.223.204 0 .338.097.403.223.056.112.07.195.07.423v1.266h.22l1.416-1.638c.175-.2.281-.275.429-.275.102 0 .208.038.29.112a.383.383 0 0 1 .149.307c0 .13-.046.242-.217.428l-1.303 1.448 1.437 1.653c.166.19.217.298.217.427 0 .113-.037.21-.148.308zM27.134 51.6c.305-.316.763-.558 1.4-.558.638 0 1.095.242 1.4.558.453.475.55 1.062.55 1.858s-.097 1.382-.55 1.857c-.305.317-.762.559-1.4.559-.637 0-1.095-.242-1.4-.559-.458-.475-.55-1.061-.55-1.857s.092-1.383.55-1.858zm.716 3.148c.176.18.397.27.683.27.287 0 .509-.09.685-.27.282-.285.323-.773.323-1.29s-.041-1.001-.323-1.29c-.176-.181-.398-.27-.685-.27-.286 0-.507.089-.683.27-.282.289-.323.773-.323 1.29s.041 1.005.323 1.29zM32.301 56.511c-.07.21-.116.303-.204.382a.386.386 0 0 1-.282.107c-.18 0-.439-.107-.48-.368-.018-.116-.005-.21.065-.423l.406-1.229c.07-.21.116-.303.203-.382a.389.389 0 0 1 .282-.107c.18 0 .44.107.48.368.019.116.005.21-.064.423l-.406 1.23zM37.005 53.844c-.504-.223-.823-.698-.823-1.299 0-.856.62-1.447 1.526-1.447h1.63c.144 0 .31 0 .444.135s.134.302.134.447v3.528c0 .228-.013.312-.07.424-.064.126-.198.223-.402.223-.202 0-.337-.097-.402-.223-.055-.112-.068-.196-.068-.424v-1.159h-1.022l-.9 1.448c-.144.232-.246.358-.459.358a.473.473 0 0 1-.258-.079.443.443 0 0 1-.222-.368c0-.116.046-.214.162-.4l.73-1.164zm1.964-1.983h-1.095c-.48 0-.758.274-.758.717 0 .437.286.717.74.717h1.113V51.86zM44.866 55.743a.438.438 0 0 1-.291.112c-.148 0-.255-.075-.43-.275l-1.549-1.778h-.222v1.406c0 .228-.013.312-.069.424-.065.125-.198.223-.402.223-.203 0-.338-.098-.403-.223-.055-.112-.068-.196-.068-.424v-3.5c0-.229.013-.312.068-.424.065-.126.2-.223.403-.223.204 0 .337.097.402.223.056.112.07.195.07.423v1.266h.221l1.415-1.638c.175-.2.281-.275.43-.275.101 0 .208.038.29.112.111.098.149.196.149.307 0 .13-.047.242-.218.428l-1.303 1.448 1.438 1.653c.166.19.217.298.217.427 0 .113-.038.21-.148.308zM47.828 51.042c1.225 0 1.955.899 1.983 2.146.005.14-.014.307-.13.423-.12.122-.277.122-.415.122h-2.492c0 .805.422 1.33 1.202 1.33.329 0 .647-.092.902-.297.143-.116.263-.172.384-.172.19 0 .387.186.387.405 0 .219-.24.424-.47.573-.296.195-.722.302-1.225.302-1.17 0-2.113-.62-2.113-2.416 0-1.555.79-2.416 1.987-2.416zm.925 1.387a.974.974 0 0 0-.924-.596.978.978 0 0 0-.934.596c-.093.205-.11.354-.12.643h2.108c-.02-.29-.038-.438-.13-.643zM55.086 51.954v3.254c0 .228-.014.312-.07.424-.064.125-.198.223-.401.223s-.338-.098-.403-.223c-.055-.112-.07-.196-.07-.424v-3.254h-.896c-.203 0-.29-.014-.383-.065a.415.415 0 0 1-.194-.364c0-.162.078-.292.194-.362.092-.056.18-.066.383-.066h2.737c.203 0 .29.01.383.066.116.07.194.2.194.362a.413.413 0 0 1-.194.364c-.092.051-.18.065-.383.065h-.897zM59.209 51.042c1.225 0 1.955.899 1.982 2.146.005.14-.013.307-.13.423-.119.122-.277.122-.415.122h-2.491c0 .805.421 1.33 1.202 1.33.328 0 .646-.092.9-.297.144-.116.264-.172.384-.172.19 0 .388.186.388.405 0 .219-.24.424-.471.573-.296.195-.721.302-1.225.302-1.17 0-2.112-.62-2.112-2.416 0-1.555.79-2.416 1.988-2.416zm.923 1.387a.973.973 0 0 0-.923-.596.979.979 0 0 0-.934.596c-.092.205-.111.354-.12.643h2.107c-.018-.29-.037-.438-.13-.643zM64.403 51.172c.503 0 .878.135 1.15.391.421.391.616 1.07.616 1.909 0 .94-.195 1.47-.574 1.866-.328.345-.809.536-1.354.536-.823 0-1.41-.387-1.673-1.024-.217-.387-.296-.964-.296-1.7 0-2.16.037-2.844.772-3.45.513-.423 1.447-.567 2.214-.567.217 0 .3.014.393.066.12.069.198.204.198.372a.416.416 0 0 1-.198.367c-.093.052-.176.066-.393.066-.666 0-1.368.07-1.77.437-.333.312-.402.791-.402 1.355.232-.368.72-.624 1.317-.624zm.823 2.323c0-.619-.092-.987-.291-1.22a.907.907 0 0 0-.703-.297c-.278 0-.53.093-.707.292-.199.233-.31.606-.31 1.225 0 .661.112 1.01.324 1.247.175.192.425.28.693.28.269 0 .527-.093.698-.289.213-.237.296-.577.296-1.238zM69.167 51.042c1.225 0 1.956.899 1.983 2.146.005.14-.014.307-.13.423-.12.122-.277.122-.415.122h-2.492c0 .805.421 1.33 1.202 1.33.329 0 .647-.092.901-.297.143-.116.263-.172.384-.172.19 0 .388.186.388.405 0 .219-.24.424-.47.573-.297.195-.722.302-1.225.302-1.17 0-2.113-.62-2.113-2.416 0-1.555.79-2.416 1.987-2.416zm.925 1.387a.975.975 0 0 0-.925-.596.978.978 0 0 0-.933.596c-.093.205-.111.354-.121.643h2.108c-.019-.29-.037-.438-.13-.643zM76.014 53.295c0 1.974-.569 2.523-1.488 2.523a.65.65 0 0 1-.328-.065.392.392 0 0 1-.19-.35c0-.158.07-.283.185-.353a.486.486 0 0 1 .194-.056c.374-.051.716-.378.716-1.9V51.68c0-.144 0-.311.134-.447.134-.135.301-.135.443-.135h2.053c.143 0 .31 0 .444.135.133.136.133.303.133.447v3.529c0 .228-.013.312-.068.424-.065.125-.199.223-.403.223-.204 0-.337-.098-.402-.223-.056-.112-.07-.196-.07-.424v-3.254h-1.353v1.341zM80.676 55.632c-.065.126-.198.223-.402.223-.204 0-.337-.097-.402-.223-.056-.112-.07-.196-.07-.424v-3.5c0-.229.014-.312.07-.424.065-.126.198-.223.402-.223.204 0 .337.097.402.223.056.112.07.195.07.423v1.285h.841c.036-.567.17-1.014.536-1.392.305-.316.762-.559 1.4-.559.638 0 1.096.243 1.4.559.453.475.55 1.062.55 1.858s-.097 1.382-.55 1.857c-.304.317-.762.559-1.4.559-.638 0-1.095-.242-1.4-.559-.388-.4-.513-.88-.546-1.504h-.831v1.397c0 .228-.014.312-.07.424zm2.163-.884c.175.18.397.27.684.27.286 0 .508-.09.684-.27.282-.285.323-.773.323-1.29s-.041-1.001-.323-1.29c-.176-.181-.398-.27-.684-.27-.287 0-.509.089-.684.27-.282.289-.323.773-.323 1.29s.041 1.005.323 1.29zM88.725 51.172c.503 0 .878.135 1.151.391.42.391.614 1.07.614 1.909 0 .94-.194 1.47-.572 1.866-.329.345-.81.536-1.355.536-.822 0-1.41-.387-1.674-1.024-.216-.387-.295-.964-.295-1.7 0-2.16.038-2.844.771-3.45.514-.423 1.447-.567 2.215-.567.216 0 .3.014.392.066.12.069.2.204.2.372 0 .162-.08.298-.2.367-.092.052-.175.066-.392.066-.665 0-1.369.07-1.771.437-.332.312-.402.791-.402 1.355.232-.368.721-.624 1.318-.624zm.823 2.323c0-.619-.093-.987-.292-1.22a.905.905 0 0 0-.702-.297c-.278 0-.532.093-.707.292-.199.233-.31.606-.31 1.225 0 .661.111 1.01.324 1.247.175.192.424.28.693.28.268 0 .527-.093.698-.289.212-.237.296-.577.296-1.238zM92.82 55.404c-.205.307-.357.451-.588.451a.458.458 0 0 1-.338-.13c-.115-.112-.152-.265-.152-.484v-3.533c0-.228.013-.312.07-.424.064-.125.198-.223.402-.223.203 0 .337.098.402.223.056.112.07.196.07.424v2.55l1.824-2.746c.203-.312.357-.456.587-.456.144 0 .26.051.338.13.11.117.148.266.148.484v3.538c0 .228-.014.312-.07.424-.064.126-.198.223-.4.223-.205 0-.34-.097-.403-.223-.056-.112-.07-.196-.07-.424v-2.555l-1.82 2.751zM98.9 51.954v3.254c0 .228-.014.312-.07.424-.065.125-.198.223-.402.223-.203 0-.337-.098-.402-.223-.055-.112-.069-.196-.069-.424v-3.254h-.896c-.204 0-.292-.014-.384-.065a.414.414 0 0 1-.194-.364c0-.162.078-.292.194-.362.092-.056.18-.066.384-.066h2.736c.203 0 .29.01.383.066.116.07.194.2.194.362a.415.415 0 0 1-.194.364c-.093.051-.18.065-.383.065h-.898zM101.853 55.818c-.142 0-.31 0-.444-.135-.133-.135-.133-.303-.133-.447v-3.529c0-.228.014-.311.068-.423.065-.125.2-.223.402-.223.205 0 .338.098.403.223.056.112.07.196.07.423v1.173h1.256c.911 0 1.525.597 1.525 1.467 0 .875-.619 1.471-1.525 1.471h-1.622zm1.452-.768c.49 0 .753-.256.753-.703 0-.443-.264-.703-.753-.703h-1.087v1.406h1.087zM99.71 20.184v-1.887c0-.052 0-.114.05-.165.05-.05.112-.05.164-.05h.682c.439 0 .718.284.718.68 0 .332-.2.545-.458.619l.415.728c.04.072.053.102.055.146.001.057-.026.11-.086.146a.183.183 0 0 1-.094.024c-.088 0-.129-.062-.174-.144l-.483-.851h-.438v.755c0 .086-.002.114-.026.16-.026.047-.08.08-.15.08-.07 0-.123-.033-.15-.08-.024-.046-.026-.074-.026-.16zm.35-1.788v.733h.52c.234 0 .393-.135.393-.363 0-.231-.159-.37-.393-.37h-.52z" fill="#98CAE7"/><path fill-rule="evenodd" clip-rule="evenodd" d="M102.278 19.243h.133a1.96 1.96 0 0 0-1.954-1.968 1.96 1.96 0 0 0-1.954 1.968 1.96 1.96 0 0 0 1.954 1.968 1.96 1.96 0 0 0 1.954-1.968h-.265c0 .47-.19.895-.495 1.203a1.677 1.677 0 0 1-2.388 0 1.702 1.702 0 0 1-.495-1.203c0-.47.189-.894.495-1.203a1.677 1.677 0 0 1 2.388 0 1.7 1.7 0 0 1 .495 1.203h.132z" fill="#98CAE7"/></svg>