<svg width="125" height="216" fill="none" xmlns="http://www.w3.org/2000/svg"><path d="M.197 61.927L124.197 0v215.863h-124V61.927z" fill="#fff"/><path d="M12.441 206.839c0-.448-.116-.785-.347-1.012-.227-.231-.642-.47-1.246-.717-1.102-.418-1.894-.906-2.377-1.464a2.966 2.966 0 01-.725-1.993c0-.926.327-1.668.981-2.227.66-.564 1.495-.845 2.506-.845.675 0 1.276.143 1.804.43.529.282.934.682 1.216 1.2.287.518.43 1.107.43 1.766H12.47c0-.513-.11-.903-.332-1.17-.216-.271-.53-.407-.943-.407-.388 0-.69.116-.906.347-.217.227-.325.533-.325.921 0 .302.121.576.363.823.241.241.669.493 1.283.755 1.072.387 1.85.863 2.332 1.426.488.564.732 1.281.732 2.151 0 .957-.304 1.704-.913 2.242-.609.539-1.437.808-2.483.808-.71 0-1.357-.146-1.94-.438a3.306 3.306 0 01-1.374-1.253c-.327-.543-.49-1.185-.49-1.925H9.7c0 .634.123 1.095.37 1.382.247.287.649.43 1.208.43.775 0 1.162-.41 1.162-1.23zM24.915 204.967h-3.457v2.913h4.091v1.842h-6.31v-10.99h6.295v1.849h-4.076v2.597h3.457v1.789zM36.205 199.962l-3.472 9.76h-2.257l3.487-9.216h-4.408v-1.774h6.65v1.23zM46.513 204.967h-3.457v2.913h4.09v1.842h-6.31v-10.99h6.296v1.849h-4.076v2.597h3.457v1.789zM59.206 209.722h-2.22l-3.245-7.209v7.209h-2.22v-10.99h2.22l3.253 7.216v-7.216h2.212v10.99zM70.97 200.581h-2.716v9.141h-2.227v-9.141h-2.672v-1.849h7.616v1.849zM81.015 204.967h-3.457v2.913h4.09v1.842h-6.31v-10.99h6.296v1.849h-4.076v2.597h3.457v1.789zM91.27 207.473h-3.027l-.589 2.249h-2.347l3.434-10.99h2.03l3.458 10.99h-2.37l-.59-2.249zm-2.544-1.85h2.053l-1.026-3.917-1.027 3.917zM101.253 198.732l2.076 7.948 2.068-7.948h2.899v10.99h-2.227v-2.974l.204-4.582-2.197 7.556h-1.509l-2.197-7.556.204 4.582v2.974h-2.22v-10.99h2.899z" fill="#000"/><path d="M117.062 208.03a1.69 1.69 0 11-3.382 0 1.69 1.69 0 013.382 0z" fill="#BE1E2D"/></svg>